<svg width="1200" height="630" viewBox="0 0 1200 630" fill="none" xmlns="http://www.w3.org/2000/svg">
    <rect width="1200" height="630" fill="#344BDE"/>
    <path fill-rule="evenodd" clip-rule="evenodd" d="M1114.5 582C1135.21 582 1152 565.211 1152 544.5C1152 523.789 1135.21 507 1114.5 507C1093.79 507 1077 523.789 1077 544.5C1077 565.211 1093.79 582 1114.5 582Z" fill="white"/>
    <path fill-rule="evenodd" clip-rule="evenodd" d="M1100.44 526.031C1100.44 525.876 1100.56 525.75 1100.72 525.75H1104.84C1105 525.75 1105.12 525.876 1105.12 526.031V542.625V544.219V544.5H1118.91C1119.06 544.5 1119.19 544.626 1119.19 544.781V548.906C1119.19 549.062 1119.06 549.188 1118.91 549.188H1100.72C1100.56 549.188 1100.44 549.062 1100.44 548.906V546.094V544.781V544.219V542.625V526.031ZM1123.88 526.031C1123.88 525.876 1124 525.75 1124.16 525.75H1128.28C1128.44 525.75 1128.56 525.876 1128.56 526.031V562.969C1128.56 563.124 1128.44 563.25 1128.28 563.25H1124.16C1124 563.25 1123.88 563.124 1123.88 562.969V526.031ZM1100.72 553.875C1100.56 553.875 1100.44 554.001 1100.44 554.156V562.969C1100.44 563.124 1100.56 563.25 1100.72 563.25H1104.84C1105 563.25 1105.12 563.124 1105.12 562.969V554.156C1105.12 554.001 1105 553.875 1104.84 553.875H1100.72Z" fill="#344BDE"/>
</svg>
