<svg width="600" height="900" viewBox="0 0 600 900" fill="none" xmlns="http://www.w3.org/2000/svg">
    <path d="M0 3.99998C0 1.79084 1.79086 0 4 0H596C598.209 0 600 1.79086 600 4V896C600 898.209 598.209 900 596 900H4C1.79086 900 0 898.209 0 896V3.99998Z" fill="#2E2E3E"/>
    <path d="M50 54C50 51.7909 51.7909 50 54 50H196C198.209 50 200 51.7909 200 54V196C200 198.209 198.209 200 196 200H54C51.7909 200 50 198.209 50 196V54Z" fill="#E1EBF0"/>
    <path d="M50 254C50 251.791 51.7909 250 54 250H196C198.209 250 200 251.791 200 254V296C200 298.209 198.209 300 196 300H54C51.7909 300 50 298.209 50 296V254Z" fill="#E1EBF0"/>
    <path d="M50 354C50 351.791 51.7909 350 54 350H196C198.209 350 200 351.791 200 354V698C200 700.209 198.209 702 196 702H54C51.7909 702 50 700.209 50 698V354Z" fill="#E1EBF0"/>
    <path d="M250 54C250 51.7909 251.791 50 254 50H546C548.209 50 550 51.7909 550 54V96C550 98.2091 548.209 100 546 100H254C251.791 100 250 98.2091 250 96V54Z" fill="#E1EBF0"/>
    <path d="M250 154C250 151.791 251.791 150 254 150H546C548.209 150 550 151.791 550 154V296C550 298.209 548.209 300 546 300H254C251.791 300 250 298.209 250 296V154Z" fill="#E1EBF0"/>
    <path d="M250 354C250 351.791 251.791 350 254 350H546C548.209 350 550 351.791 550 354V596C550 598.209 548.209 600 546 600H254C251.791 600 250 598.209 250 596V354Z" fill="#E1EBF0"/>
    <path d="M250 654C250 651.791 251.791 650 254 650H546C548.209 650 550 651.791 550 654V796C550 798.209 548.209 800 546 800H254C251.791 800 250 798.209 250 796V654Z" fill="#E1EBF0"/>
    <path d="M0 850H600V896C600 898.209 598.209 900 596 900H4C1.79086 900 0 898.209 0 896V850Z" fill="#E1EBF0"/>
</svg>
