<svg width="40" height="40" viewBox="0 0 40 40" fill="none" xmlns="http://www.w3.org/2000/svg">
  <path d="M20.6997 15.2543C21.553 16.7324 20.4864 18.58 18.7798 18.58H8.22023C6.51364 18.58 5.44702 16.7323 6.30032 15.2543L11.5801 6.10858C12.4334 4.63047 14.5666 4.63047 15.4199 6.10858L20.6997 15.2543Z" fill="#00CD81"/>
  <path d="M23.5801 27.5285C24.4334 26.0505 26.5666 26.0505 27.4199 27.5285L32.6997 36.6733C33.553 38.1512 32.4864 39.9987 30.7798 39.9987H20.2202C18.5136 39.9987 17.447 38.1512 18.3003 36.6733L23.5801 27.5285Z" fill="#003E27"/>
  <path d="M27.4199 12.4702C26.5666 13.9482 24.4334 13.9482 23.5801 12.4702L18.3003 3.32539C17.447 1.84742 18.5136 0 20.2202 0H30.7798C32.4864 0 33.553 1.84742 32.6997 3.32539L27.4199 12.4702Z" fill="#99EBCD"/>
  <path d="M18.7798 22C20.4864 22 21.553 23.8476 20.6997 25.3257L15.4199 34.4714C14.5666 35.9495 12.4334 35.9495 11.5801 34.4714L6.30032 25.3257C5.44702 23.8476 6.51364 22 8.22023 22H18.7798Z" fill="#007B4D"/>
</svg>
