<!-- https://commons.wikimedia.org/wiki/File:Spark_App_Logo.svg -->
<svg width="1024" height="1024" xmlns="http://www.w3.org/2000/svg"><defs><linearGradient x1="38.915%" y1="91.371%" x2="61.179%" y2="8.281%" id="a"><stop stop-color="#1455F0" offset="0%"/><stop stop-color="#0A96F0" offset="100%"/></linearGradient><linearGradient x1="40.234%" y1="5.361%" x2="51.446%" y2="101.922%" id="b"><stop stop-color="#FFF" offset="0%"/><stop stop-color="#DAE5F5" offset="100%"/></linearGradient><linearGradient x1="64.469%" y1="5.983%" x2="44.674%" y2="105.17%" id="c"><stop stop-color="#DAE5F2" offset="0%"/><stop stop-color="#D5E2F1" offset="23.96%"/><stop stop-color="#C7D9EE" offset="52.19%"/><stop stop-color="#AFCBE9" offset="82.46%"/><stop stop-color="#9EC0E6" offset="100%"/></linearGradient><linearGradient x1="50%" y1="1.186%" x2="50%" y2="98.607%" id="d"><stop stop-color="#FAFCFF" offset="0%"/><stop stop-color="#CEDCF2" offset="100%"/></linearGradient><linearGradient x1="49.56%" y1="1.97%" x2="50.061%" y2="99.664%" id="e"><stop stop-color="#D0DEF2" offset="0%"/><stop stop-color="#72A0DC" offset="100%"/></linearGradient><linearGradient x1="50%" y1="1.183%" x2="50%" y2="98.612%" id="f"><stop stop-color="#FFF" offset="0%"/><stop stop-color="#EBF0FF" offset="100%"/></linearGradient><linearGradient x1="50%" y1="1.203%" x2="50%" y2="98.594%" id="g"><stop stop-color="#FFF" offset="0%"/><stop stop-color="#EBF0FF" offset="100%"/></linearGradient><linearGradient x1="50%" y1="1.184%" x2="50%" y2="98.589%" id="h"><stop stop-color="#FFF" offset="0%"/><stop stop-color="#CEDCF2" offset="100%"/></linearGradient></defs><g fill="none"><circle fill="url(#a)" cx="512" cy="512" r="512"/><path d="M821.3 763.4l-300-624.7c-4-8.4-15.9-8.4-20 0l-300 624.7c-4.2 8.6 3.9 16.8 12.6 12.7l225.6-104.4c1.8-.8 3.7-.9 5.5-.3 2.1.7 3.8 2.3 4.6 4.5l56.5 163.3c1.8 4.9 8.7 4.9 10.4 0L573 675.9c.8-2.2 2.5-3.8 4.6-4.5 1.7-.6 3.7-.5 5.5.3l225.6 104.4c8.6 4.1 16.7-4 12.6-12.7z" fill="url(#b)"/><path d="M511.3 132.5c-4 0-8 2.1-10 6.3l-300 624.7c-4.2 8.6 3.9 16.8 12.6 12.7l225.6-104.4c1.8-.8 3.7-.9 5.5-.3l58-525.8c.4-3.9 5-6.7 8.4-6.7v-6.5h-.1z" fill="url(#c)"/><path d="M577.6 671.4c-2.1.7-3.8 2.3-4.6 4.5l-56.5 163.3c-1.7 4.9-8.7 4.9-10.4 0l-56.5-163.3c-.8-2.2-2.6-3.8-4.6-4.5l58-526.7c.8-7.7 15.7-7.7 16.6 0l58 526.7z" fill="url(#d)"/><path d="M519.5 144.7c-.4-3.9-5.3-5.8-8.3-5.8V843c2.2 0 4.4-1.2 5.2-3.7L573 675.9c.8-2.2 2.5-3.8 4.6-4.5l-58.1-526.7z" fill="url(#e)"/><path d="M519.2 142l56.6 530.2c.6-.4 1.2-.7 1.8-.9.6-.2 1.2-.3 1.8-.4L522 141.8c-.1-.8-.5-1-1.5-.9-1 .1-1.4.4-1.3 1.1z" fill="url(#f)"/><path d="M503.3 142.1l-56.6 530.2c-.6-.4-1.2-.7-1.8-.9-.6-.2-1.2-.3-1.8-.4l57.4-529.3c.1-.8.5-1 1.5-.9 1.1.2 1.4.5 1.3 1.3z" fill="url(#g)"/><path d="M503.7 151.7c6.1 9.1 7.6 26.1 7.6 37.1 0-11 1.4-28 7.6-37.1h-15.2z" fill="#FFF"/><circle fill="#FFF" transform="rotate(-80.782 511.31 143.596)" cx="511.311" cy="143.596" r="11.1"/><path d="M511.4 843l1.8-697.6c0-1-.8-1.8-1.8-1.8s-1.8.8-1.8 1.8l1.8 697.6z" fill="url(#h)"/></g></svg>
