<svg width="39" height="39" viewBox="0 0 39 39" fill="none" xmlns="http://www.w3.org/2000/svg">
  <path d="M27.758 13.3061L27.744 13.3001C27.736 13.2971 27.728 13.2941 27.721 13.2871C27.7095 13.2747 27.701 13.2599 27.6962 13.2438C27.6913 13.2277 27.6902 13.2107 27.693 13.1941L28.466 8.46807L32.091 12.0941L28.321 13.6981C28.3105 13.7023 28.2993 13.7043 28.288 13.7041H28.273C28.268 13.7011 28.263 13.6971 28.253 13.6871C28.1127 13.5309 27.9449 13.4017 27.758 13.3061V13.3061ZM33.016 13.0181L36.892 16.8941C37.697 17.7001 38.1 18.1021 38.247 18.5681C38.269 18.6371 38.287 18.7061 38.301 18.7771L29.038 14.8541C29.033 14.852 29.028 14.85 29.023 14.8481C28.986 14.8331 28.943 14.8161 28.943 14.7781C28.943 14.7401 28.987 14.7221 29.024 14.7071L29.036 14.7021L33.016 13.0181ZM38.143 20.0211C37.943 20.3971 37.553 20.7871 36.893 21.4481L32.523 25.8171L26.871 24.6401L26.841 24.6341C26.791 24.6261 26.738 24.6171 26.738 24.5721C26.7165 24.3389 26.6473 24.1127 26.5346 23.9074C26.4219 23.7022 26.2682 23.5223 26.083 23.3791C26.06 23.3561 26.066 23.3201 26.073 23.2871C26.073 23.2821 26.073 23.2771 26.075 23.2731L27.138 16.7471L27.142 16.7251C27.148 16.6751 27.157 16.6171 27.202 16.6171C27.4298 16.5887 27.6497 16.5153 27.8488 16.4012C28.048 16.287 28.2224 16.1343 28.362 15.9521C28.371 15.9421 28.377 15.9311 28.389 15.9251C28.421 15.9101 28.459 15.9251 28.492 15.9391L38.142 20.0211H38.143ZM31.518 26.8221L24.332 34.0081L25.562 26.4481L25.564 26.4381C25.565 26.4281 25.567 26.4181 25.57 26.4091C25.58 26.3851 25.606 26.3751 25.631 26.3651L25.643 26.3601C25.9123 26.2452 26.1505 26.068 26.338 25.8431C26.362 25.8151 26.391 25.7881 26.428 25.7831C26.4376 25.7815 26.4474 25.7815 26.457 25.7831L31.517 26.8231L31.518 26.8221ZM22.811 35.5291L22.001 36.3391L13.046 23.3971C13.0428 23.3923 13.0394 23.3877 13.036 23.3831C13.022 23.3641 13.007 23.3451 13.01 23.3231C13.01 23.3071 13.021 23.2931 13.032 23.2811L13.042 23.2681C13.069 23.2281 13.092 23.1881 13.117 23.1451L13.137 23.1101L13.14 23.1071C13.154 23.0831 13.167 23.0601 13.191 23.0471C13.212 23.0371 13.241 23.0411 13.264 23.0461L23.185 25.0921C23.2127 25.0964 23.2389 25.1077 23.261 25.1251C23.274 25.1381 23.277 25.1521 23.28 25.1681C23.3492 25.4299 23.478 25.6722 23.6563 25.876C23.8347 26.0798 24.0577 26.2397 24.308 26.3431C24.336 26.3571 24.324 26.3881 24.311 26.4211C24.3045 26.4355 24.2995 26.4506 24.296 26.4661C24.171 27.2261 23.099 33.7641 22.811 35.5291ZM21.119 37.2201C20.522 37.8111 20.17 38.1241 19.772 38.2501C19.3796 38.3742 18.9584 38.3742 18.566 38.2501C18.1 38.1021 17.697 37.7001 16.892 36.8941L7.899 27.9011L10.248 24.2581C10.259 24.2401 10.27 24.2241 10.288 24.2111C10.313 24.1931 10.349 24.2011 10.379 24.2111C10.9182 24.3737 11.497 24.3444 12.017 24.1281C12.044 24.1181 12.071 24.1111 12.092 24.1301C12.1025 24.1397 12.1119 24.1504 12.12 24.1621L21.119 37.2211V37.2201ZM7.032 27.0341L4.969 24.9711L9.043 23.2331C9.05341 23.2285 9.06464 23.2261 9.076 23.2261C9.11 23.2261 9.13 23.2601 9.148 23.2911C9.18894 23.3541 9.23231 23.4154 9.278 23.4751L9.291 23.4911C9.303 23.5081 9.295 23.5251 9.283 23.5411L7.033 27.0341H7.032ZM4.056 24.0581L1.446 21.4481C1.002 21.0041 0.68 20.6821 0.456 20.4051L8.392 22.0511C8.40197 22.0529 8.41197 22.0546 8.422 22.0561C8.471 22.0641 8.525 22.0731 8.525 22.1191C8.525 22.1691 8.466 22.1921 8.416 22.2111L8.393 22.2211L4.056 24.0581ZM0 19.0631C0.00904416 18.8949 0.0392834 18.7286 0.09 18.5681C0.238 18.1021 0.64 17.7001 1.446 16.8941L4.786 13.5541C6.32383 15.7859 7.86584 18.015 9.412 20.2411C9.439 20.2771 9.469 20.3171 9.438 20.3471C9.292 20.5081 9.146 20.6841 9.043 20.8751C9.03183 20.8996 9.01463 20.9209 8.993 20.9371C8.98 20.9451 8.966 20.9421 8.951 20.9391H8.949L0 19.0621V19.0631ZM5.68 12.6601L10.169 8.16907C10.592 8.35407 12.129 9.00307 13.502 9.58307C14.542 10.0231 15.49 10.4231 15.788 10.5531C15.818 10.5651 15.845 10.5771 15.858 10.6071C15.866 10.6251 15.862 10.6481 15.858 10.6671C15.7869 10.9912 15.7975 11.328 15.8888 11.6471C15.9801 11.9662 16.1492 12.2575 16.381 12.4951C16.411 12.5251 16.381 12.5681 16.355 12.6051L16.341 12.6261L11.781 19.6891C11.769 19.7091 11.758 19.7261 11.738 19.7391C11.714 19.7541 11.68 19.7471 11.652 19.7401C11.4746 19.6936 11.2923 19.6688 11.109 19.6661C10.945 19.6661 10.767 19.6961 10.587 19.7291H10.586C10.566 19.7321 10.548 19.7361 10.532 19.7241C10.5143 19.7096 10.4991 19.6924 10.487 19.6731L5.679 12.6601H5.68ZM11.078 7.26207L16.892 1.44807C17.697 0.643068 18.1 0.240068 18.566 0.0930676C18.9584 -0.0310225 19.3796 -0.0310225 19.772 0.0930676C20.238 0.240068 20.641 0.643068 21.446 1.44807L22.706 2.70807L18.571 9.11207C18.5608 9.13071 18.5468 9.14705 18.53 9.16007C18.505 9.17707 18.47 9.17007 18.44 9.16007C18.114 9.06113 17.7688 9.04312 17.4342 9.10759C17.0997 9.17206 16.7859 9.31706 16.52 9.53007C16.493 9.55807 16.453 9.54207 16.419 9.52707C15.879 9.29207 11.679 7.51707 11.078 7.26207V7.26207ZM23.584 3.58607L27.402 7.40407L26.482 13.1021V13.1171C26.4812 13.1301 26.4785 13.1429 26.474 13.1551C26.464 13.1751 26.444 13.1791 26.424 13.1851C26.2273 13.2446 26.042 13.3369 25.876 13.4581C25.8689 13.4632 25.8622 13.4688 25.856 13.4751C25.845 13.4871 25.834 13.4981 25.816 13.5001C25.8013 13.5005 25.7868 13.4981 25.773 13.4931L19.955 11.0211L19.944 11.0161C19.907 11.0011 19.863 10.9831 19.863 10.9451C19.8288 10.6209 19.7229 10.3083 19.553 10.0301C19.525 9.98407 19.494 9.93607 19.518 9.88907L23.584 3.58607ZM19.652 12.1921L25.106 14.5021C25.136 14.5161 25.169 14.5291 25.182 14.5601C25.1872 14.5787 25.1872 14.5984 25.182 14.6171C25.166 14.6971 25.152 14.7881 25.152 14.8801V15.0331C25.152 15.0711 25.113 15.0871 25.077 15.1021L25.066 15.1061C24.202 15.4751 12.936 20.2791 12.919 20.2791C12.902 20.2791 12.884 20.2791 12.867 20.2621C12.837 20.2321 12.867 20.1901 12.894 20.1521C12.8988 20.1455 12.9034 20.1388 12.908 20.1321L17.39 13.1921L17.398 13.1801C17.424 13.1381 17.454 13.0911 17.502 13.0911L17.547 13.0981C17.649 13.1121 17.739 13.1251 17.83 13.1251C18.51 13.1251 19.14 12.7941 19.52 12.2281C19.5291 12.213 19.5405 12.1994 19.554 12.1881C19.581 12.1681 19.621 12.1781 19.652 12.1921V12.1921ZM13.406 21.3771L25.686 16.1401C25.686 16.1401 25.704 16.1401 25.721 16.1571C25.788 16.2241 25.845 16.2691 25.9 16.3111L25.927 16.3281C25.952 16.3421 25.977 16.3581 25.979 16.3841C25.979 16.3941 25.979 16.4001 25.977 16.4091L24.925 22.8711L24.921 22.8971C24.914 22.9471 24.907 23.0041 24.86 23.0041C24.5795 23.023 24.3079 23.11 24.0687 23.2576C23.8294 23.4052 23.6298 23.6089 23.487 23.8511L23.482 23.8591C23.468 23.8821 23.455 23.9041 23.432 23.9161C23.411 23.9261 23.384 23.9221 23.362 23.9171L13.569 21.8971C13.559 21.8951 13.417 21.3781 13.406 21.3771V21.3771Z" fill="url(#paint0_radial)"/>
  <defs>
    <radialGradient id="paint0_radial" cx="0" cy="0" r="1" gradientUnits="userSpaceOnUse" gradientTransform="translate(-1.28593 18.6306) rotate(90) scale(38.3009 44.2199)">
      <stop stop-color="#20C6B7"/>
      <stop offset="1" stop-color="#4D9ABF"/>
    </radialGradient>
  </defs>
</svg>
