<?xml version="1.0" encoding="utf-8"?>
<!-- Created by @martinalejandrogg - https://github.com/websiddu/technology-icons/issues/12#issuecomment-663750109  -->
<svg version="1.1" xmlns="http://www.w3.org/2000/svg" xmlns:xlink="http://www.w3.org/1999/xlink" x="0px" y="0px"
     viewBox="0 0 580 607" style="enable-background:new 0 0 580 607;" xml:space="preserve">
<style type="text/css">
	.st0{fill:#43B02A;}
</style>
  <g id="Layer_1">
	<g>
		<path class="st0" d="M416.16,397.07c-12.89-13.18-28.8-15.14-45.53-11.07c-16.76,4.07-27.3,15.37-31.77,32.08
			c-1.52,5.68-0.69,6.64,4.84,6.64c13.17,0.01,26.34,0,39.51,0c13.59,0,27.19-0.08,40.78,0.06c3.18,0.03,4.54-0.93,3.91-4.15
			C426.14,411.71,422.63,403.69,416.16,397.07z"/>
    <path class="st0" d="M579.87,89.8c-0.2-1.48-1.06-3.56-2.19-4.03c-1.1-0.46-3.42,0.34-4.33,1.36
			c-45.03,50.51-89.96,101.11-134.93,151.69c-17.12,19.26-34.27,38.49-51.45,57.7c-4.59,5.13-7.54,5.17-12.31,0.25
			c-30.77-31.7-61.52-63.42-92.25-95.15c-4.34-4.48-4.4-6.74-0.47-11.79c9.55-12.3,19.11-24.59,28.68-36.87
			c4.44-5.69,7.92-5.82,12.73-0.5c16.81,18.58,33.6,37.19,50.45,55.74c5.21,5.74,7.37,5.59,11.87-0.59
			C434.15,141.19,482.63,74.78,531.02,8.3c1.18-1.62,2.11-4.22,1.64-5.96c-0.28-1.04-3.51-1.82-5.41-1.82
			C353.8,0.44,180.34,0.45,6.89,0.39c-2.98,0-5.21,0.77-6.85,3.21c0,199.97,0,399.93,0,599.9c2.15,2.64,4.97,3.11,8.26,3.11
			c187.76-0.06,375.51-0.05,563.27-0.05c7.55,0,8.09-0.54,8.09-8.31c0-104.21,0-208.43,0-312.64c0-63.01,0-126.02,0.02-189.03
			C579.68,94.31,580.16,92.01,579.87,89.8z M262.28,464.7c-1.09,21.73-9.23,40.02-26.17,54.01c-12.05,9.95-26.06,15.96-41.28,18.68
			c-11.77,2.11-23.76,3.04-35.65,4.49c-36.9-0.43-69.63-11.51-97.97-35.13c-4.75-3.96-4.97-6.01-1.36-11.14
			c6.84-9.72,13.72-19.42,20.65-29.08c3.43-4.78,6.56-5.24,10.92-1.4c16.26,14.3,35.08,23.25,56.45,26.36
			c15.98,2.33,31.93,2.48,46.63-5.93c6.57-3.76,11.25-9.17,12.46-16.8c1.4-8.8-2.31-16.15-11.34-20.24
			c-8.56-3.89-17.59-6.93-26.65-9.51c-14.37-4.1-29.17-6.82-43.36-11.45c-11.06-3.61-22.01-8.29-32.06-14.14
			c-19.54-11.38-28.96-29.11-30.28-51.78c-1.46-24.99,8.23-44.55,27.09-60.03c11.94-9.8,25.96-15.66,40.97-18.49
			c32.08-6.05,63.42-3.43,93.02,11.08c9.33,4.57,17.88,10.8,26.56,16.61c4.28,2.86,4.54,5.65,1.68,9.7
			c-6.94,9.82-13.94,19.61-21.02,29.34c-3.04,4.18-6.31,4.61-10.53,1.39c-14.9-11.4-31.57-18.7-50.11-21.5
			c-11.52-1.74-23.1-2.36-34.43,1.29c-8.85,2.85-15.51,8-17.52,17.74c-1.41,6.82,0.74,12.29,6.16,16.43
			c8.08,6.16,17.78,8.47,27.32,11.08c17.82,4.88,35.78,9.34,53.46,14.67c11.82,3.56,22.8,9.25,32.48,17.1
			C256.42,422.7,263.43,441.96,262.28,464.7z M469.99,458.54c-21.1,0.01-42.19,0.01-63.29,0.01c-21.1,0-42.19,0-63.29,0
			c-5.22,0-5.4,0.26-4.13,5.32c6.1,24.33,29.94,40.04,54.57,37.06c15.47-1.87,29.83-5.94,42.78-14.73c3.15-2.14,6.18-1.66,8.45,1.64
			c5.06,7.34,10.17,14.64,15.12,22.06c2.46,3.68,1.94,6.15-1.69,8.7c-17.23,12.08-36.24,19.49-57.26,21.53
			c-15.27,1.48-30.54,1.95-45.42-2.55c-36.42-11-59.91-34.93-67.71-72.18c-6.03-28.81-1.94-56.59,15.9-81.18
			c16.43-22.65,38.69-35.92,66.34-39.06c22.86-2.6,44.84,1.01,64.44,14.23c21.34,14.4,33.5,34.96,38.62,59.68
			c2.19,10.58,2.63,21.54,3.5,32.36C477.33,456.86,475.38,458.53,469.99,458.54z"/>
	</g>
</g>
  <g id="Layer_2">
</g>
</svg>
