<svg width="185" height="40" viewBox="0 0 185 40" fill="none" xmlns="http://www.w3.org/2000/svg">
<g clip-path="url(#clip0_1266_1821)">
<path d="M74.4749 23.0265L71.2757 14.4027C71.1452 14.05 70.6463 14.05 70.5154 14.4027L67.3168 23.027C67.2941 23.0883 67.2865 23.1542 67.2948 23.2191C67.3031 23.2839 67.3269 23.3458 67.3642 23.3995C67.4016 23.4531 67.4514 23.497 67.5093 23.5272C67.5673 23.5575 67.6317 23.5733 67.6971 23.5732H74.0946C74.16 23.5732 74.2244 23.5574 74.2824 23.5271C74.3403 23.4968 74.3901 23.453 74.4274 23.3993C74.4647 23.3456 74.4885 23.2837 74.4967 23.2188C74.505 23.154 74.4974 23.0881 74.4746 23.0268L74.4749 23.0265ZM75.9527 27.8738H65.8392C65.7565 27.8738 65.6757 27.8991 65.6078 27.9464C65.5399 27.9936 65.488 28.0605 65.4592 28.1381L63.4681 33.5041C63.4393 33.5816 63.3875 33.6485 63.3196 33.6958C63.2516 33.743 63.1709 33.7684 63.0881 33.7684H58.7046C58.6384 33.7684 58.5731 33.7521 58.5146 33.721C58.4561 33.6899 58.406 33.645 58.3689 33.5901C58.3318 33.5352 58.3087 33.4721 58.3016 33.4062C58.2946 33.3403 58.3038 33.2737 58.3284 33.2122L68.4206 8.07108C68.4508 7.99599 68.5028 7.93166 68.5699 7.88638C68.637 7.8411 68.7161 7.81695 68.7971 7.81703H72.9944C73.1598 7.81703 73.3087 7.91757 73.3706 8.07108L83.4625 33.2119C83.4872 33.2734 83.4965 33.3401 83.4895 33.4061C83.4825 33.472 83.4594 33.5353 83.4223 33.5902C83.3851 33.6452 83.3351 33.6902 83.2765 33.7213C83.2179 33.7524 83.1526 33.7687 83.0862 33.7687H78.7035C78.6208 33.7686 78.54 33.7432 78.472 33.6959C78.4041 33.6486 78.3523 33.5817 78.3235 33.5041L76.3322 28.1381C76.3034 28.0605 76.2516 27.9936 76.1836 27.9464C76.1157 27.8991 76.0349 27.8738 75.9522 27.8738H75.9527ZM85.5162 16.6403H89.2654C89.373 16.6403 89.4761 16.683 89.5521 16.759C89.6281 16.835 89.6708 16.9382 89.6708 17.0457V33.363C89.6708 33.4705 89.6281 33.5736 89.5521 33.6496C89.4761 33.7257 89.373 33.7684 89.2654 33.7684H85.5162C85.4087 33.7684 85.3056 33.7257 85.2296 33.6496C85.1536 33.5736 85.1108 33.4705 85.1108 33.363V17.0454C85.1108 16.9379 85.1536 16.8348 85.2296 16.7587C85.3056 16.6827 85.4087 16.64 85.5162 16.64V16.6403ZM103.344 20.6095C103.344 20.717 103.302 20.8201 103.226 20.8961C103.15 20.9722 103.046 21.0149 102.939 21.0149H102.825C100.972 21.0149 99.6119 21.4597 98.7471 22.3495C97.8817 23.2392 97.4498 24.71 97.4498 26.7614V33.363C97.4498 33.4705 97.407 33.5736 97.331 33.6496C97.255 33.7257 97.1519 33.7684 97.0444 33.7684H93.3319C93.2244 33.7684 93.1213 33.7257 93.0453 33.6496C92.9692 33.5736 92.9265 33.4705 92.9265 33.363V17.0454C92.9265 16.9379 92.9692 16.8348 93.0453 16.7587C93.1213 16.6827 93.2244 16.64 93.3319 16.64H97.0071C97.1146 16.64 97.2177 16.6827 97.2937 16.7587C97.3698 16.8348 97.4125 16.9379 97.4125 17.0454V20.273H97.4868C97.9316 18.9384 98.636 17.9132 99.6003 17.1959C100.564 16.4795 101.75 16.1208 103.159 16.1208H103.344V20.6092V20.6095ZM113.596 20.4586C113.488 20.4586 113.385 20.5014 113.309 20.5774C113.233 20.6534 113.19 20.7565 113.19 20.8641V27.6511C113.19 28.3432 113.325 28.8376 113.598 29.1341C113.869 29.4305 114.339 29.5789 115.007 29.5789H115.38C115.487 29.5789 115.59 29.6216 115.666 29.6977C115.742 29.7737 115.785 29.8768 115.785 29.9843V33.3997C115.785 33.5073 115.742 33.6104 115.666 33.6864C115.59 33.7624 115.487 33.8051 115.38 33.8051H113.783C112.127 33.8051 110.854 33.3789 109.965 32.5262C109.075 31.6735 108.63 30.4073 108.63 28.7262V20.8641C108.63 20.7565 108.587 20.6534 108.511 20.5774C108.435 20.5014 108.332 20.4586 108.224 20.4586H105.884C105.777 20.4586 105.673 20.4159 105.597 20.3399C105.521 20.2639 105.479 20.1608 105.479 20.0532V17.0454C105.479 16.9379 105.521 16.8348 105.597 16.7587C105.673 16.6827 105.777 16.64 105.884 16.64H108.225C108.332 16.64 108.435 16.5973 108.511 16.5213C108.587 16.4452 108.63 16.3421 108.63 16.2346V10.1868C108.63 10.0792 108.673 9.97612 108.749 9.90009C108.825 9.82406 108.928 9.78135 109.035 9.78135H112.785C112.892 9.78135 112.995 9.82406 113.071 9.90009C113.147 9.97612 113.19 10.0792 113.19 10.1868V16.2346C113.19 16.3421 113.233 16.4452 113.309 16.5213C113.385 16.5973 113.488 16.64 113.595 16.64H116.307C116.414 16.64 116.517 16.6827 116.593 16.7587C116.669 16.8348 116.712 16.9379 116.712 17.0454V20.0535C116.712 20.161 116.669 20.2642 116.593 20.3402C116.517 20.4162 116.414 20.4589 116.307 20.4589H113.596V20.4586ZM130.764 28.6892C131.616 27.7995 132.042 26.6378 132.042 25.2041C132.042 23.7711 131.616 22.6089 130.764 21.7192C129.911 20.8295 128.792 20.3846 127.408 20.3846C126.024 20.3846 124.906 20.8295 124.053 21.7192C123.201 22.6089 122.774 23.7711 122.774 25.2041C122.774 26.6378 123.201 27.7995 124.053 28.6892C124.906 29.5789 126.024 30.0238 127.408 30.0238C128.792 30.0238 129.911 29.5789 130.764 28.6892ZM122.107 33.2492C120.846 32.5327 119.851 31.4881 119.122 30.1165C118.393 28.7449 118.029 27.1076 118.029 25.2041C118.029 23.3014 118.393 21.6635 119.122 20.2919C119.851 18.9203 120.846 17.8765 122.107 17.1592C123.367 16.4424 124.751 16.0841 126.259 16.0841C127.594 16.0841 128.737 16.3435 129.689 16.8624C130.639 17.3814 131.399 18.1108 131.968 19.05H132.042V17.0454C132.042 16.9379 132.085 16.8348 132.161 16.7587C132.237 16.6827 132.34 16.64 132.448 16.64H136.16C136.268 16.64 136.371 16.6827 136.447 16.7587C136.523 16.8348 136.565 16.9379 136.565 17.0454V33.3627C136.565 33.4702 136.523 33.5733 136.447 33.6494C136.371 33.7254 136.268 33.7681 136.16 33.7681H132.448C132.34 33.7681 132.237 33.7254 132.161 33.6494C132.085 33.5733 132.042 33.4702 132.042 33.3627V31.3584H131.968C131.399 32.2981 130.639 33.0268 129.688 33.5457C128.737 34.0646 127.594 34.3241 126.259 34.3241C124.751 34.3241 123.367 33.9657 122.107 33.2492ZM152.004 28.6892C152.857 27.7995 153.283 26.6378 153.283 25.2041C153.283 23.7711 152.857 22.6089 152.004 21.7192C151.152 20.8295 150.033 20.3846 148.649 20.3846C147.265 20.3846 146.147 20.8295 145.294 21.7192C144.441 22.6089 144.015 23.7711 144.015 25.2041C144.015 26.6378 144.441 27.7995 145.294 28.6892C146.147 29.5789 147.265 30.0238 148.649 30.0238C150.033 30.0238 151.152 29.5789 152.004 28.6892ZM146.369 33.5457C145.417 33.0268 144.657 32.2981 144.089 31.3584H144.015V33.3627C144.015 33.4702 143.972 33.5733 143.896 33.6494C143.82 33.7254 143.717 33.7681 143.609 33.7681H139.86C139.753 33.7681 139.649 33.7254 139.573 33.6494C139.497 33.5733 139.455 33.4702 139.455 33.3627V8.22162C139.455 8.1141 139.497 8.01098 139.573 7.93496C139.649 7.85893 139.753 7.81622 139.86 7.81622H143.609C143.717 7.81622 143.82 7.85893 143.896 7.93496C143.972 8.01098 144.015 8.1141 144.015 8.22162V19.0497H144.089C144.657 18.1105 145.417 17.3814 146.369 16.8624C147.32 16.3432 148.464 16.0838 149.798 16.0838C151.306 16.0838 152.69 16.4422 153.951 17.1589C155.211 17.8762 156.206 18.92 156.935 20.2914C157.664 21.6638 158.029 23.3016 158.029 25.2043C158.029 27.1078 157.664 28.7449 156.935 30.1168C156.206 31.4884 155.211 32.533 153.951 33.2492C152.69 33.9659 151.306 34.3246 149.799 34.3246C148.464 34.3246 147.321 34.0651 146.369 33.5459L146.369 33.5457ZM164.346 33.7684H160.597C160.489 33.7684 160.386 33.7257 160.31 33.6496C160.234 33.5736 160.191 33.4705 160.191 33.363V8.22243C160.191 8.11491 160.234 8.01179 160.31 7.93577C160.386 7.85974 160.489 7.81703 160.597 7.81703H164.346C164.453 7.81703 164.556 7.85974 164.632 7.93577C164.708 8.01179 164.751 8.11491 164.751 8.22243V33.363C164.751 33.4705 164.708 33.5736 164.632 33.6496C164.556 33.7257 164.453 33.7684 164.346 33.7684ZM173.189 20.6073C172.568 21.0922 172.148 21.7922 171.931 22.7078C171.871 22.9603 172.068 23.2024 172.328 23.2024H179.463C179.71 23.2024 179.905 22.9808 179.865 22.7365C179.722 21.8703 179.351 21.1797 178.751 20.663C178.046 20.0576 177.125 19.7549 175.988 19.7549C174.851 19.7549 173.918 20.0389 173.189 20.6073ZM182.328 18.4754C183.786 20.07 184.515 22.3254 184.515 25.2414V25.7257C184.515 25.8332 184.473 25.9363 184.397 26.0123C184.321 26.0884 184.218 26.1311 184.11 26.1311H172.19C172.131 26.1312 172.072 26.1443 172.018 26.1694C171.964 26.1945 171.917 26.2311 171.879 26.2765C171.84 26.322 171.812 26.3752 171.797 26.4325C171.781 26.4899 171.779 26.5499 171.789 26.6084C171.979 27.6916 172.458 28.5522 173.227 29.1897C174.104 29.9195 175.21 30.2835 176.545 30.2835C178.268 30.2835 179.862 29.6111 181.329 28.2659C181.508 28.1016 181.792 28.1365 181.931 28.3362L183.754 30.9524C183.811 31.0338 183.836 31.1333 183.825 31.2321C183.813 31.3309 183.766 31.422 183.692 31.4881C182.797 32.2712 181.802 32.9321 180.734 33.4532C179.547 34.0338 178.151 34.3246 176.545 34.3246C174.691 34.3246 173.072 33.9473 171.688 33.1938C170.303 32.4403 169.228 31.3776 168.463 30.0054C167.696 28.6338 167.313 27.0459 167.313 25.2414C167.313 23.4376 167.684 21.8435 168.425 20.4589C169.167 19.0751 170.205 18 171.54 17.2335C172.874 16.4678 174.431 16.0843 176.211 16.0843C178.83 16.0843 180.869 16.8816 182.328 18.4754ZM90.1606 10.6078C90.1606 12.137 88.9208 13.3768 87.3914 13.3768C85.8617 13.3768 84.6219 12.137 84.6219 10.6076C84.6219 9.07811 85.8619 7.83838 87.3914 7.83838C88.9208 7.83838 90.1606 9.07811 90.1606 10.6076" fill="#333333"/>
<path d="M22.0831 0.504598L4.25607 7.88108C3.26472 8.29135 3.27499 9.69973 4.27255 10.0951L22.1739 17.1941C23.7467 17.8179 25.4984 17.8179 27.0712 17.1941L44.9728 10.0949C45.9701 9.69973 45.9809 8.29163 44.989 7.88135L27.1626 0.504328C25.5362 -0.168659 23.7092 -0.168659 22.0828 0.504328" fill="#FCB400"/>
<path d="M26.2109 21.0703V38.8046C26.2109 39.6478 27.0615 40.2257 27.8455 39.9149L47.7931 32.1722C48.0156 32.084 48.2064 31.931 48.3409 31.733C48.4753 31.535 48.5472 31.3012 48.5472 31.0619V13.3278C48.5472 12.4843 47.6966 11.9068 46.9126 12.2176L26.965 19.9603C26.7426 20.0485 26.5518 20.2015 26.4173 20.3995C26.2829 20.5975 26.211 20.8312 26.2109 21.0705" fill="#18BFFF"/>
<path d="M21.5528 21.9854L15.6328 24.8438L15.0317 25.1343L2.53493 31.1222C1.74304 31.5043 0.731689 30.927 0.731689 30.047V13.4022C0.731689 13.0838 0.894933 12.8089 1.11385 12.6022C1.20366 12.5127 1.30555 12.4363 1.41655 12.3751C1.71493 12.1959 2.14088 12.1481 2.50304 12.2914L21.4533 19.8C22.4166 20.1822 22.4922 21.5319 21.5528 21.9857" fill="#F82B60"/>
<path d="M21.5528 21.9854L15.6328 24.8438L1.11389 12.6019C1.20372 12.5126 1.30561 12.4362 1.41659 12.3751C1.71497 12.1959 2.14092 12.1481 2.50308 12.2914L21.4533 19.8C22.4166 20.1822 22.4923 21.5319 21.5528 21.9857" fill="black" fill-opacity="0.25"/>
</g>
<defs>
<clipPath id="clip0_1266_1821">
<rect width="183.784" height="40" fill="white" transform="translate(0.731689)"/>
</clipPath>
</defs>
</svg>
