<svg width="203" height="40" viewBox="0 0 203 40" fill="none" xmlns="http://www.w3.org/2000/svg">
<g clip-path="url(#clip0_1266_1782)">
<path fill-rule="evenodd" clip-rule="evenodd" d="M197.547 30.3986C197.669 31.7913 198.783 33.5638 200.713 33.5638H201.842C202.28 33.5638 202.639 33.205 202.639 32.7671V7.93311H202.634C202.611 7.51475 202.265 7.17965 201.842 7.17965H198.343C197.92 7.17965 197.575 7.51475 197.552 7.93311H197.547V9.95103C195.403 7.30852 192.023 6.21172 188.634 6.21172C180.93 6.21172 174.684 12.4619 174.684 20.1724C174.684 27.8832 180.93 34.1335 188.634 34.1335V34.1343C192.023 34.1343 195.717 32.8184 197.546 30.3953L197.547 30.3986ZM188.648 29.2475C183.748 29.2475 179.775 25.1848 179.775 20.1724C179.775 15.1608 183.748 11.0979 188.648 11.0979C193.547 11.0979 197.519 15.1608 197.519 20.1724C197.519 25.1848 193.547 29.2475 188.648 29.2475Z" fill="#0D0E10"/>
<path fill-rule="evenodd" clip-rule="evenodd" d="M170.261 31.2527L170.259 18.4022H170.26C170.26 11.1584 165.693 6.27169 158.412 6.27169C154.936 6.27169 152.086 8.28325 151.08 10.0112C150.862 8.66007 150.146 7.23985 147.923 7.23985H146.79C146.352 7.23985 145.994 7.59888 145.994 8.03696V30.4608C145.994 30.4614 145.994 30.4632 145.994 30.4642V32.8729H145.998C146.021 33.2907 146.367 33.6263 146.79 33.6263H150.289C150.343 33.6263 150.395 33.6198 150.446 33.6099C150.469 33.6055 150.491 33.5964 150.513 33.5899C150.539 33.582 150.566 33.5758 150.591 33.5657C150.622 33.5527 150.651 33.5353 150.68 33.5192C150.694 33.5105 150.709 33.5044 150.722 33.4951C150.757 33.4727 150.789 33.4457 150.82 33.418C150.825 33.4127 150.831 33.4095 150.836 33.4048C150.871 33.3711 150.903 33.3339 150.931 33.2953C150.931 33.2947 150.931 33.2947 150.931 33.2947C151.019 33.1743 151.072 33.0295 151.081 32.8729H151.085V18.203C151.085 14.3126 154.237 11.1584 158.125 11.1584C162.012 11.1584 165.164 14.3126 165.164 18.203L165.167 30.465L165.168 30.4608C165.168 30.4717 165.17 30.4828 165.17 30.4945V32.8729H165.175C165.198 33.2907 165.543 33.6263 165.966 33.6263H169.465C169.519 33.6263 169.572 33.6198 169.622 33.6099C169.643 33.6061 169.662 33.5978 169.682 33.5921C169.711 33.5838 169.74 33.5766 169.768 33.5657C169.796 33.5537 169.822 33.5372 169.85 33.522C169.866 33.5127 169.883 33.5059 169.899 33.4951C169.932 33.4741 169.961 33.4485 169.99 33.423C169.998 33.4162 170.006 33.4111 170.013 33.404C170.046 33.3721 170.076 33.3376 170.103 33.3014C170.104 33.2986 170.107 33.2964 170.109 33.2937C170.195 33.1743 170.248 33.0305 170.257 32.8751C170.257 32.8741 170.257 32.8729 170.257 32.8729H170.262V31.2531L170.261 31.2527Z" fill="#0D0E10"/>
<path fill-rule="evenodd" clip-rule="evenodd" d="M133.821 30.3986C133.943 31.7913 135.057 33.5638 136.987 33.5638H138.116C138.554 33.5638 138.912 33.205 138.912 32.7671V7.93311H138.908C138.885 7.51475 138.539 7.17965 138.116 7.17965H134.617C134.194 7.17965 133.849 7.51475 133.825 7.93311H133.821V9.95103C131.677 7.30852 128.297 6.21172 124.908 6.21172C117.204 6.21172 110.958 12.4619 110.958 20.1724C110.958 27.8832 117.204 34.1335 124.908 34.1335V34.1343C128.297 34.1343 131.991 32.8184 133.821 30.3953L133.821 30.3986ZM124.921 29.2475C120.022 29.2475 116.049 25.1848 116.049 20.1724C116.049 15.1608 120.022 11.0979 124.921 11.0979C129.821 11.0979 133.793 15.1608 133.793 20.1724C133.793 25.1848 129.821 29.2475 124.921 29.2475Z" fill="#0D0E10"/>
<path fill-rule="evenodd" clip-rule="evenodd" d="M90.2665 26.8418C92.6022 28.4612 95.1519 29.2477 97.602 29.2477C99.9362 29.2477 102.349 28.0368 102.349 25.9289C102.349 23.1147 97.0911 22.677 93.7873 21.5531C90.4831 20.4295 87.6372 18.1066 87.6372 14.3448C87.6372 8.58869 92.762 6.21133 97.5453 6.21133C100.576 6.21133 103.703 7.2115 105.73 8.64422C106.428 9.17366 106.003 9.7815 106.003 9.7815L104.068 12.5476C103.851 12.8591 103.47 13.1283 102.924 12.7911C102.378 12.4541 100.463 11.0977 97.5453 11.0977C94.6269 11.0977 92.8689 12.4465 92.8689 14.1183C92.8689 16.123 95.1538 16.7536 97.8299 17.4368C102.494 18.6949 107.581 20.2071 107.581 25.9289C107.581 31.0006 102.841 34.1347 97.602 34.1347C93.6319 34.1347 90.2519 33.002 87.417 30.9202C86.8265 30.3287 87.239 29.7796 87.239 29.7796L89.1647 27.0275C89.5564 26.5129 90.0505 26.6923 90.2665 26.8418Z" fill="#0D0E10"/>
<path fill-rule="evenodd" clip-rule="evenodd" d="M76.8153 30.3986C76.9377 31.7913 78.0517 33.5638 79.9816 33.5638H81.1109C81.5484 33.5638 81.9072 33.205 81.9072 32.7671V7.93311H81.9024C81.8796 7.51475 81.5339 7.17965 81.1109 7.17965H77.6119C77.1888 7.17965 76.8432 7.51475 76.8196 7.93311H76.8153V9.95103C74.6717 7.30852 71.2917 6.21172 67.9024 6.21172C60.1983 6.21172 53.9529 12.4619 53.9529 20.1724C53.9529 27.8832 60.1983 34.1335 67.9024 34.1335V34.1343C71.2917 34.1343 74.9854 32.8184 76.8149 30.3953L76.8153 30.3986ZM67.9161 29.2475C63.0163 29.2475 59.044 25.1848 59.044 20.1724C59.044 15.1608 63.0163 11.0979 67.9161 11.0979C72.8157 11.0979 76.7874 15.1608 76.7874 20.1724C76.7874 25.1848 72.8157 29.2475 67.9161 29.2475Z" fill="#0D0E10"/>
<path fill-rule="evenodd" clip-rule="evenodd" d="M34.396 21.122C29.2113 21.122 25.0085 25.3251 25.0085 30.5099C25.0085 35.6945 29.2113 39.8976 34.396 39.8976C39.5806 39.8976 43.7834 35.6945 43.7834 30.5099C43.7834 25.3251 39.5806 21.122 34.396 21.122ZM10.0063 21.1228C4.82176 21.1228 0.618774 25.3251 0.618774 30.5099C0.618774 35.6945 4.82176 39.8976 10.0063 39.8976C15.1911 39.8976 19.3943 35.6945 19.3943 30.5099C19.3943 25.3251 15.1911 21.1228 10.0063 21.1228ZM31.5885 9.38733C31.5885 14.5723 27.3856 18.7757 22.2012 18.7757C17.0164 18.7757 12.8136 14.5723 12.8136 9.38733C12.8136 4.20339 17.0164 0 22.2012 0C27.3856 0 31.5885 4.20339 31.5885 9.38733Z" fill="#F06A6A"/>
</g>
<defs>
<clipPath id="clip0_1266_1782">
<rect width="202.02" height="40" fill="white" transform="translate(0.618774)"/>
</clipPath>
</defs>
</svg>
