<svg width="143" height="40" viewBox="0 0 143 40" fill="none" xmlns="http://www.w3.org/2000/svg">
<path d="M0.489014 8.83051L18.5986 0.33286C19.643 -0.15505 20.6176 -0.0851638 21.6633 0.402746L38.7284 8.41378C39.1465 8.62085 39.6344 8.76321 39.6344 9.24983C39.6344 9.87751 39.0779 9.9461 38.6599 10.1558L22.2909 17.8174C20.7586 18.5136 19.4437 18.5136 17.9036 17.8174L0.489014 9.73127V8.82533V8.83051ZM0.489014 30.4927L3.69343 28.8905C5.01739 28.1942 6.26887 28.334 7.59412 28.9603L18.112 33.9041C19.436 34.5318 20.6874 34.5318 22.0127 33.9041L32.6703 28.8892C33.9943 28.2615 35.2458 28.2615 36.571 28.8892C37.3372 29.3072 38.1732 29.6553 38.9394 30.0022C39.2888 30.2092 39.7754 30.3516 39.7056 30.8382C39.7056 31.2562 39.2875 31.4659 38.9394 31.6044L30.9982 35.3653L22.0127 39.5455C20.8285 40.102 19.6443 40.1732 18.4601 39.6154L1.60331 31.7441C1.25388 31.6044 0.975629 31.3261 0.628787 31.1165C0.489014 30.9767 0.489014 30.767 0.489014 30.4888V30.4927ZM0.489014 19.6965L2.92727 18.5123C4.80773 17.3993 6.551 17.6064 8.50005 18.5822L18.3915 23.2491C19.6469 23.8056 20.7599 23.8056 21.9441 23.2491L32.462 18.3053C33.9244 17.609 35.3092 17.5391 36.7846 18.3053L39.2228 19.4895C39.9191 19.9075 39.8505 20.3255 39.2228 20.7448C39.0158 20.8846 38.8048 20.9519 38.5951 21.0231L21.8095 28.8245C20.6965 29.381 19.5809 29.381 18.4627 28.8245L1.67708 21.0231C1.25906 20.816 0.91092 20.5352 0.492897 20.3268V19.6991L0.489014 19.6965ZM55.9218 7.9194V16.2449C56.1845 16.2838 56.2583 16.1323 56.3721 16.0197C59.2219 12.9823 64.5462 13.4314 67.0233 16.9192C69.4603 20.2944 69.3852 26.1468 66.8357 29.4081C64.2861 32.6695 59.3734 33.006 56.411 30.0811L55.9231 29.6307V31.132C55.9231 31.5203 55.7729 31.6937 55.3614 31.6937H51.8373C51.4232 31.6937 51.2381 31.5435 51.2381 31.132V8.78133L51.2769 7.9194H55.936H55.9218ZM55.9218 22.9967V25.435C55.8942 25.6674 55.9322 25.9029 56.0315 26.1149C56.1307 26.3269 56.2873 26.507 56.4834 26.6347C56.7837 26.8599 57.0451 27.0851 57.3829 27.2727C60.1952 28.8102 63.1938 27.5354 63.8707 24.498C64.0583 23.636 64.0959 22.7353 63.9095 21.8358C63.573 20.1482 62.7836 18.7984 61.0597 18.3105C59.2608 17.785 57.6094 18.2716 56.2608 19.5852C55.9981 19.8104 55.9243 20.1107 55.9243 20.4472V22.9967H55.9218ZM142.057 18.7194C141.195 18.7945 140.369 18.6068 139.507 18.8695L138.533 19.206C137.258 19.6939 136.62 20.4808 136.695 22.0183L136.734 30.7541C136.734 31.616 136.734 31.616 135.908 31.616H132.87C132.383 31.616 132.271 31.4284 132.271 30.943L132.31 16.2799C132.31 14.7424 132.271 14.7424 133.772 14.7424H136.097C136.622 14.7035 136.809 14.93 136.77 15.4542C136.731 15.9046 136.77 16.3161 136.77 16.8778C138.345 15.4153 139.92 14.2532 142.094 14.4033L142.055 18.7155L142.057 18.7194ZM122.969 24.7193H117.569C116.857 24.7193 116.744 24.8319 117.008 25.5062C117.869 27.6804 119.632 28.6187 122.033 28.3922C123.345 28.2796 124.621 27.8668 125.67 27.0048C125.895 26.8172 126.058 26.8172 126.231 27.0799L127.769 29.3292C127.994 29.6657 127.808 29.8546 127.581 30.041C126.569 30.8667 125.407 31.3533 124.131 31.6536C121.506 32.2916 118.919 32.2528 116.518 30.9418C113.218 29.1791 111.981 26.218 112.118 22.6162C112.268 18.6431 115.231 15.2652 119.094 14.5573C124.082 13.6578 128.356 16.7315 129.068 21.7944C129.181 22.545 129.181 23.2957 129.218 24.0437C129.218 24.5316 129.031 24.7167 128.545 24.7167C126.669 24.6779 124.831 24.7167 122.958 24.7167L122.969 24.7193ZM120.794 21.6068H124.095C124.845 21.6068 124.881 21.5679 124.694 20.8199C124.206 18.9821 122.668 17.9701 120.494 18.0451C119.623 18.0799 118.788 18.4051 118.122 18.9692C117.457 19.5332 116.999 20.3036 116.822 21.1577C116.747 21.5718 116.935 21.6456 117.273 21.6456L120.798 21.6068H120.794ZM82.5083 29.6307C81.6088 30.4564 80.7456 31.0932 79.7336 31.4685C78.035 32.1418 76.1586 32.2212 74.4093 31.6937C72.6103 31.1682 71.4093 29.5194 71.2967 27.5341L71.2217 19.3963V15.5732C71.2217 15.0116 71.3718 14.7475 71.9723 14.7864H74.8972C75.7591 14.7864 75.7591 14.7864 75.7591 15.6121V24.7232C75.7591 27.1226 76.6586 27.9845 79.0593 27.9069C80.3716 27.868 81.3474 27.2339 82.243 26.3694C82.5057 26.1067 82.4682 25.7702 82.4682 25.4699V15.682C82.4682 14.7825 82.4682 14.7825 83.3677 14.7825H86.3313C86.8193 14.7825 86.9694 14.9701 86.9694 15.4205V30.9456C86.9694 31.4335 86.7817 31.6186 86.2964 31.6186C85.2217 31.5812 84.146 31.5812 83.0713 31.6186C82.5834 31.6186 82.3983 31.431 82.4332 30.9806C82.5458 30.5923 82.5083 30.1937 82.5083 29.6307ZM108.008 25.2305V30.8926C108.008 31.4542 107.858 31.6432 107.296 31.6432C106.259 31.6057 105.221 31.6057 104.183 31.6432C103.622 31.6432 103.433 31.4555 103.433 30.8926V19.6435C103.433 18.744 103.433 18.744 102.533 18.744H101.259C100.922 18.744 100.733 18.6314 100.733 18.2561V15.3312C100.733 14.9171 100.921 14.8058 101.295 14.8058H102.87C103.284 14.8058 103.431 14.6557 103.431 14.2441C103.425 13.678 103.476 13.1127 103.582 12.5565C104.143 9.55655 106.807 7.7188 109.957 8.15624C111.083 8.30637 112.131 8.5445 113.069 9.28218C113.458 9.58244 113.595 9.84386 113.257 10.2942C112.869 10.7821 112.545 11.3425 112.245 11.8693C112.02 12.2575 111.795 12.3947 111.383 12.0945C111.145 11.9402 110.877 11.8379 110.596 11.7942C108.984 11.4059 107.521 12.9939 108.008 14.569C108.083 14.8692 108.344 14.8317 108.533 14.8317H110.782C111.171 14.8317 111.382 14.9443 111.382 15.3933V18.2432C111.382 18.6314 111.232 18.8048 110.82 18.7686H108.795C107.933 18.7686 107.933 18.7686 107.933 19.5943L108.008 25.2162V25.2305ZM92.2574 25.1179V19.4299C92.2574 18.942 92.1073 18.7181 91.6194 18.757C91.094 18.7958 90.5711 18.757 90.0444 18.757C89.6561 18.757 89.4827 18.6444 89.4827 18.2315V15.3066C89.4827 14.9184 89.6704 14.7812 90.0081 14.8187H91.6582C92.1461 14.8576 92.2963 14.6686 92.2963 14.1807C92.2574 13.0185 92.4089 11.8563 93.0081 10.8417C94.134 8.89263 96.3471 7.84175 98.7077 8.14459C99.7948 8.29472 100.846 8.48108 101.745 9.15665C102.383 9.64456 102.418 9.71833 102.008 10.3564L101.033 11.8939C100.846 12.2303 100.619 12.3442 100.246 12.0815C99.8738 11.8188 99.4208 11.6674 98.9342 11.6674C97.4717 11.6674 96.4234 13.091 96.9088 14.5172C97.0214 14.8174 97.2452 14.7799 97.4342 14.7799H99.6084C100.023 14.7799 100.208 14.93 100.17 15.3416V18.1539C100.17 18.568 100.02 18.7531 99.6084 18.7155H97.6206C97.0214 18.6767 96.8337 18.9032 96.8699 19.4662V30.5289C96.8699 31.5772 96.8699 31.5772 95.7828 31.5772C94.8834 31.5772 93.9451 31.5384 93.0456 31.5772C92.5202 31.5772 92.295 31.4271 92.295 30.8266L92.2561 25.127L92.2574 25.1179Z" fill="black"/>
</svg>
