<svg width="204" height="40" viewBox="0 0 204 40" fill="none" xmlns="http://www.w3.org/2000/svg">
<g clip-path="url(#clip0_1267_330)">
<path fill-rule="evenodd" clip-rule="evenodd" d="M33.7173 29.6815C31.6666 29.6815 29.7834 29.3314 28.0664 28.6324C26.3498 27.933 24.8616 26.957 23.6033 25.7052C22.3435 24.4533 21.3625 22.9707 20.6588 21.2583C19.9554 19.5459 19.6035 17.6594 19.6035 15.597C19.6035 13.4983 19.9967 11.5372 20.7841 9.71468C21.5712 7.89182 22.6602 6.30897 24.0518 4.96459C25.4426 3.62097 27.0725 2.5623 28.9395 1.78859C30.8068 1.01525 32.8196 0.628967 34.9805 0.628967C36.591 0.628967 38.1015 0.859063 39.5113 1.31887C40.92 1.77982 42.1472 2.41525 43.1903 3.22478C44.2338 4.03468 45.058 5.00154 45.6618 6.12421C46.2659 7.2484 46.5678 8.43544 46.5678 9.68687C46.5678 11.0869 46.1288 12.2553 45.2504 13.1943C44.3713 14.1337 43.2911 14.6027 42.0101 14.6027C40.6916 14.6027 39.5935 14.1429 38.7151 13.2221C37.836 12.3017 37.397 11.1421 37.397 9.74211C37.397 9.33792 37.4421 8.95087 37.5341 8.58249C37.625 8.21449 37.7625 7.6804 37.9455 6.9802C38.1288 6.35506 38.2481 5.88535 38.303 5.57221C38.3576 5.25982 38.3852 4.91887 38.3852 4.55011C38.3852 3.59316 38.0754 2.8103 37.458 2.20306C36.8395 1.59544 36.06 1.29144 35.121 1.29144C34.2896 1.29144 33.5214 1.56001 32.8181 2.09525C32.1135 2.63011 31.4992 3.35963 30.9757 4.28192C30.4515 5.20573 30.036 6.30287 29.7288 7.57716C29.422 8.85106 29.2686 10.2076 29.2686 11.6469C29.2686 15.0069 30.1106 17.6743 31.795 19.6492C33.4786 21.6244 35.7494 22.6114 38.6049 22.6114C40.2158 22.6114 41.6802 22.3078 42.9987 21.7006C44.316 21.093 45.5974 20.1452 46.8428 18.856L47.5015 19.1871C44.3891 26.184 39.7943 29.6815 33.7173 29.6815Z" fill="#3C3F40"/>
<path fill-rule="evenodd" clip-rule="evenodd" d="M68.471 8.94469C68.3047 7.13326 68.0733 5.67307 67.7767 4.56336C67.4801 3.52831 67.0176 2.7245 66.3877 2.15117C65.7575 1.57822 64.9973 1.29174 64.1087 1.29174C63.1814 1.29174 62.3947 1.57822 61.7463 2.15117C61.0978 2.7245 60.6437 3.52831 60.3842 4.56336C60.0873 5.7466 59.8657 7.23422 59.718 9.02736C59.5695 10.8209 59.4956 12.8632 59.4956 15.1554C59.4956 17.4476 59.5695 19.4994 59.718 21.3108C59.8657 23.1222 60.0873 24.6011 60.3842 25.7474C60.6437 26.7824 61.0978 27.5862 61.7463 28.1595C62.3947 28.7321 63.1814 29.019 64.1087 29.019C64.9973 29.019 65.7662 28.7321 66.4154 28.1595C67.0627 27.5862 67.5169 26.7824 67.7767 25.7474C68.4066 23.3443 68.7217 19.814 68.7217 15.1554C68.7217 12.827 68.6376 10.7561 68.471 8.94469ZM78.0868 20.8994C77.3009 22.667 76.2324 24.2049 74.8802 25.5116C73.5276 26.8186 71.9292 27.8411 70.0834 28.5771C68.2377 29.3131 66.2552 29.6815 64.1363 29.6815C61.9792 29.6815 59.9782 29.3131 58.1332 28.5771C56.2874 27.8411 54.6883 26.8186 53.3364 25.5116C51.9839 24.2049 50.9157 22.667 50.1298 20.8994C49.3434 19.1321 48.9514 17.2178 48.9514 15.1554C48.9514 13.0933 49.3434 11.1782 50.1298 9.41098C50.9157 7.64336 51.9839 6.10622 53.3364 4.79879C54.6883 3.49212 56.2874 2.47041 58.1332 1.73326C59.9782 0.997264 61.9792 0.628883 64.1363 0.628883C66.2552 0.628883 68.2377 0.997264 70.0834 1.73326C71.9292 2.47041 73.5276 3.49212 74.8802 4.79879C76.2324 6.10622 77.3009 7.64336 78.0868 9.41098C78.8728 11.1782 79.2656 13.0933 79.2656 15.1554C79.2656 17.2178 78.8728 19.1321 78.0868 20.8994Z" fill="#3C3F40"/>
<path fill-rule="evenodd" clip-rule="evenodd" d="M193.446 4.86022C193.446 7.54441 195.61 9.72041 198.278 9.72041C200.947 9.72041 203.111 7.54441 203.111 4.86022C203.111 2.17603 200.947 3.05176e-05 198.278 3.05176e-05C195.61 3.05176e-05 193.446 2.17603 193.446 4.86022Z" fill="#3C3F40"/>
<path fill-rule="evenodd" clip-rule="evenodd" d="M0.853516 7.82319C0.853516 10.5074 3.01705 12.6834 5.68587 12.6834C8.35469 12.6834 10.5182 10.5074 10.5182 7.82319C10.5182 5.139 8.35469 2.963 5.68587 2.963C3.01705 2.963 0.853516 5.139 0.853516 7.82319Z" fill="#FF3465"/>
<path fill-rule="evenodd" clip-rule="evenodd" d="M0.853516 22.638C0.853516 25.3222 3.01705 27.4982 5.68587 27.4982C8.35469 27.4982 10.5182 25.3222 10.5182 22.638C10.5182 19.9538 8.35469 17.7778 5.68587 17.7778C3.01705 17.7778 0.853516 19.9538 0.853516 22.638Z" fill="#FF3465"/>
<path fill-rule="evenodd" clip-rule="evenodd" d="M100.145 24.7656C99.1863 26.9389 97.8409 28.0247 96.1085 28.0247C95.1134 28.0247 94.2104 27.6201 93.3995 26.8094V5.04714C94.2104 4.53209 94.8369 4.18276 95.2797 3.998C95.7217 3.814 96.1634 3.72181 96.6065 3.72181C98.1542 3.72181 99.3701 4.78085 100.254 6.89742C101.14 9.01552 101.582 11.9336 101.582 15.6525C101.582 19.5561 101.103 22.5934 100.145 24.7656ZM111.108 8.44447C110.612 6.84295 109.915 5.46161 109.015 4.30161C108.115 3.142 107.041 2.2399 105.792 1.59533C104.543 0.951139 103.167 0.628853 101.662 0.628853C100.266 0.628853 98.9163 0.904662 97.6126 1.45704C96.3096 2.00981 94.9047 2.93057 93.3995 4.21895V1.88295V0.628853L79.8459 4.68828V4.94238V5.50923C80.4304 5.59571 80.9156 5.72066 81.2906 5.88904C81.8209 6.12676 82.2871 6.50352 82.6905 7.01742C82.9106 7.31152 83.0841 7.6239 83.2125 7.95419C83.3401 8.28485 83.4409 8.67076 83.5143 9.11076C83.5874 9.55152 83.6424 10.0742 83.6791 10.6807C83.7151 11.2864 83.734 11.9934 83.734 12.8007V30.2597V32.5172C83.734 33.1416 83.7249 33.6559 83.7068 34.0597C83.6878 34.4635 83.6605 34.8121 83.6246 35.1066C83.5874 35.3991 83.5325 35.6936 83.4594 35.9881C83.35 36.6852 83.1113 37.2361 82.7454 37.6399C82.3424 38.1542 81.8671 38.5119 81.3178 38.7142C81.0641 38.8075 80.7323 38.8902 80.33 38.9641V39.8449H96.7978V39.0548C96.3058 38.9919 95.899 38.9172 95.5964 38.8269C95.0468 38.662 94.6078 38.3809 94.2786 37.9805C94.0949 37.7622 93.9487 37.526 93.8392 37.2711C93.729 37.0155 93.6377 36.6883 93.5646 36.2883C93.4904 35.8875 93.4453 35.4052 93.4271 34.8418C93.4082 34.2761 93.3995 33.5763 93.3995 32.7393V27.6929C94.3536 28.4304 95.2267 28.9454 96.0157 29.2399C96.8054 29.534 97.7319 29.6814 98.7977 29.6814C100.633 29.6814 102.341 29.2761 103.92 28.4666C105.499 27.6567 106.876 26.5332 108.051 25.097C109.226 23.6612 110.153 21.9763 110.832 20.0433C111.512 18.11 111.852 16.0209 111.852 13.7748C111.852 11.8228 111.604 10.046 111.108 8.44447Z" fill="#3C3F40"/>
<path fill-rule="evenodd" clip-rule="evenodd" d="M134.21 24.7656C133.251 26.9389 131.906 28.0247 130.173 28.0247C129.178 28.0247 128.275 27.6201 127.464 26.8094V5.04714C128.275 4.53209 128.902 4.18276 129.345 3.998C129.787 3.814 130.228 3.72181 130.671 3.72181C132.219 3.72181 133.435 4.78085 134.319 6.89742C135.205 9.01552 135.647 11.9336 135.647 15.6525C135.647 19.5561 135.167 22.5934 134.21 24.7656ZM145.173 8.44447C144.677 6.84295 143.98 5.46161 143.08 4.30161C142.18 3.142 141.105 2.2399 139.857 1.59533C138.608 0.951139 137.232 0.628853 135.727 0.628853C134.331 0.628853 132.981 0.904662 131.677 1.45704C130.375 2.00981 128.97 2.93057 127.464 4.21895V1.88295V0.628853L113.911 4.68828V4.94238V5.50923C114.495 5.59571 114.981 5.72066 115.356 5.88904C115.886 6.12676 116.352 6.50352 116.755 7.01742C116.976 7.31152 117.149 7.6239 117.277 7.95419C117.405 8.28485 117.506 8.67076 117.579 9.11076C117.652 9.55152 117.707 10.0742 117.744 10.6807C117.78 11.2864 117.799 11.9934 117.799 12.8007V30.2597V32.5172C117.799 33.1416 117.79 33.6559 117.772 34.0597C117.753 34.4635 117.725 34.8121 117.69 35.1066C117.652 35.3991 117.597 35.6936 117.524 35.9881C117.415 36.6852 117.176 37.2361 116.81 37.6399C116.407 38.1542 115.932 38.5119 115.383 38.7142C115.129 38.8075 114.797 38.8902 114.395 38.9641V39.8449H130.863V39.0548C130.371 38.9919 129.964 38.9172 129.661 38.8269C129.112 38.662 128.673 38.3809 128.344 37.9805C128.16 37.7622 128.014 37.526 127.904 37.2711C127.794 37.0155 127.703 36.6883 127.63 36.2883C127.555 35.8875 127.51 35.4052 127.492 34.8418C127.473 34.2761 127.464 33.5763 127.464 32.7393V27.6929C128.419 28.4304 129.292 28.9454 130.081 29.2399C130.87 29.534 131.797 29.6814 132.863 29.6814C134.698 29.6814 136.406 29.2761 137.985 28.4666C139.563 27.6567 140.941 26.5332 142.116 25.097C143.291 23.6612 144.218 21.9763 144.897 20.0433C145.577 18.11 145.917 16.0209 145.917 13.7748C145.917 11.8228 145.669 10.046 145.173 8.44447Z" fill="#3C3F40"/>
<path fill-rule="evenodd" clip-rule="evenodd" d="M193.458 27.9446C192.945 27.7796 192.543 27.4958 192.25 27.0928C192.066 26.8737 191.929 26.6364 191.838 26.3796C191.746 26.1232 191.664 25.8032 191.591 25.4185C191.518 25.0341 191.472 24.5492 191.454 23.9644C191.435 23.3789 191.426 22.6642 191.426 21.8223V18.2692V14.9602V0.54496L177.716 4.65239V5.4802C178.373 5.56591 178.909 5.69963 179.317 5.88286C179.847 6.12096 180.314 6.49734 180.717 7.0101C180.937 7.30306 181.11 7.61544 181.239 7.94534C181.367 8.27601 181.467 8.66077 181.542 9.10077C181.614 9.54115 181.669 10.0638 181.706 10.6692C181.742 11.2741 181.76 11.98 181.76 12.7869V21.8093C181.76 23.5335 181.706 24.753 181.596 25.4676C181.486 26.1831 181.285 26.724 180.992 27.0905C180.662 27.4947 180.241 27.7785 179.729 27.9434C179.359 28.0627 178.842 28.1572 178.188 28.228V28.9636H194.812V28.2048C194.249 28.1366 193.79 28.0512 193.458 27.9446Z" fill="#3C3F40"/>
<path fill-rule="evenodd" clip-rule="evenodd" d="M162.803 1.29163C163.902 1.29163 164.744 1.74801 165.33 2.65963C165.915 3.57048 166.281 5.03182 166.428 7.04134C166.464 7.41391 166.492 7.74877 166.51 8.04591C166.529 8.34344 166.546 8.66839 166.565 9.02267C166.583 9.37658 166.593 9.7762 166.593 10.2223V11.2741H158.144C158.186 8.13315 158.574 5.70153 159.316 3.99867C160.103 2.19448 161.266 1.29163 162.803 1.29163ZM176.038 17.972C175.49 18.82 175.031 19.4547 174.666 19.8775C174.3 20.3015 173.805 20.7156 173.183 21.1202C171.571 22.2623 169.613 22.8326 167.307 22.8326C161.23 22.8326 158.172 19.3907 158.135 12.5072H175.393V12.5042H176.313C176.093 10.7004 175.608 9.06153 174.858 7.58801C174.107 6.11601 173.146 4.86344 171.975 3.8322C170.802 2.80172 169.449 2.00972 167.911 1.45734C166.373 0.904579 164.689 0.62915 162.858 0.62915C160.772 0.62915 158.822 1.01544 157.009 1.78877C155.197 2.5621 153.613 3.62115 152.26 4.96439C150.905 6.30877 149.843 7.88325 149.074 9.68706C148.305 11.4916 147.92 13.425 147.92 15.4867C147.92 17.5122 148.286 19.3899 149.019 21.1202C149.751 22.8516 150.768 24.3518 152.067 25.6219C153.366 26.8924 154.904 27.8867 156.68 28.6044C158.456 29.3225 160.369 29.6817 162.419 29.6817C164.579 29.6817 166.556 29.2676 168.35 28.4391C170.144 27.6101 171.681 26.4231 172.963 24.8764C173.366 24.361 173.723 23.8821 174.034 23.4402C174.345 22.9987 174.629 22.5381 174.885 22.0596C175.142 21.5812 175.398 21.0375 175.654 20.4303C175.91 19.8223 176.204 19.0768 176.533 18.193L176.038 17.972Z" fill="#3C3F40"/>
</g>
<defs>
<clipPath id="clip0_1267_330">
<rect width="202.963" height="40" fill="white" transform="translate(0.344238)"/>
</clipPath>
</defs>
</svg>
