<svg width="313" height="40" viewBox="0 0 313 40" fill="none" xmlns="http://www.w3.org/2000/svg">
<g clip-path="url(#clip0_1266_1750)">
<path d="M163.047 3.04688H166.719L159.375 30.3906H155.781L149.922 12.3438H149.766L143.828 30.3906H140.234L132.656 3.04688H136.328L142.109 24.5312H142.266L148.203 6.71875H151.484L157.422 24.5312H157.578L163.047 3.04688Z" fill="#5F6368"/>
<path d="M166.328 21.0156C166.328 18.151 167.24 15.7812 169.063 13.9062C170.885 12.0312 173.203 11.0938 176.016 11.0938C178.828 11.0938 181.12 12.0312 182.891 13.9062C184.714 15.7812 185.625 18.151 185.625 21.0156C185.625 23.9323 184.714 26.3281 182.891 28.2031C181.068 30.0781 178.776 31.0156 176.016 31.0156C173.255 31.0156 170.938 30.0781 169.063 28.2031C167.24 26.3281 166.328 23.9323 166.328 21.0156ZM169.844 21.0156C169.844 23.0469 170.443 24.6875 171.641 25.9375C172.839 27.1875 174.297 27.8125 176.016 27.8125C177.734 27.8125 179.193 27.1875 180.391 25.9375C181.589 24.6875 182.161 23.0469 182.109 21.0156C182.109 19.0365 181.536 17.4219 180.391 16.1719C179.193 14.9219 177.734 14.2969 176.016 14.2969C174.297 14.2969 172.839 14.9219 171.641 16.1719C170.443 17.4219 169.844 19.0365 169.844 21.0156ZM191.641 30.3906H188.125V11.6406H191.484V14.7656H191.641C192.005 13.724 192.76 12.8646 193.906 12.1875C195.052 11.5104 196.146 11.1458 197.188 11.0938C198.177 11.0938 199.036 11.25 199.766 11.5625L198.672 15C198.255 14.8438 197.578 14.7656 196.641 14.7656C195.286 14.7656 194.115 15.2865 193.125 16.3281C192.135 17.3698 191.641 18.6198 191.641 20.0781V30.3906ZM217.891 30.3906H213.594L207.813 21.5625L204.922 24.4531V30.3906H201.406V3.04688H204.922V19.9219L213.047 11.6406H217.5V11.7969L210.234 19.0625L217.891 30.2344V30.3906Z" fill="#5F6368"/>
<path d="M233.125 25.2344C233.125 26.849 232.422 28.2292 231.016 29.375C229.609 30.5208 227.786 31.0677 225.547 31.0156C223.672 31.0156 222.031 30.5208 220.625 29.5312C219.24 28.5986 218.176 27.2619 217.578 25.7031L220.703 24.375C221.172 25.4688 221.823 26.3281 222.656 26.9531C223.494 27.5676 224.508 27.8963 225.547 27.8906C226.693 27.8906 227.63 27.6562 228.359 27.1875C229.089 26.7188 229.479 26.1458 229.531 25.4688C229.531 24.2708 228.62 23.3854 226.797 22.8125L223.516 22.0312C219.87 21.0938 218.047 19.3229 218.047 16.7188C218.047 15 218.75 13.6198 220.156 12.5781C221.562 11.5365 223.333 11.0156 225.469 11.0156C227.135 11.0156 228.646 11.4323 230 12.2656C231.354 13.099 232.292 14.1406 232.812 15.3906L229.688 16.7188C229.335 15.9228 228.731 15.2642 227.969 14.8438C227.127 14.4012 226.185 14.1858 225.234 14.2188C224.358 14.1807 223.49 14.3979 222.734 14.8438C222.005 15.3125 221.641 15.8854 221.641 16.5625C221.641 17.6562 222.656 18.4115 224.688 18.8281L227.5 19.6094C231.25 20.4948 233.125 22.3698 233.125 25.2344ZM245.312 31.0156C243.958 31.0156 242.708 30.7292 241.562 30.1562C240.417 29.5833 239.557 28.8021 238.984 27.8125H238.828L238.984 30.3906V38.6719H235.469V11.6406H238.828V14.2969H238.984C239.557 13.3073 240.417 12.526 241.562 11.9531C242.708 11.3802 243.984 11.0938 245.391 11.0938C247.839 11.0938 249.922 12.0573 251.641 13.9844C253.411 15.9115 254.297 18.2552 254.297 21.0156C254.297 23.8281 253.411 26.1979 251.641 28.125C249.922 30.0521 247.839 31.0156 245.391 31.0156H245.312ZM244.766 27.8125C246.484 27.8125 247.917 27.1875 249.062 25.9375C250.208 24.6875 250.781 23.0469 250.781 21.0156C250.781 19.0885 250.208 17.474 249.062 16.1719C247.917 14.8698 246.484 14.2448 244.766 14.2969C243.047 14.2969 241.615 14.9219 240.469 16.1719C239.375 17.474 238.828 19.0885 238.828 21.0156C238.828 23.0469 239.375 24.6875 240.469 25.9375C241.615 27.1875 243.047 27.8125 244.766 27.8125ZM263.906 11.0938C266.51 11.0938 268.568 11.7708 270.078 13.125C271.589 14.4792 272.344 16.3802 272.344 18.8281V30.3906H268.984V27.8125H268.828C267.37 29.9479 265.417 31.0156 262.969 31.0156C260.938 31.0156 259.219 30.4167 257.812 29.2188C256.406 28.0208 255.703 26.4844 255.703 24.6094C255.703 22.6823 256.432 21.1458 257.891 20C259.349 18.8542 261.328 18.2812 263.828 18.2812C265.911 18.2812 267.63 18.6458 268.984 19.375V18.5938C268.984 17.3438 268.49 16.3021 267.5 15.4688C266.573 14.6512 265.376 14.2059 264.141 14.2188C262.161 14.2188 260.599 15.0521 259.453 16.7188L256.328 14.7656C258.047 12.3177 260.573 11.0938 263.906 11.0938ZM259.375 24.6875C259.375 25.625 259.766 26.3802 260.547 26.9531C261.328 27.526 262.24 27.8385 263.281 27.8906C264.74 27.8906 266.042 27.3438 267.188 26.25C268.333 25.1562 268.932 23.8802 268.984 22.4219C267.891 21.5365 266.354 21.0938 264.375 21.0938C262.969 21.0938 261.771 21.4323 260.781 22.1094C259.792 22.7865 259.323 23.6458 259.375 24.6875ZM284.297 31.0156C281.484 31.0156 279.167 30.0781 277.344 28.2031C275.521 26.276 274.609 23.8802 274.609 21.0156C274.609 18.151 275.521 15.7812 277.344 13.9062C279.167 12.0312 281.484 11.0938 284.297 11.0938C286.224 11.0938 287.891 11.5625 289.297 12.5C290.703 13.4375 291.771 14.7656 292.5 16.4844L289.297 17.8125C288.307 15.4688 286.562 14.2969 284.062 14.2969C282.448 14.2969 281.042 14.9479 279.844 16.25C278.698 17.5521 278.125 19.1406 278.125 21.0156C278.125 22.8906 278.698 24.5052 279.844 25.8594C281.042 27.1615 282.448 27.8125 284.062 27.8125C286.615 27.8125 288.411 26.6406 289.453 24.2969L292.656 25.625C291.927 27.3438 290.833 28.6719 289.375 29.6094C287.917 30.5469 286.224 31.0156 284.297 31.0156ZM303.203 31.0156C300.443 31.0156 298.177 30.0781 296.406 28.2031C294.635 26.3281 293.75 23.9323 293.75 21.0156C293.75 18.2031 294.609 15.8333 296.328 13.9062C298.047 11.9792 300.26 11.0417 302.969 11.0938C305.781 11.0938 307.995 11.9792 309.609 13.75C311.224 15.5208 312.057 18.0469 312.109 21.3281V21.7188H297.344C297.396 23.5417 297.995 25.026 299.141 26.1719C300.286 27.3177 301.693 27.8646 303.359 27.8125C305.599 27.8125 307.37 26.6927 308.672 24.4531L311.797 26.0156C310.986 27.54 309.769 28.8107 308.281 29.6875C306.823 30.5729 305.13 31.0156 303.203 31.0156ZM297.578 18.75H308.359C308.255 17.4479 307.734 16.3802 306.797 15.5469C305.859 14.7135 304.557 14.2969 302.891 14.2969C301.589 14.2969 300.469 14.6875 299.531 15.4688C298.594 16.25 297.943 17.3438 297.578 18.75Z" fill="#5F6368"/>
<path d="M15.7812 18.4375V14.1406H30C30.163 15.0165 30.2415 15.906 30.2344 16.7969C30.2344 19.9219 29.375 23.9062 26.5625 26.6406C23.8281 29.5312 20.3906 31.0156 15.7031 31.0156C7.1875 31.0156 0 24.0625 0 15.5469C0 7.03125 7.1875 0 15.7031 0C20.4688 0 23.8281 1.875 26.4062 4.29688L23.3594 7.26562C21.7723 5.75097 19.7717 4.74088 17.6106 4.36307C15.4496 3.98526 13.225 4.25669 11.2181 5.14305C9.21129 6.02941 7.5123 7.49089 6.33597 9.34272C5.15964 11.1946 4.55879 13.3536 4.60938 15.5469C4.60938 21.7969 9.53125 26.7969 15.7031 26.7969C19.7656 26.7969 22.1094 25.1562 23.5938 23.6719C24.7656 22.5 25.5469 20.7812 25.8594 18.4375H15.7812Z" fill="#4285F4"/>
<path d="M51.875 21.0156C51.875 26.7969 47.3438 31.0156 41.7969 31.0156C36.25 31.0156 31.7969 26.7969 31.7969 21.0156C31.7969 15.2344 36.3281 11.0156 41.7969 11.0156C47.2656 11.0156 51.875 15.2344 51.875 21.0156ZM47.4219 21.0156C47.4219 17.4219 44.8438 15 41.7969 15C38.75 15 36.1719 17.4219 36.1719 21.0156C36.1719 24.6094 38.8281 27.1094 41.7969 27.1094C44.7656 27.1094 47.4219 24.6094 47.4219 21.0156Z" fill="#EA4335"/>
<path d="M73.75 21.0156C73.75 26.7969 69.2188 31.0156 63.6719 31.0156C58.125 31.0156 53.6719 26.7969 53.6719 21.0156C53.6719 15.2344 58.2031 11.0156 63.6719 11.0156C69.1406 11.0156 73.75 15.2344 73.75 21.0156ZM69.2969 21.0156C69.2969 17.4219 66.7188 15 63.6719 15C60.625 15 58.0469 17.4219 58.0469 21.0156C58.0469 24.6094 60.7031 27.1094 63.6719 27.1094C66.6406 27.1094 69.2969 24.6094 69.2969 21.0156Z" fill="#FBBC04"/>
<path d="M94.6875 11.6406V29.6094C94.6875 36.9531 90.3125 40 85.1563 40C80.3125 40 77.4219 36.7188 76.3281 34.0625L80.1563 32.5C80.8594 34.1406 82.5 36.0938 85.1563 36.0938C88.5156 36.0938 90.5469 33.9844 90.5469 30.2344V28.75H90.3906C89.7258 29.4946 88.9052 30.0836 87.987 30.4751C87.0688 30.8667 86.0757 31.0512 85.0781 31.0156C80.1563 31.0156 75.5469 26.6406 75.5469 21.0938C75.5469 15.4688 80.1563 11.0156 85.0781 11.0156C87.5 11.0156 89.375 12.1094 90.3906 13.2812H90.5469V11.6406H94.6875ZM90.8594 21.0938C90.8594 17.5781 88.5156 15 85.4688 15C82.5 15 79.9219 17.5781 79.9219 21.0938C79.9219 24.5312 82.5 27.1094 85.4688 27.1094C88.5156 27.1094 90.8594 24.5312 90.8594 21.0938Z" fill="#4285F4"/>
<path d="M97.7344 1.17188H102.109V30.4688H97.7344V1.17188Z" fill="#34A853"/>
<path d="M119.062 24.2969L122.5 26.6406C121.406 28.2031 118.75 31.0156 114.141 31.0156C108.437 31.0156 104.219 26.6406 104.219 21.0156C104.219 15.0781 108.516 11.0156 113.672 11.0156C118.828 11.0156 121.406 15.1562 122.187 17.4219L122.656 18.5156L109.297 24.0625C110.312 26.0938 111.875 27.1094 114.141 27.1094C116.406 27.1094 117.891 26.0156 119.062 24.2969ZM108.594 20.7031L117.5 17.0312C117.031 15.7812 115.547 14.9219 113.828 14.9219C111.562 14.9219 108.437 16.875 108.594 20.7031Z" fill="#EA4335"/>
</g>
<defs>
<clipPath id="clip0_1266_1750">
<rect width="312.109" height="40" fill="white"/>
</clipPath>
</defs>
</svg>
