<svg width="143" height="40" viewBox="0 0 143 40" fill="none" xmlns="http://www.w3.org/2000/svg">
<g clip-path="url(#clip0_1266_1808)">
<path d="M16.0153 6.38388V17.7462H5.58016V6.38388H0.625977V33.5069H5.58016V22.5135H16.0153V33.5069H20.9694V6.38388H16.0153Z" fill="#33475B"/>
<path d="M36.8248 24.7394C36.8248 25.8264 36.3929 26.8689 35.6243 27.6375C34.8557 28.4061 33.8132 28.8379 32.7262 28.8379C31.6392 28.8379 30.5967 28.4061 29.8281 27.6375C29.0595 26.8689 28.6277 25.8264 28.6277 24.7394V13.1222H23.9283V24.7394C23.9283 27.0705 24.8544 29.3061 26.5027 30.9544C28.151 32.6027 30.3866 33.5287 32.7177 33.5287C35.0488 33.5287 37.2844 32.6027 38.9327 30.9544C40.5811 29.3061 41.5071 27.0705 41.5071 24.7394V13.1222H36.8248V24.7394Z" fill="#33475B"/>
<path d="M71.6424 14.3188C71.6424 11.9376 73.2178 11.1827 74.9436 11.1827C76.3344 11.1827 78.1719 12.241 79.3735 13.5251L82.4513 9.89866C80.9148 7.82086 77.7981 6.38388 75.247 6.38388C70.1496 6.38388 66.4625 9.3695 66.4625 14.3188C66.4625 23.5014 77.6865 20.5886 77.6865 25.7273C77.6865 27.3123 76.1475 28.7129 74.3853 28.7129C71.606 28.7129 70.7055 27.3536 69.4287 25.9166L66.0134 29.4678C68.198 32.15 70.8924 33.5117 74.1207 33.5117C78.9632 33.5117 82.8591 30.4897 82.8591 25.7661C82.8591 15.5713 71.6351 18.739 71.6351 14.3188" fill="#33475B"/>
<path d="M141.079 29.1741C138.302 29.1741 137.513 27.9726 137.513 26.1327V17.989H141.829V13.8625H137.513V8.41798L132.748 10.5565V27.1449C132.748 31.3878 135.675 33.5263 139.69 33.5263C140.32 33.5378 140.949 33.4874 141.569 33.3758L142.732 29.0964C142.207 29.1328 141.605 29.1693 141.079 29.1693" fill="#33475B"/>
<path d="M54.7118 13.2581C52.384 13.2581 50.7601 13.9329 49.1896 15.4742V6.54652H44.483V23.0936C44.483 29.2882 48.9615 33.5312 53.9933 33.5312C59.5762 33.5312 64.4867 29.2129 64.4867 23.3971C64.4867 17.654 59.967 13.2605 54.7118 13.2605V13.2581ZM54.6827 28.7954C53.6265 28.7954 52.594 28.4822 51.7159 27.8955C50.8377 27.3087 50.1532 26.4747 49.749 25.4989C49.3449 24.5231 49.2391 23.4494 49.4452 22.4135C49.6512 21.3776 50.1598 20.4261 50.9066 19.6793C51.6535 18.9324 52.605 18.4238 53.6409 18.2178C54.6768 18.0117 55.7505 18.1175 56.7263 18.5217C57.702 18.9259 58.5361 19.6103 59.1228 20.4885C59.7096 21.3667 60.0228 22.3991 60.0228 23.4553C60.0228 24.8716 59.4602 26.2299 58.4587 27.2313C57.4573 28.2328 56.099 28.7954 54.6827 28.7954Z" fill="#33475B"/>
<path d="M105.817 23.1495C105.817 17.3239 100.916 13.0154 95.3235 13.0154C90.2917 13.0154 85.8132 17.2583 85.8132 23.4529V40.0097H90.5198V31.0698C92.0879 32.6088 93.7142 33.286 96.0396 33.286C101.295 33.286 105.814 28.895 105.814 23.1495H105.817ZM101.36 23.0912C101.36 24.1474 101.047 25.1798 100.46 26.058C99.8735 26.9362 99.0395 27.6207 98.0637 28.0248C97.088 28.429 96.0142 28.5348 94.9783 28.3287C93.9425 28.1227 92.991 27.6141 92.2441 26.8672C91.4973 26.1204 90.9887 25.1689 90.7826 24.133C90.5766 23.0971 90.6823 22.0234 91.0865 21.0476C91.4907 20.0718 92.1752 19.2378 93.0533 18.651C93.9315 18.0643 94.964 17.7511 96.0202 17.7511C97.4364 17.7511 98.7947 18.3137 99.7962 19.3152C100.798 20.3166 101.36 21.6749 101.36 23.0912Z" fill="#33475B"/>
<path d="M120.975 12.9401V8.26021C121.594 7.97135 122.118 7.51271 122.485 6.93771C122.853 6.36272 123.05 5.69503 123.053 5.01244V4.90321C123.051 3.94929 122.671 3.03517 121.996 2.36064C121.322 1.68612 120.407 1.30604 119.454 1.30348H119.344C118.39 1.30604 117.476 1.68612 116.802 2.36064C116.127 3.03517 115.747 3.94929 115.745 4.90321V5.01244C115.748 5.69503 115.945 6.36272 116.312 6.93771C116.68 7.51271 117.204 7.97135 117.822 8.26021V12.9401C116.044 13.212 114.37 13.9489 112.968 15.0762L100.117 5.07798C100.209 4.74816 100.258 4.408 100.263 4.06578C100.264 3.2626 100.027 2.47718 99.5814 1.80883C99.136 1.14049 98.5024 0.61923 97.7607 0.310981C97.019 0.00273298 96.2026 -0.0786627 95.4147 0.0770873C94.6267 0.232837 93.9027 0.618737 93.3341 1.18599C92.7655 1.75324 92.3779 2.47636 92.2202 3.26392C92.0626 4.05147 92.142 4.86808 92.4485 5.61049C92.755 6.35289 93.2747 6.98774 93.942 7.43476C94.6093 7.88178 95.3941 8.12089 96.1973 8.12185C96.9028 8.11922 97.5951 7.93086 98.2047 7.5757L110.839 17.4112C109.701 19.1281 109.107 21.1482 109.135 23.2078C109.164 25.2674 109.812 27.2705 110.997 28.9556L107.152 32.8005C106.843 32.7023 106.522 32.6499 106.198 32.6452C105.538 32.6452 104.893 32.8409 104.344 33.2077C103.795 33.5744 103.367 34.0957 103.114 34.7055C102.862 35.3154 102.796 35.9865 102.924 36.6339C103.053 37.2813 103.371 37.876 103.838 38.3428C104.305 38.8096 104.899 39.1274 105.547 39.2562C106.194 39.385 106.865 39.3189 107.475 39.0663C108.085 38.8137 108.606 38.3859 108.973 37.837C109.34 37.2882 109.535 36.6429 109.535 35.9828C109.531 35.6589 109.479 35.3374 109.38 35.0288L113.184 31.2252C114.425 32.1736 115.867 32.8257 117.399 33.1319C118.931 33.438 120.513 33.3901 122.024 32.9917C123.535 32.5933 124.934 31.855 126.116 30.8331C127.298 29.8113 128.231 28.5329 128.844 27.0955C129.456 25.6582 129.732 24.0999 129.65 22.5397C129.569 20.9794 129.132 19.4584 128.373 18.0928C127.614 16.7272 126.553 15.5531 125.271 14.6601C123.989 13.7671 122.52 13.1788 120.975 12.9401ZM119.4 28.3342C118.359 28.3342 117.342 28.0256 116.476 27.4474C115.611 26.8691 114.937 26.0472 114.538 25.0856C114.14 24.124 114.036 23.0659 114.239 22.0451C114.442 21.0243 114.943 20.0866 115.679 19.3507C116.415 18.6147 117.353 18.1135 118.374 17.9104C119.394 17.7074 120.452 17.8116 121.414 18.2099C122.376 18.6082 123.197 19.2827 123.776 20.1481C124.354 21.0135 124.663 22.031 124.663 23.0718C124.663 24.4675 124.108 25.806 123.121 26.7929C122.134 27.7798 120.796 28.3342 119.4 28.3342Z" fill="#FF7A59"/>
</g>
<defs>
<clipPath id="clip0_1266_1808">
<rect width="142.106" height="40" fill="white" transform="translate(0.625977)"/>
</clipPath>
</defs>
</svg>
