<svg width="309" height="40" viewBox="0 0 309 40" fill="none" xmlns="http://www.w3.org/2000/svg">
<g clip-path="url(#clip0_1266_1764)">
<path d="M58.1436 4.75185H62.3252V25.9768C62.3252 31.5998 59.8648 35.4805 54.0993 35.4805C52.3943 35.5063 50.6975 35.2384 49.0834 34.6885V30.623C50.4603 31.1568 51.9257 31.4255 53.4023 31.415C56.9345 31.415 58.1542 29.3031 58.1542 26.2566L58.1436 4.75185Z" fill="#253858"/>
<path d="M69.944 3.12038C70.317 3.09369 70.6913 3.1475 71.0416 3.27816C71.3919 3.40882 71.7101 3.61327 71.9745 3.87766C72.2389 4.14205 72.4433 4.46019 72.574 4.81052C72.7046 5.16085 72.7584 5.53518 72.7318 5.90813C72.7318 6.64748 72.438 7.35656 71.9152 7.87936C71.3924 8.40217 70.6834 8.69588 69.944 8.69588C69.2046 8.69588 68.4956 8.40217 67.9728 7.87936C67.45 7.35656 67.1562 6.64748 67.1562 5.90813C67.1296 5.53518 67.1834 5.16085 67.314 4.81052C67.4447 4.46019 67.6491 4.14205 67.9135 3.87766C68.1779 3.61327 68.4961 3.40882 68.8464 3.27816C69.1967 3.1475 69.5711 3.09369 69.944 3.12038ZM67.9007 12.0433H71.8975V35.2745H67.9007V12.0433Z" fill="#253858"/>
<path d="M77.9324 12.038H81.8342V16.1246C83.1805 13.3844 85.53 11.4308 90.0601 11.7107V15.6125C84.9493 15.0845 81.8342 16.6367 81.8342 21.5575V35.2851H77.9324V12.038Z" fill="#253858"/>
<path d="M108.782 31.0876C107.293 34.1552 104.506 35.7339 100.931 35.7339C94.7539 35.7339 91.6388 30.4857 91.6388 23.6536C91.6388 17.1014 94.8912 11.5734 101.396 11.5734C104.786 11.5734 107.389 13.1045 108.788 16.1246V12.038H112.785V35.2693H108.788L108.782 31.0876ZM101.998 32.0169C105.578 32.0169 108.782 29.7413 108.782 24.5829V22.7033C108.782 17.5449 105.857 15.2693 102.447 15.2693C97.9376 15.2693 95.6145 18.2418 95.6145 23.6325C95.6356 29.2291 97.8637 32.0169 102.003 32.0169H101.998Z" fill="#253858"/>
<path d="M136.428 35.7339C130.525 35.7339 127.785 34.5723 125.414 33.3633V29.0919C128.249 30.5808 132.616 31.6473 136.655 31.6473C141.253 31.6473 142.991 29.8363 142.991 27.1383C142.991 24.4403 141.317 23.0042 135.509 21.6103C128.645 19.9366 125.567 17.566 125.567 12.5502C125.567 7.79831 129.189 4.28194 136.301 4.28194C140.715 4.28194 143.55 5.33791 145.641 6.51003V10.6917C142.734 9.09006 139.455 8.2884 136.137 8.36853C132.14 8.36853 129.77 9.76241 129.77 12.5502C129.77 15.0581 131.723 16.3147 137.109 17.661C143.566 19.2872 147.193 21.3569 147.193 26.8585C147.162 32.1542 144.004 35.7339 136.428 35.7339Z" fill="#253858"/>
<path d="M150.694 23.6061C150.694 16.6368 154.78 11.5734 161.75 11.5734C168.719 11.5734 172.716 16.6368 172.716 23.6061C172.716 30.5755 168.672 35.7497 161.75 35.7497C154.828 35.7497 150.694 30.5755 150.694 23.6061ZM154.596 23.6061C154.596 28.0201 156.781 32.0169 161.75 32.0169C166.718 32.0169 168.814 28.0201 168.814 23.6061C168.814 19.1922 166.676 15.3115 161.75 15.3115C156.824 15.3115 154.617 19.1922 154.617 23.6061H154.596Z" fill="#253858"/>
<path d="M182.89 12.038H188.883V15.7339H182.89V35.2693H178.988V15.7339H175.208V12.038H178.973V9.5037C178.973 5.1848 181.391 2.25449 186.364 2.25449C187.275 2.24941 188.181 2.37386 189.057 2.62408V6.31996C188.23 6.16276 187.391 6.08497 186.549 6.08765C184.089 6.08765 182.853 7.52904 182.853 9.61986L182.89 12.038Z" fill="#253858"/>
<path d="M202.404 31.3675C203.249 31.3423 204.089 31.2326 204.912 31.0401V34.8944C204.037 35.1449 203.13 35.2694 202.22 35.264C197.246 35.264 194.828 32.339 194.828 28.0148V15.755H191.047V12.0591H194.812V7.11193H198.714V12.038H204.891V15.7339H198.714V27.9303C198.735 29.9736 199.944 31.3675 202.404 31.3675Z" fill="#253858"/>
<path d="M206.032 12.038H210.446L217.135 31.7371L223.914 12.038H227.726L234.511 31.7371L241.206 12.038H245.62L237.072 35.2693H231.961L227.964 24.0285L225.852 16.8743L223.74 24.0285L219.691 35.2693H214.58L206.032 12.038Z" fill="#253858"/>
<path d="M263.872 31.0876C262.383 34.1552 259.596 35.7339 256.021 35.7339C249.844 35.7339 246.729 30.4857 246.729 23.6536C246.729 17.1014 249.981 11.5734 256.486 11.5734C259.875 11.5734 262.478 13.1045 263.877 16.1246V12.038H267.874V35.2693H263.877L263.872 31.0876ZM257.088 32.0169C260.667 32.0169 263.872 29.7413 263.872 24.5829V22.7033C263.872 17.5449 260.947 15.2693 257.536 15.2693C253.049 15.3115 250.71 18.2629 250.71 23.6536C250.71 29.2291 252.954 32.0169 257.093 32.0169H257.088Z" fill="#253858"/>
<path d="M273.909 12.038H277.811V16.1246C279.157 13.3844 281.507 11.4308 286.037 11.7107V15.6125C280.926 15.0845 277.811 16.6367 277.811 21.5575V35.2851H273.909V12.038Z" fill="#253858"/>
<path d="M300.113 35.7339C291.422 35.7339 287.616 30.7181 287.616 23.5903C287.616 16.5734 291.517 11.5575 298.582 11.5575C305.736 11.5575 308.614 16.5311 308.614 23.5903V25.4013H291.66C292.22 29.3506 294.775 31.906 300.256 31.906C302.666 31.9038 305.057 31.4785 307.32 30.6494V34.3453C305.414 35.3749 302.484 35.7339 300.113 35.7339ZM291.612 22.0063H304.564C304.332 17.6874 302.378 15.2218 298.386 15.2218C294.168 15.2006 292.03 17.9514 291.612 21.9799V22.0063Z" fill="#253858"/>
<path d="M38.6716 18.8807L21.4593 1.66843L19.7909 0L6.83419 12.9567L0.910222 18.8807C0.6136 19.1777 0.446991 19.5803 0.446991 20C0.446991 20.4197 0.6136 20.8223 0.910222 21.1193L12.7476 32.9567L19.7909 40L32.7476 27.0433L32.9482 26.8427L38.6716 21.1193C38.9682 20.8223 39.1348 20.4197 39.1348 20C39.1348 19.5803 38.9682 19.1777 38.6716 18.8807ZM19.7909 25.9134L13.8775 20L19.7909 14.0866L25.7043 20L19.7909 25.9134Z" fill="#2684FF"/>
<path d="M19.7909 14.0866C17.9311 12.2265 16.8827 9.70614 16.8748 7.07577C16.8669 4.4454 17.9 1.91875 19.7487 0.0475235L6.8078 12.9831L13.8511 20.0264L19.7909 14.0866Z" fill="url(#paint0_linear_1266_1764)"/>
<path d="M25.7201 19.9842L19.7909 25.9134C20.7162 26.8381 21.4502 27.9361 21.951 29.1447C22.4518 30.3532 22.7095 31.6485 22.7095 32.9567C22.7095 34.2649 22.4518 35.5602 21.951 36.7687C21.4502 37.9773 20.7162 39.0753 19.7909 40L32.7634 27.0274L25.7201 19.9842Z" fill="url(#paint1_linear_1266_1764)"/>
</g>
<defs>
<linearGradient id="paint0_linear_1266_1764" x1="18.7349" y1="8.10455" x2="10.4773" y2="16.3622" gradientUnits="userSpaceOnUse">
<stop offset="0.18" stop-color="#0052CC"/>
<stop offset="1" stop-color="#2684FF"/>
</linearGradient>
<linearGradient id="paint1_linear_1266_1764" x1="522.866" y1="1226.54" x2="808.069" y2="1041.7" gradientUnits="userSpaceOnUse">
<stop offset="0.18" stop-color="#0052CC"/>
<stop offset="1" stop-color="#2684FF"/>
</linearGradient>
<clipPath id="clip0_1266_1764">
<rect width="308.173" height="40" fill="white" transform="translate(0.445618)"/>
</clipPath>
</defs>
</svg>
