<svg width="150" height="40" viewBox="0 0 150 40" fill="none" xmlns="http://www.w3.org/2000/svg">
<g clip-path="url(#clip0_1267_309)">
<path d="M58.271 15.2891C56.3611 15.2891 55.4163 16.792 54.9828 17.7615C54.7406 18.3028 54.6729 18.7308 54.4764 18.7308C54.1996 18.7308 54.3979 18.3588 54.1714 17.5338C53.8734 16.4484 52.9751 15.2891 51.0666 15.2891C49.06 15.2891 48.2009 16.9843 47.7935 17.9159C47.5149 18.5528 47.5146 18.7308 47.3004 18.7308C46.99 18.7308 47.2472 18.2249 47.3868 17.6302C47.6619 16.4592 47.4527 15.5644 47.4527 15.5644H44.272V27.5249H48.6136C48.6136 27.5249 48.6136 22.5263 48.6136 21.574C48.6136 20.4003 49.1046 18.9109 49.9462 18.9109C50.9186 18.9109 51.1133 19.6576 51.1133 21.0405C51.1133 22.2943 51.1133 27.5275 51.1133 27.5275H55.4723C55.4723 27.5275 55.4723 22.4986 55.4723 21.574C55.4723 20.5293 55.8987 18.9109 56.8113 18.9109C57.7973 18.9109 57.9718 19.96 57.9718 21.0405C57.9718 22.121 57.9718 27.5249 57.9718 27.5249H62.2525C62.2525 27.5249 62.2525 22.7858 62.2525 20.4914C62.2525 17.37 61.1523 15.2891 58.271 15.2891" fill="#100F0D"/>
<path d="M131.964 15.2891C130.054 15.2891 129.109 16.792 128.675 17.7615C128.433 18.3028 128.365 18.7308 128.169 18.7308C127.892 18.7308 128.077 18.2582 127.864 17.5338C127.546 16.4541 126.754 15.2891 124.759 15.2891C122.753 15.2891 121.893 16.9843 121.486 17.9159C121.207 18.5528 121.207 18.7308 120.993 18.7308C120.683 18.7308 120.94 18.2249 121.079 17.6302C121.354 16.4592 121.145 15.5644 121.145 15.5644H117.964V27.5249H122.306C122.306 27.5249 122.306 22.5263 122.306 21.574C122.306 20.4003 122.797 18.9109 123.639 18.9109C124.611 18.9109 124.806 19.6576 124.806 21.0405C124.806 22.2943 124.806 27.5275 124.806 27.5275H129.165C129.165 27.5275 129.165 22.4986 129.165 21.574C129.165 20.5293 129.591 18.9109 130.504 18.9109C131.49 18.9109 131.664 19.96 131.664 21.0405C131.664 22.121 131.664 27.5249 131.664 27.5249H135.945C135.945 27.5249 135.945 22.7858 135.945 20.4914C135.945 17.37 134.845 15.2891 131.964 15.2891" fill="#100F0D"/>
<path d="M68.6091 24.7294C67.5709 24.9692 67.0327 24.6495 67.0327 23.9613C67.0327 23.0187 68.0077 22.6411 69.3994 22.6411C70.0129 22.6411 70.5898 22.6942 70.5898 22.6942C70.5898 23.0977 69.7139 24.4746 68.6091 24.7294V24.7294ZM69.6661 15.2917C66.3403 15.2917 63.954 16.5144 63.954 16.5144V20.1085C63.954 20.1085 66.5893 18.5933 68.7271 18.5933C70.4336 18.5933 70.6432 19.5136 70.5655 20.2775C70.5655 20.2775 70.0735 20.1472 68.5715 20.1472C65.033 20.1472 63.2466 21.7554 63.2466 24.3343C63.2466 26.7804 65.2543 27.803 66.9456 27.803C69.4138 27.803 70.4987 26.1444 70.8321 25.3575C71.0635 24.8116 71.1057 24.4437 71.3135 24.4437C71.5503 24.4437 71.4706 24.7076 71.4592 25.2509C71.4391 26.2024 71.4838 26.9216 71.6347 27.5275H74.9071V21.6413C74.9071 17.9663 73.6068 15.2917 69.6661 15.2917Z" fill="#100F0D"/>
<path d="M82.0586 27.5275H86.4004V11.9435H82.0586V27.5275Z" fill="#100F0D"/>
<path d="M91.1792 21.5472C91.1792 20.4718 92.1782 19.4934 94.0125 19.4934C96.011 19.4934 97.6184 20.4556 97.979 20.6741V16.5144C97.979 16.5144 96.7091 15.2917 93.5878 15.2917C90.2974 15.2917 87.5574 17.2171 87.5574 21.3611C87.5574 25.5051 90.044 27.803 93.5789 27.803C96.34 27.803 97.986 26.2858 97.986 26.2858V22.3348C97.4653 22.6263 96.0143 23.6331 94.0324 23.6331C91.9338 23.6331 91.1792 22.6678 91.1792 21.5472" fill="#100F0D"/>
<path d="M106.774 15.2917C104.261 15.2917 103.305 17.6735 103.112 18.0871C102.918 18.5005 102.823 18.7384 102.665 18.7334C102.391 18.7244 102.582 18.2257 102.689 17.9027C102.891 17.2927 103.319 15.6919 103.319 13.7246C103.319 12.3901 103.139 11.9435 103.139 11.9435H99.3909V27.5275H103.733C103.733 27.5275 103.733 22.5459 103.733 21.5768C103.733 20.6073 104.119 18.9135 105.213 18.9135C106.119 18.9135 106.403 19.5848 106.403 20.9365C106.403 22.2881 106.403 27.5275 106.403 27.5275H110.745C110.745 27.5275 110.745 23.8823 110.745 21.1966C110.745 18.1264 110.236 15.2917 106.774 15.2917" fill="#100F0D"/>
<path d="M112.156 15.5807V27.5275H116.497V15.5807C116.497 15.5807 115.768 16.0075 114.331 16.0075C112.894 16.0075 112.156 15.5807 112.156 15.5807Z" fill="#100F0D"/>
<path d="M114.314 11.8226C112.846 11.8226 111.656 12.5992 111.656 13.5572C111.656 14.5151 112.846 15.2917 114.314 15.2917C115.781 15.2917 116.972 14.5151 116.972 13.5572C116.972 12.5992 115.781 11.8226 114.314 11.8226Z" fill="#100F0D"/>
<path d="M76.3118 15.5807V27.5275H80.6534V15.5807C80.6534 15.5807 79.9236 16.0075 78.487 16.0075C77.0505 16.0075 76.3118 15.5807 76.3118 15.5807Z" fill="#100F0D"/>
<path d="M78.4698 11.8226C77.0022 11.8226 75.8123 12.5992 75.8123 13.5572C75.8123 14.5151 77.0022 15.2917 78.4698 15.2917C79.9377 15.2917 81.1276 14.5151 81.1276 13.5572C81.1276 12.5992 79.9377 11.8226 78.4698 11.8226Z" fill="#100F0D"/>
<path d="M143.379 24.9573C142.384 24.9573 141.651 23.6945 141.651 21.9351C141.651 20.2264 142.403 18.9135 143.345 18.9135C144.553 18.9135 145.068 20.0215 145.068 21.9351C145.068 23.9258 144.594 24.9573 143.379 24.9573V24.9573ZM144.571 15.2891C142.339 15.2891 141.316 16.9627 140.872 17.916C140.578 18.546 140.593 18.7308 140.378 18.7308C140.068 18.7308 140.325 18.2249 140.465 17.6302C140.74 16.4593 140.531 15.5644 140.531 15.5644H137.35V30.8281H141.692C141.692 30.8281 141.692 28.3304 141.692 25.9888C142.206 26.8603 143.157 27.7916 144.624 27.7916C147.764 27.7916 149.344 25.1353 149.344 21.5463C149.344 17.4785 147.452 15.2891 144.571 15.2891" fill="#100F0D"/>
<path d="M28.9338 18.9017C29.2258 18.867 29.5055 18.8653 29.7626 18.9017C29.9113 18.5606 29.9369 17.9724 29.803 17.332C29.6042 16.38 29.3351 15.8039 28.7787 15.8936C28.2225 15.9832 28.202 16.673 28.4009 17.625C28.5127 18.1604 28.7119 18.6181 28.9338 18.9017Z" fill="#231F20"/>
<path d="M24.1583 19.655C24.5562 19.8297 24.8008 19.9455 24.8965 19.8443C24.9581 19.7812 24.9398 19.6609 24.8447 19.5056C24.6483 19.1849 24.2441 18.8598 23.8155 18.6771C22.9388 18.2997 21.8932 18.4253 21.0866 19.0048C20.8204 19.1999 20.568 19.4702 20.604 19.6343C20.6158 19.6873 20.6556 19.7273 20.749 19.7404C20.9687 19.7656 21.7358 19.3776 22.6196 19.3235C23.2433 19.2853 23.7601 19.4804 24.1583 19.655" fill="#231F20"/>
<path d="M23.3577 20.1119C22.8393 20.1937 22.5533 20.3647 22.3698 20.5235C22.2132 20.6604 22.1164 20.8118 22.1172 20.9182C22.1175 20.9688 22.1396 20.9981 22.1569 21.0128C22.1806 21.0335 22.2085 21.0451 22.2421 21.0451C22.3592 21.0451 22.6214 20.9398 22.6214 20.9398C23.3429 20.6816 23.8187 20.713 24.2903 20.7667C24.5509 20.7959 24.674 20.8121 24.7312 20.7228C24.7481 20.6971 24.7686 20.6416 24.7165 20.557C24.595 20.3601 24.0716 20.0271 23.3577 20.1119Z" fill="#231F20"/>
<path d="M27.3212 21.7889C27.6731 21.9619 28.0606 21.8939 28.1868 21.6372C28.3129 21.3807 28.1298 21.0324 27.7778 20.8593C27.4259 20.6866 27.0384 20.7543 26.9122 21.011C26.7861 21.2677 26.9691 21.6158 27.3212 21.7889Z" fill="#231F20"/>
<path d="M29.5841 19.8116C29.2981 19.8067 29.061 20.1207 29.0543 20.5128C29.0476 20.905 29.2741 21.2267 29.5601 21.2316C29.846 21.2365 30.0832 20.9225 30.0898 20.5304C30.0965 20.1382 29.87 19.8164 29.5841 19.8116Z" fill="#231F20"/>
<path d="M10.3779 26.882C10.3068 26.7929 10.1899 26.82 10.0767 26.8464C9.99771 26.8649 9.90816 26.8856 9.80999 26.884C9.59968 26.8799 9.4216 26.7901 9.32158 26.6364C9.19132 26.4364 9.19885 26.138 9.3427 25.7968C9.36203 25.7505 9.38492 25.6994 9.40979 25.6438C9.63904 25.1292 10.0229 24.268 9.59198 23.4475C9.26762 22.8299 8.73865 22.4452 8.10264 22.3645C7.49208 22.2871 6.86347 22.5135 6.4625 22.9558C5.82994 23.6537 5.73107 24.6034 5.85341 24.939C5.89825 25.0618 5.96835 25.0958 6.01933 25.1028C6.12692 25.1171 6.28607 25.0389 6.38577 24.7707C6.39291 24.7514 6.40241 24.7215 6.41428 24.6835C6.45875 24.5417 6.54147 24.2777 6.67696 24.066C6.84031 23.8108 7.09475 23.6351 7.3934 23.5711C7.69766 23.5059 8.00862 23.5641 8.26892 23.7345C8.71211 24.0244 8.88274 24.5673 8.69355 25.0854C8.59577 25.3534 8.43687 25.8657 8.47196 26.2868C8.54276 27.1387 9.06681 27.481 9.53768 27.5174C9.99549 27.5345 10.3154 27.2776 10.3964 27.0897C10.4441 26.9787 10.4038 26.9111 10.3779 26.882" fill="#231F20"/>
<path d="M14.73 11.2329C16.2231 9.50758 18.0613 8.00758 19.7077 7.16532C19.7647 7.13609 19.8251 7.19798 19.7943 7.25382C19.6635 7.4906 19.4119 7.99762 19.332 8.38217C19.3196 8.4421 19.3848 8.48717 19.4354 8.45272C20.4597 7.75448 22.2417 7.00627 23.8047 6.91009C23.8718 6.90601 23.9043 6.99207 23.8509 7.03305C23.6132 7.21545 23.3532 7.46774 23.1633 7.72296C23.131 7.7664 23.1614 7.82894 23.2156 7.82927C24.3131 7.8371 25.8603 8.22117 26.8687 8.78681C26.937 8.82502 26.8883 8.95712 26.8121 8.93965C25.2863 8.59004 22.7887 8.32469 20.1944 8.95745C17.8782 9.52244 16.1104 10.3946 14.8208 11.3325C14.7556 11.3801 14.6774 11.294 14.73 11.2329ZM22.1664 27.9498C22.1666 27.9501 22.1668 27.9505 22.1669 27.9508C22.1672 27.9514 22.1674 27.9521 22.1677 27.9527C22.1672 27.9517 22.1669 27.9508 22.1664 27.9498ZM28.3238 28.6766C28.3681 28.658 28.3986 28.6075 28.3934 28.5574C28.3872 28.4956 28.3322 28.4507 28.2704 28.4571C28.2704 28.4571 25.084 28.9287 22.0738 27.8269C22.4017 26.7612 23.2735 27.1459 24.5913 27.2523C26.9666 27.3939 29.0952 27.0469 30.6686 26.5953C32.0319 26.2042 33.8224 25.4328 35.2131 24.335C35.6823 25.3655 35.8478 26.4994 35.8478 26.4994C35.8478 26.4994 36.211 26.4346 36.5144 26.6212C36.8011 26.7977 37.0115 27.1645 36.8678 28.1129C36.5753 29.8848 35.8222 31.3228 34.5565 32.6457C33.786 33.4751 32.8506 34.1962 31.7804 34.7205C31.212 35.019 30.6068 35.2774 29.9675 35.486C25.1958 37.0445 20.3116 35.3312 18.7371 31.652C18.6116 31.3753 18.5053 31.0858 18.4215 30.7829C17.7505 28.3583 18.3201 25.4495 20.1006 23.6185C20.1008 23.6183 20.1005 23.6176 20.1006 23.6175C20.2104 23.5009 20.3224 23.3636 20.3224 23.1908C20.3224 23.0463 20.2306 22.8938 20.1509 22.7857C19.528 21.8822 17.3702 20.3425 17.8033 17.3629C18.1143 15.2223 19.9863 13.7148 21.7317 13.8041C21.8792 13.8118 22.027 13.8208 22.1741 13.8294C22.9305 13.8743 23.5903 13.9713 24.213 13.9973C25.2551 14.0424 26.1922 13.8908 27.3021 12.9661C27.6766 12.6541 27.9767 12.3836 28.4847 12.2976C28.5381 12.2884 28.6708 12.2408 28.9363 12.2533C29.2073 12.2677 29.4653 12.3422 29.697 12.4965C30.5869 13.0886 30.713 14.5226 30.7592 15.5718C30.7855 16.1705 30.858 17.6194 30.8826 18.0353C30.9393 18.9864 31.1893 19.1204 31.695 19.287C31.9795 19.3807 32.2435 19.4504 32.6326 19.5597C33.8105 19.8903 34.5088 20.2259 34.9489 20.6568C35.2115 20.9261 35.3336 21.2123 35.3714 21.4852C35.5102 22.4984 34.5846 23.7501 32.1346 24.8874C29.4563 26.1304 26.2071 26.4452 23.9621 26.1952C23.79 26.1761 23.1777 26.1067 23.1756 26.1063C21.3799 25.8645 20.3555 28.1853 21.4332 29.7752C22.1279 30.7998 24.0198 31.4668 25.9127 31.4671C30.2528 31.4677 33.5887 29.6142 34.8296 28.0136C34.8668 27.9658 34.8704 27.9605 34.9288 27.8721C34.9899 27.7801 34.9396 27.7293 34.8635 27.7814C33.8496 28.4751 29.3465 31.2292 24.5298 30.4006C24.5298 30.4006 23.9445 30.3044 23.4102 30.0966C22.9857 29.9315 22.097 29.5226 21.9891 28.611C25.8763 29.8131 28.3238 28.6766 28.3238 28.6766V28.6766ZM6.97304 19.4387C5.62116 19.7016 4.42964 20.4677 3.70108 21.526C3.26555 21.1629 2.45425 20.4597 2.31099 20.1857C1.14773 17.977 3.58046 13.6826 5.2799 11.2574C9.47984 5.26395 16.0578 0.727373 19.1029 1.55053C19.598 1.69063 21.2375 3.59151 21.2375 3.59151C21.2375 3.59151 18.1937 5.28044 15.3708 7.63462C11.5673 10.5633 8.69424 14.8198 6.97304 19.4387ZM9.24471 29.5742C9.04009 29.6092 8.83139 29.6231 8.62089 29.618C6.58682 29.5634 4.38965 27.7321 4.17131 25.5605C3.93 23.1601 5.15649 21.3128 7.32807 20.8747C7.58769 20.8224 7.90144 20.7922 8.23976 20.8098C9.45648 20.8765 11.2495 21.8107 11.6591 24.4614C12.0219 26.8089 11.4457 29.1988 9.24471 29.5742ZM36.799 25.3237C36.7815 25.2621 36.6681 24.8472 36.5121 24.3473C36.3562 23.847 36.1947 23.4952 36.1947 23.4952C36.8202 22.5585 36.8314 21.721 36.7482 21.2465C36.6594 20.6585 36.4146 20.1573 35.9212 19.6394C35.4277 19.1214 34.4185 18.5909 33.0002 18.1926C32.838 18.147 32.3031 18.0002 32.2561 17.986C32.2525 17.9553 32.2169 16.2316 32.1847 15.4917C32.1612 14.9568 32.1153 14.1217 31.8562 13.2992C31.5474 12.1859 31.0093 11.2117 30.3379 10.5884C32.1911 8.66744 33.348 6.55118 33.3452 4.7357C33.3398 1.24435 29.0521 0.187853 23.7682 2.37597C23.7626 2.37825 22.6566 2.84723 22.6486 2.85115C22.6436 2.84641 20.6246 0.865353 20.5943 0.8389C14.5698 -4.41584 -4.26616 16.5208 1.75605 21.6057L3.07215 22.7207C2.73077 23.6051 2.59662 24.6183 2.70621 25.7079C2.84685 27.1073 3.56872 28.4488 4.73875 29.4852C5.84945 30.4694 7.30977 31.0922 8.7269 31.091C11.0704 36.4916 16.425 39.8046 22.7033 39.9911C29.438 40.1911 35.0913 37.031 37.4602 31.3544C37.6152 30.956 38.2727 29.1609 38.2727 27.5764C38.2727 25.9838 37.3723 25.3237 36.799 25.3237Z" fill="#231F20"/>
</g>
<defs>
<clipPath id="clip0_1267_309">
<rect width="148.761" height="40" fill="white" transform="translate(0.583496)"/>
</clipPath>
</defs>
</svg>
