<svg width="137" height="40" viewBox="0 0 137 40" fill="none" xmlns="http://www.w3.org/2000/svg">
<path fill-rule="evenodd" clip-rule="evenodd" d="M126.095 13.1651C132.627 13.1651 136.954 17.7068 136.954 24.5615C136.954 31.4161 132.627 36 126.095 36C119.314 36 114.779 31.4161 114.779 24.5615C114.779 17.7068 119.314 13.1651 126.095 13.1651ZM91.2354 13.6251V35.5399L86.3531 34.5361V14.587L91.2354 13.6251ZM110.785 13.1161V18.2592L107.971 18.7806C105.554 19.2448 103.999 20.5023 103.999 23.285V35.5399L99.1171 34.5361V22.5384C99.1171 16.5838 102.604 14.8125 107.971 13.5761L110.785 13.1161ZM58.9011 13.1651C60.8171 13.1651 63.1667 14.2366 64.4914 16.1567C65.8211 14.4081 68.0439 13.2607 70.7719 13.2235C74.2057 13.1767 78.4714 15.3398 78.4714 21.8223V35.5399L73.5891 34.5361V21.8223C73.5891 19.6475 72.0169 18.1 69.6999 18.1C67.3828 18.1 65.8106 19.6475 65.8106 21.8223V35.5399L60.9284 34.5361V21.8223C60.9284 19.6475 59.3562 18.1 57.0393 18.1C54.6808 18.1 53.1086 19.6475 53.1086 21.8223V35.5399L48.2263 34.5361V14.587L53.1086 13.6251V15.8835C54.4739 14.2106 56.5427 13.1651 58.9011 13.1651ZM126.095 17.7909C122.309 17.7909 119.771 20.4823 119.771 24.5615C119.771 28.6407 122.309 31.3741 126.095 31.3741C129.631 31.3741 131.961 28.6407 131.961 24.5615C131.961 20.4823 129.631 17.7909 126.095 17.7909ZM88.8979 4C90.6744 4 91.8511 5.23521 91.8511 7.09959C91.8511 8.96387 90.6744 10.2106 88.8979 10.2106C87.0534 10.2106 85.8202 8.96387 85.8202 7.09959C85.8202 5.23521 87.0534 4 88.8979 4Z" fill="#050038"/>
<path d="M0.0712891 0H40.0713V40H0.0712891V0Z" fill="#FFD02F"/>
<path d="M27.328 5.33333H23.058L26.8489 11.2083L18.8347 5.33333H14.5647L18.3555 13.0317L10.3413 5.33333H6.07129L9.79964 15.2717L6.07129 34.6667H10.3413L18.3555 13.8708L14.5647 34.6667H18.8347L26.8489 12.0483L23.058 34.6667H27.328L35.4047 9.82083L27.328 5.33333Z" fill="#050038"/>
</svg>
