<svg width="216" height="40" viewBox="0 0 216 40" fill="none" xmlns="http://www.w3.org/2000/svg">
<g clip-path="url(#clip0_1266_1854)">
<path d="M215.057 0.114555H176.775C176.34 0.114555 175.987 0.467381 175.987 0.902613V39.1842C175.987 39.6194 176.34 39.9722 176.775 39.9722H215.057C215.492 39.9722 215.845 39.6194 215.845 39.1842V0.902613C215.845 0.467381 215.492 0.114555 215.057 0.114555Z" fill="#FF0063"/>
<path d="M194.884 14.0948V23.187H200.341C200.467 23.187 200.588 23.2371 200.677 23.3263C200.766 23.4155 200.817 23.5364 200.817 23.6626V26.0372C200.817 26.1633 200.766 26.2843 200.677 26.3735C200.588 26.4627 200.467 26.5128 200.341 26.5128H191.467C191.343 26.5109 191.223 26.46 191.136 26.371C191.048 26.282 190.999 26.1621 190.999 26.0372V14.0948C191 13.9683 191.051 13.8474 191.14 13.7583C191.23 13.6692 191.351 13.6192 191.478 13.6192H194.404C194.531 13.6192 194.652 13.6693 194.741 13.7585C194.83 13.8477 194.88 13.9686 194.88 14.0948" fill="white"/>
<path d="M170.915 0.142357H132.634C132.199 0.142357 131.846 0.495182 131.846 0.930415V39.212C131.846 39.6472 132.199 40 132.634 40H170.915C171.351 40 171.703 39.6472 171.703 39.212V0.930415C171.703 0.495182 171.351 0.142357 170.915 0.142357Z" fill="#FF0063"/>
<path d="M153.578 13.6192L159.317 26.117C159.337 26.1608 159.346 26.2091 159.343 26.2574C159.34 26.3056 159.325 26.3523 159.299 26.3931C159.273 26.4339 159.237 26.4675 159.195 26.4908C159.152 26.5142 159.105 26.5265 159.056 26.5267H155.585C155.472 26.5288 155.361 26.4967 155.267 26.4348C155.173 26.3728 155.1 26.2838 155.057 26.1795L154.519 24.8881H148.964L148.405 26.183C148.362 26.2859 148.289 26.3737 148.196 26.4355C148.102 26.4972 147.993 26.5301 147.881 26.5301H144.41C144.361 26.53 144.314 26.5177 144.271 26.4943C144.229 26.471 144.193 26.4374 144.167 26.3965C144.141 26.3557 144.126 26.3091 144.123 26.2608C144.12 26.2126 144.129 26.1643 144.149 26.1205L149.957 13.6226L153.578 13.6192ZM153.078 21.7185L151.731 18.1531L150.37 21.7185H153.078Z" fill="white"/>
<path d="M127.94 1.16994C127.938 0.859613 127.814 0.562573 127.594 0.343463C127.375 0.124353 127.077 0.000910029 126.767 0L89.2525 0C88.9437 0.00273961 88.6484 0.127099 88.4307 0.34611C88.213 0.565121 88.0904 0.861126 88.0895 1.16994V38.6843C88.0904 38.9946 88.2138 39.292 88.4329 39.5117C88.6521 39.7315 88.9491 39.8558 89.2594 39.8577H117.199L127.961 29.0956L127.94 1.16994Z" fill="#FF0063"/>
<g opacity="0.3">
<g opacity="0.3">
<path opacity="0.3" d="M117.473 29.4984L107.117 39.8577H117.192L127.94 29.1095L117.473 29.4984Z" fill="black"/>
</g>
</g>
<path d="M127.94 29.1095H118.362C118.052 29.1105 117.755 29.234 117.536 29.4532C117.316 29.6724 117.193 29.9695 117.192 30.2795V39.8577L127.94 29.1095Z" fill="#FF5BA3"/>
<path d="M108.468 13.4768C109.069 13.4912 109.668 13.5621 110.256 13.6886C110.884 13.8216 111.48 14.0794 112.007 14.4467C112.534 14.814 112.982 15.2834 113.325 15.8271C114.463 17.6567 114.241 20.3402 112.252 21.6907C112.04 21.833 111.835 21.9858 111.582 22.1628C111.641 22.267 113.449 25.079 114.078 26.0545C114.1 26.0862 114.112 26.1232 114.114 26.1616C114.116 26.2 114.108 26.2382 114.089 26.2719C114.071 26.3057 114.044 26.3338 114.01 26.353C113.977 26.3722 113.939 26.3818 113.901 26.3808H109.933C109.854 26.3808 109.777 26.3607 109.708 26.3224C109.64 26.2841 109.582 26.229 109.54 26.1621L107.433 22.878H105.756V25.9017C105.758 25.9646 105.747 26.0271 105.723 26.0856C105.7 26.1441 105.666 26.1974 105.622 26.2424C105.578 26.2873 105.525 26.323 105.467 26.3474C105.409 26.3718 105.347 26.3843 105.284 26.3843H102.323C102.261 26.3843 102.2 26.3722 102.144 26.3486C102.087 26.3251 102.035 26.2906 101.992 26.247C101.948 26.2035 101.914 26.1518 101.89 26.095C101.866 26.0381 101.854 25.9772 101.854 25.9156V13.9559C101.853 13.8936 101.865 13.8318 101.888 13.7739C101.911 13.716 101.945 13.6633 101.989 13.6188C102.032 13.5743 102.084 13.5388 102.142 13.5144C102.199 13.49 102.261 13.4773 102.323 13.4768H108.468ZM105.781 19.7257H108.495C108.742 19.7221 108.985 19.6652 109.207 19.5591C109.45 19.4375 109.653 19.2484 109.791 19.0143C109.929 18.7803 109.996 18.5113 109.985 18.2399C110.002 17.9865 109.943 17.7338 109.815 17.5146C109.687 17.2954 109.496 17.1199 109.266 17.0109C108.998 16.8617 108.694 16.7896 108.388 16.8026H105.795C105.795 17.792 105.795 19.7292 105.795 19.7292" fill="white"/>
<path d="M83.4167 0.142357H45.1351C44.6999 0.142357 44.347 0.495182 44.347 0.930415V39.212C44.347 39.6472 44.6999 40 45.1351 40H83.4167C83.8519 40 84.2047 39.6472 84.2047 39.212V0.930415C84.2047 0.495182 83.8519 0.142357 83.4167 0.142357Z" fill="#FF0063"/>
<path d="M70.5648 13.5046C70.626 13.5037 70.6868 13.5149 70.7436 13.5377C70.8004 13.5605 70.8522 13.5944 70.8958 13.6374C70.9394 13.6803 70.974 13.7315 70.9976 13.788C71.0213 13.8445 71.0335 13.9051 71.0334 13.9663V20.6943C71.0357 22.2532 70.4232 23.7501 69.3289 24.8603C68.3746 25.7635 67.1598 26.343 65.8573 26.5162C65.0612 26.6478 64.2518 26.6793 63.448 26.61C61.7642 26.4815 60.2228 25.9712 59.0286 24.6936C58.2482 23.8587 57.746 22.8022 57.5913 21.6699C57.5087 21.0543 57.4693 20.4336 57.4733 19.8125C57.4733 18.3093 57.4733 15.1571 57.4733 13.9733C57.4733 13.9123 57.4854 13.852 57.5088 13.7958C57.5322 13.7395 57.5665 13.6885 57.6098 13.6456C57.653 13.6026 57.7043 13.5687 57.7607 13.5457C57.8172 13.5227 57.8776 13.5111 57.9385 13.5115H60.8824C60.9438 13.5102 61.0049 13.521 61.0621 13.5433C61.1193 13.5656 61.1715 13.599 61.2157 13.6416C61.2599 13.6842 61.2952 13.7352 61.3197 13.7915C61.3441 13.8478 61.3571 13.9084 61.358 13.9698C61.358 15.1467 61.358 18.2607 61.358 19.7466C61.3459 20.4246 61.4637 21.0987 61.7052 21.7323C61.9125 22.265 62.301 22.7075 62.8022 22.9821C63.4821 23.3218 64.2583 23.4162 64.9998 23.2494C65.467 23.1841 65.903 22.977 66.2488 22.656C66.5946 22.3351 66.8336 21.9157 66.9335 21.4546C67.0246 21.1007 67.0713 20.7369 67.0723 20.3715C67.0723 18.719 67.0723 15.2231 67.0723 13.9663C67.0742 13.8432 67.1243 13.7258 67.212 13.6394C67.2997 13.553 67.4179 13.5046 67.541 13.5046H70.5648Z" fill="white"/>
<path d="M39.6742 0.0312271H1.39267C0.95744 0.0312271 0.604614 0.384053 0.604614 0.819285V39.1008C0.604614 39.5361 0.95744 39.8889 1.39267 39.8889H39.6742C40.1095 39.8889 40.4623 39.5361 40.4623 39.1008V0.819285C40.4623 0.384053 40.1095 0.0312271 39.6742 0.0312271Z" fill="#FF0063"/>
<path d="M28.1554 14.0497V26.0684C28.1545 26.1823 28.1089 26.2913 28.0283 26.3718C27.9478 26.4523 27.8388 26.498 27.7249 26.4989H24.6005C24.4863 26.4989 24.3768 26.4535 24.2961 26.3728C24.2153 26.2921 24.17 26.1826 24.17 26.0684C24.17 24.6589 24.17 20.2534 24.17 20.0799L20.3339 25.3637C20.077 25.0165 16.5776 20.1146 16.3901 19.8091C16.3901 20.0347 16.3901 24.6693 16.3901 26.0996C16.3892 26.2132 16.3434 26.3218 16.2628 26.4018C16.1822 26.4818 16.0732 26.5267 15.9596 26.5267H12.9289C12.8147 26.5267 12.7052 26.4813 12.6245 26.4006C12.5438 26.3198 12.4984 26.2103 12.4984 26.0962V14.0601C12.4993 13.9462 12.545 13.8372 12.6255 13.7567C12.706 13.6761 12.815 13.6305 12.9289 13.6296H15.7062C15.7738 13.6303 15.8403 13.6466 15.9006 13.6773C15.9608 13.708 16.0131 13.7523 16.0534 13.8066L20.2991 19.6494L24.6005 13.7962C24.6407 13.7419 24.693 13.6976 24.7533 13.6669C24.8135 13.6362 24.88 13.6198 24.9476 13.6192H27.7249C27.8388 13.6201 27.9478 13.6657 28.0283 13.7463C28.1089 13.8268 28.1545 13.9358 28.1554 14.0497Z" fill="white"/>
</g>
<defs>
<clipPath id="clip0_1266_1854">
<rect width="215.24" height="40" fill="white" transform="translate(0.604614)"/>
</clipPath>
</defs>
</svg>
