<svg width="62" height="40" viewBox="0 0 62 40" fill="none" xmlns="http://www.w3.org/2000/svg">
<path d="M31.1644 0C24.8368 0 19.4736 4.28968 17.8114 10.1017C16.3668 7.01892 13.2362 4.85917 9.63031 4.85917C4.67136 4.85917 0.594971 8.93555 0.594971 13.8945C0.594971 18.8534 4.67136 22.9317 9.63031 22.9317C13.2362 22.9317 16.3668 20.7706 17.8114 17.6873C19.4736 23.4998 24.8368 27.7909 31.1644 27.7909C37.4451 27.7909 42.7809 23.5645 44.4856 17.8176C45.957 20.8309 49.0488 22.9317 52.6035 22.9317C57.5624 22.9317 61.6407 18.8534 61.6407 13.8945C61.6407 8.93555 57.5624 4.85917 52.6035 4.85917C49.0488 4.85917 45.957 6.95864 44.4856 9.97143C42.7809 4.22497 37.4451 0 31.1644 0ZM31.1644 5.30395C35.941 5.30395 39.7568 9.11791 39.7568 13.8945C39.7568 18.6711 35.941 22.4869 31.1644 22.4869C26.3878 22.4869 22.5738 18.6711 22.5738 13.8945C22.5738 9.11791 26.3878 5.30395 31.1644 5.30395ZM9.63031 10.1631C11.723 10.1631 13.3635 11.8018 13.3635 13.8945C13.3635 15.9872 11.723 17.6277 9.63031 17.6277C7.53757 17.6277 5.89891 15.9872 5.89891 13.8945C5.89891 11.8018 7.53757 10.1631 9.63031 10.1631ZM52.6035 10.1631C54.6962 10.1631 56.3367 11.8018 56.3367 13.8945C56.3367 15.9872 54.6962 17.6277 52.6035 17.6277C50.5108 17.6277 48.8721 15.9872 48.8721 13.8945C48.8721 11.8018 50.5108 10.1631 52.6035 10.1631Z" fill="#0082C9"/>
<path d="M6.95217 31.9822C6.77569 31.9822 6.69946 32.0829 6.69946 32.2594V39.5718C6.69946 39.7483 6.77569 39.8478 6.95217 39.8478H7.15458C7.33106 39.8478 7.43058 39.7483 7.43058 39.5718V33.4996L11.4223 39.6945C11.4397 39.7216 11.4586 39.7396 11.4775 39.7595C11.4832 39.7662 11.4871 39.7732 11.4935 39.7791C11.5105 39.7946 11.5291 39.8027 11.5474 39.8122C11.5576 39.8176 11.5655 39.8255 11.5769 39.8294C11.5848 39.8321 11.5932 39.8305 11.6015 39.8326C11.6296 39.8398 11.6584 39.8473 11.6922 39.8473H11.8934C12.0699 39.8473 12.1461 39.7478 12.1461 39.5713V32.2593C12.1461 32.0828 12.0699 31.9821 11.8934 31.9821H11.6922C11.5157 31.9821 11.415 32.0828 11.415 32.2593V38.3318L7.42327 32.1369C7.40966 32.1158 7.3932 32.1029 7.37787 32.0866C7.33178 32.0214 7.25877 31.9823 7.15461 31.9823L6.95217 31.9822ZM54.881 32.0828C54.7045 32.0828 54.7804 32.1835 54.7804 32.36V34.8564C54.7804 35.1085 54.8048 35.2845 54.8048 35.2845H54.7804C54.7804 35.2845 54.3011 34.1755 52.9649 34.1755C51.5025 34.1755 50.4683 35.3353 50.5188 37.0497C50.5188 38.7642 51.4516 39.9497 52.9391 39.9497C54.3762 39.9497 54.8552 38.7892 54.8552 38.7892H54.881C54.881 38.7892 54.8306 38.9408 54.8306 39.1425V39.5706C54.8306 39.7471 54.9314 39.8233 55.1079 39.8233H55.2845C55.461 39.8233 55.536 39.7226 55.536 39.5461V32.36C55.536 32.1835 55.2586 32.0828 55.0821 32.0828H54.881ZM35.2904 32.1086C35.1139 32.1086 35.2156 32.2093 35.2156 32.3858V38.5623C35.2156 39.7725 36.0216 39.9239 36.4754 39.9239C36.6771 39.9239 36.7527 39.8232 36.7527 39.6467V39.47C36.7527 39.2936 36.6518 39.2186 36.5257 39.2186C36.2736 39.1934 35.9467 39.1173 35.9467 38.4114V32.3858C35.9467 32.2093 35.6693 32.1086 35.4928 32.1086L35.2904 32.1086ZM26.2397 32.7636C26.0633 32.7636 25.9625 32.8644 25.9625 33.0409V34.3522V34.9828V37.8312C25.9625 39.1422 26.6942 39.8736 27.9044 39.8736C28.1313 39.8736 28.2062 39.7986 28.2062 39.6222V39.4701C28.2062 39.2684 28.1313 39.218 27.9044 39.1928C27.4758 39.1676 26.6936 39.0164 26.6936 37.7306V34.957H27.8283C28.0048 34.957 28.1056 34.882 28.1056 34.7055V34.6295C28.1056 34.453 28.0048 34.3522 27.8283 34.3522H26.6936V33.0409C26.6936 32.8644 26.6186 32.7636 26.4421 32.7636H26.2397ZM16.1979 34.1756C14.6851 34.1756 13.474 35.2602 13.4488 37.0755C13.4488 38.7899 14.71 39.9742 16.3488 39.9742C17.2312 39.9742 17.8863 39.5964 18.1888 39.3695C18.3149 39.2686 18.3405 39.1422 18.2649 39.0162L18.1888 38.891C18.1132 38.7398 17.988 38.7141 17.8368 38.815C17.5846 39.0167 17.0792 39.3192 16.3733 39.3192C15.2388 39.3192 14.2554 38.5119 14.2302 37.1H18.2391C18.3904 37.1 18.5164 36.9741 18.5164 36.8228C18.5164 35.2344 17.6854 34.1756 16.1979 34.1756ZM31.8618 34.1756C30.223 34.1756 28.9624 35.3856 28.9373 37.1C28.9373 38.8145 30.1984 40 31.8372 40C32.8457 40 33.5263 39.5203 33.8036 39.2934C33.9297 39.1673 33.9541 39.0669 33.8785 38.9156L33.8036 38.815C33.7028 38.6637 33.6016 38.6381 33.4503 38.7389C33.1982 38.9658 32.6691 39.3192 31.8875 39.3192C30.6773 39.3192 29.7187 38.4111 29.7187 37.1C29.7187 35.7638 30.6773 34.8564 31.8875 34.8564C32.543 34.8564 33.0216 35.1841 33.2737 35.3606C33.425 35.4614 33.5507 35.4615 33.6515 35.3103L33.7276 35.184C33.8537 35.0327 33.8279 34.907 33.7018 34.8061C33.4245 34.5792 32.8198 34.1756 31.8617 34.1756L31.8618 34.1756ZM40.3837 34.1756C38.7701 34.1756 37.4592 35.411 37.4592 37.0498C37.4592 38.7138 38.7701 39.9742 40.3837 39.9742C41.9973 39.9742 43.3082 38.7138 43.3082 37.0498C43.3082 35.411 41.9973 34.1756 40.3837 34.1756ZM24.0734 34.2602C24.0116 34.2701 23.9522 34.3116 23.8955 34.3792L22.8749 35.5949L22.1119 36.5051L20.9551 35.1275L20.3282 34.3792C20.2715 34.3116 20.2072 34.2746 20.1405 34.2688C20.0739 34.2634 20.0045 34.2882 19.9369 34.3449L19.7823 34.4749C19.6471 34.5883 19.6542 34.7138 19.7676 34.849L20.7882 36.0647L21.6347 37.0743L20.3957 38.55C20.3944 38.5511 20.3938 38.5527 20.3932 38.5532L19.7676 39.2979C19.6542 39.4331 19.6668 39.5757 19.802 39.6892L19.9565 39.818C20.0917 39.9314 20.2148 39.9029 20.3282 39.7676L21.3476 38.552L22.1119 37.6418L23.2686 39.0206C23.2692 39.0217 23.2705 39.0227 23.2711 39.0233L23.8955 39.7691C24.0089 39.9043 24.1516 39.9156 24.2868 39.8022L24.4414 39.6734C24.5766 39.5599 24.5696 39.4344 24.4561 39.2992L23.4355 38.0823L22.5891 37.074L23.828 35.597C23.8293 35.5959 23.8299 35.5949 23.8305 35.5938L24.4561 34.8492C24.5696 34.714 24.557 34.5713 24.4218 34.4579L24.2672 34.3291C24.1996 34.2723 24.1351 34.2505 24.0734 34.2604L24.0734 34.2602ZM44.7962 34.302C44.6197 34.302 44.5435 34.4027 44.5435 34.5792V37.8312C44.5435 39.2683 45.6025 39.9743 46.9135 39.9743C48.2245 39.9743 49.2835 39.2683 49.2835 37.8312V34.5792C49.3087 34.4027 49.2085 34.302 49.032 34.302H48.8296C48.6531 34.302 48.5524 34.4027 48.5524 34.5792V37.63C48.5524 38.4873 47.9976 39.2689 46.9135 39.2689C45.8546 39.2689 45.2746 38.4873 45.2746 37.63V34.5792C45.2746 34.4027 45.1739 34.302 44.9974 34.302L44.7962 34.302ZM16.1721 34.8062C16.9789 34.8062 17.6845 35.3859 17.735 36.5456H14.256C14.4325 35.4111 15.2393 34.8062 16.1721 34.8062ZM40.3837 34.8565C41.5687 34.8565 42.5268 35.7892 42.5268 37.0499C42.5268 38.3609 41.5687 39.3193 40.3837 39.3193C39.1987 39.3193 38.2401 38.3357 38.2149 37.0499C38.2149 35.8145 39.1987 34.8565 40.3837 34.8565ZM53.0151 34.8565C54.2001 34.8565 54.7804 35.9411 54.7804 37.0756C54.7804 38.664 53.9222 39.3193 52.9894 39.3193C51.9557 39.3193 51.2506 38.4371 51.2254 37.0756C51.2254 35.6637 52.0319 34.8565 53.0151 34.8565Z" fill="#0082C9"/>
</svg>
