<svg width="117" height="40" viewBox="0 0 117 40" fill="none" xmlns="http://www.w3.org/2000/svg">
<g clip-path="url(#clip0_1272_375)">
<path d="M2.47796 1.7254L24.6113 0.0907365C27.33 -0.142597 28.0286 0.0147366 29.738 1.2574L36.8033 6.23474C37.9686 7.09074 38.3566 7.32407 38.3566 8.25607V35.5534C38.3566 37.2641 37.7353 38.2761 35.5606 38.4307L9.85796 39.9867C8.22596 40.0641 7.44862 39.8307 6.59396 38.7414L1.39129 31.9761C0.457956 30.7307 0.0712891 29.7987 0.0712891 28.7094V4.4454C0.0712891 3.04674 0.692622 1.88007 2.47796 1.7254Z" fill="white"/>
<path fill-rule="evenodd" clip-rule="evenodd" d="M24.6113 0.0907365L2.47796 1.7254C0.692622 1.88007 0.0712891 3.04674 0.0712891 4.4454V28.7094C0.0712891 29.7987 0.457956 30.7307 1.39129 31.9761L6.59396 38.7414C7.44862 39.8307 8.22596 40.0641 9.85796 39.9867L35.5606 38.4307C37.734 38.2761 38.3566 37.2641 38.3566 35.5534V8.25607C38.3566 7.37207 38.0073 7.1174 36.9793 6.36274C36.9201 6.32013 36.861 6.27746 36.802 6.23474L29.738 1.2574C28.0286 0.0147366 27.33 -0.142597 24.6113 0.0907365V0.0907365ZM10.4393 7.8094C8.34062 7.95074 7.86462 7.98274 6.67262 7.0134L3.64196 4.60274C3.33396 4.29074 3.48862 3.9014 4.26462 3.82407L25.542 2.2694C27.3286 2.1134 28.2593 2.73607 28.958 3.28007L32.6073 5.92407C32.7633 6.00274 33.1513 6.46807 32.6846 6.46807L10.7113 7.79074L10.4393 7.8094V7.8094ZM7.99262 35.3201V12.1467C7.99262 11.1347 8.30329 10.6681 9.23396 10.5894L34.4713 9.11207C35.3273 9.03474 35.714 9.57874 35.714 10.5894V33.6081C35.714 34.6201 35.558 35.4761 34.1606 35.5534L10.01 36.9534C8.61262 37.0307 7.99262 36.5654 7.99262 35.3201V35.3201ZM31.8326 13.3894C31.9873 14.0894 31.8326 14.7894 31.1326 14.8694L29.9686 15.1001V32.2094C28.958 32.7534 28.0273 33.0641 27.25 33.0641C26.0073 33.0641 25.6966 32.6747 24.766 31.5094L17.154 19.5334V31.1201L19.562 31.6654C19.562 31.6654 19.562 33.0654 17.6193 33.0654L12.2633 33.3761C12.1073 33.0641 12.2633 32.2867 12.806 32.1321L14.2046 31.7441V16.4241L12.2633 16.2667C12.1073 15.5667 12.4953 14.5561 13.5833 14.4774L19.33 14.0907L27.25 26.2214V15.4894L25.2313 15.2574C25.0753 14.4001 25.6966 13.7774 26.4726 13.7014L31.8326 13.3894V13.3894Z" fill="black"/>
<path d="M55.3165 28.3347V17.788H55.4992L63.1045 28.3347H65.4992V12.836H62.8365V23.372H62.6539L55.0485 12.836H52.6445V28.3333H55.3179L55.3165 28.3347ZM73.0245 28.572C76.5379 28.572 78.6752 26.2733 78.6752 22.46C78.6752 18.6573 76.5272 16.348 73.0245 16.348C69.5339 16.348 67.3752 18.668 67.3752 22.46C67.3752 26.2733 69.5019 28.572 73.0245 28.572ZM73.0245 26.3373C71.1672 26.3373 70.1045 24.92 70.1045 22.46C70.1045 20.0107 71.1672 18.5827 73.0245 18.5827C74.8725 18.5827 75.9352 20.0107 75.9352 22.46C75.9352 24.92 74.8832 26.3373 73.0245 26.3373ZM81.1085 13.7067V16.66H79.2512V18.7867H81.1085V25.1987C81.1085 27.476 82.1832 28.3893 84.8792 28.3893C85.3939 28.3893 85.8885 28.336 86.2752 28.26V26.176C85.9525 26.208 85.7485 26.2293 85.3725 26.2293C84.2565 26.2293 83.7619 25.7147 83.7619 24.5547V18.7867H86.2752V16.66H83.7619V13.7053H81.1085V13.7067ZM87.8712 28.3347H90.5245V16.584H87.8712V28.3347ZM89.1925 14.6413C90.0725 14.6413 90.7819 13.9307 90.7819 13.04C90.7819 12.148 90.0739 11.428 89.1925 11.428C88.3232 11.428 87.6032 12.148 87.6032 13.04C87.6032 13.9307 88.3232 14.64 89.1925 14.64V14.6413ZM97.8032 28.572C101.315 28.572 103.453 26.2733 103.453 22.46C103.453 18.6573 101.305 16.348 97.8032 16.348C94.3112 16.348 92.1525 18.668 92.1525 22.46C92.1525 26.2733 94.2792 28.572 97.8032 28.572ZM97.8032 26.3373C95.9445 26.3373 94.8805 24.92 94.8805 22.46C94.8805 20.0107 95.9445 18.5827 97.8032 18.5827C99.6499 18.5827 100.714 20.0107 100.714 22.46C100.714 24.92 99.6605 26.3373 97.8032 26.3373ZM105.038 28.3347H107.702V21.4933C107.702 19.764 108.702 18.668 110.29 18.668C111.913 18.668 112.663 19.5707 112.663 21.364V28.3347H115.329V20.7307C115.329 17.9267 113.899 16.348 111.279 16.348C109.527 16.348 108.346 17.1533 107.787 18.464H107.605V16.584H105.038V28.3347V28.3347Z" fill="black"/>
</g>
<defs>
<clipPath id="clip0_1272_375">
<rect width="116" height="40" fill="white" transform="translate(0.0712891)"/>
</clipPath>
</defs>
</svg>
