<svg width="90" height="40" viewBox="0 0 90 40" fill="none" xmlns="http://www.w3.org/2000/svg">
<g clip-path="url(#clip0_1266_1886)">
<mask id="mask0_1266_1886" style="mask-type:alpha" maskUnits="userSpaceOnUse" x="0" y="0" width="90" height="40">
<path d="M0.640625 0.000183105H89.5241V39.9442H0.640625V0.000183105Z" fill="white"/>
</mask>
<g mask="url(#mask0_1266_1886)">
<path fill-rule="evenodd" clip-rule="evenodd" d="M79.7439 15.3238C72.3955 15.0465 70.0385 22.1868 70.0385 22.1868C69.8998 19.2059 70.1078 17.2648 70.1078 17.2648C70.5238 16.9875 76.7629 14.5612 77.1096 6.17297C77.2482 1.59758 73.4354 -1.03673 68.9986 0.419075C67.3349 8.04472 65.7404 18.4433 67.1269 29.3272C66.8496 30.1591 64.3539 36.2596 61.6503 36.2596C57.9761 36.2596 57.3522 28.7033 57.4908 23.7813C58.3227 21.9789 60.0558 17.6808 58.6 15.9477C57.9068 15.0465 56.5203 14.9078 54.4406 15.3238C54.4406 15.809 54.3019 19.0673 54.3019 19.0673C54.3019 19.0673 52.4995 15.6704 48.0628 15.6704C41.6849 15.6704 37.5255 21.8402 37.5255 28.2874C37.5255 29.3272 37.5948 30.2284 37.6641 31.1296L37.7335 31.199L37.6641 31.2683C35.931 34.4572 34.3366 36.0517 32.2569 36.0517C27.7508 36.0517 27.1962 29.1192 27.1962 29.1192C31.425 24.1279 33.7127 17.1262 33.7127 9.50053C33.7127 3.19204 30.9397 -1.45268 25.2551 0.419075C23.938 7.07419 22.2742 21.9789 23.522 28.9113C21.0264 32.2388 18.0454 34.2492 18.0454 34.2492C18.0454 34.2492 18.5307 33.4867 18.5307 31.7536C18.5307 24.1279 5.28979 26.277 5.28979 21.8402C5.28979 20.6617 6.26033 18.6513 10.1425 18.6513C13.678 18.6513 15.5498 20.5231 16.451 20.5231C18.6 20.5231 18.3227 17.8887 18.3227 17.8887C17.2829 17.1262 13.8167 15.1851 10.0732 15.2544C4.11128 15.2544 1.54629 18.8593 1.54629 22.0482C1.54629 30.3671 15.1338 27.4555 15.1338 32.4468C15.1338 35.0118 13.6087 36.4676 9.86518 36.4676C6.60695 36.4676 4.24993 33.8333 2.86345 33.8333C0.437107 33.8333 0.645079 36.329 0.645079 36.329C1.269 36.8142 5.15114 40.0031 10.2811 39.9338C14.5792 39.7952 19.7092 38.0621 24.2153 32.6548V32.5161C25.1165 35.7744 27.1269 39.9338 31.8409 39.9338C36.2777 39.9338 38.8427 34.9425 38.8427 34.9425C38.8427 34.9425 41.061 39.9338 46.1217 39.9338C49.6572 39.9338 52.4302 38.2007 54.7872 34.0413C55.8964 37.9927 58.1148 39.9338 61.5116 39.9338C65.6711 39.9338 68.0281 34.9425 68.444 33.9719C69.2066 35.4971 71.9102 39.7258 77.4562 39.9338C86.8149 40.2804 89.3799 31.8922 89.5186 27.5248C89.6572 23.296 87.2309 15.6011 79.7439 15.3238ZM71.6329 4.02393C71.6329 4.02393 73.8513 3.53866 73.782 6.10365C73.574 12.0655 70.1771 13.5213 70.1771 13.5213C70.5931 8.46067 71.6329 4.02393 71.6329 4.02393ZM26.503 24.8212C26.2257 13.7293 28.0281 4.2319 28.0281 4.2319C28.0281 4.2319 30.2465 4.30122 30.2465 10.1244C30.2465 18.7206 26.503 24.8212 26.503 24.8212ZM54.094 24.0586C54.094 31.199 51.4596 36.0517 46.607 36.0517C41.5463 36.0517 40.9224 30.0205 40.9224 28.1487C40.9224 25.7224 42.0316 19.1366 47.9934 19.1366C52.1529 19.1366 54.094 24.0586 54.094 23.9893V24.0586ZM85.7057 27.8021C85.5671 30.991 83.7647 36.4676 78.1494 36.2596C72.3262 35.9823 70.8704 30.3671 71.009 27.9407C71.2863 23.504 74.2673 18.7206 79.3972 18.9286C84.3886 19.1366 85.7751 24.6132 85.7057 27.8021Z" fill="#FF4143"/>
</g>
</g>
<defs>
<clipPath id="clip0_1266_1886">
<rect width="88.9428" height="40" fill="white" transform="translate(0.640625)"/>
</clipPath>
</defs>
</svg>
