<svg width="159" height="40" viewBox="0 0 159 40" fill="none" xmlns="http://www.w3.org/2000/svg">
<path d="M51.0887 31.4968L53.0633 26.9108C55.197 28.5032 58.0314 29.3312 60.834 29.3312C62.904 29.3312 64.2098 28.535 64.2098 27.3248C64.1779 23.949 51.8212 26.5924 51.7257 18.121C51.6938 13.8217 55.5155 10.5096 60.9295 10.5096C64.1461 10.5096 67.3626 11.3057 69.6556 13.121L67.8085 17.8025C65.7066 16.465 63.0951 15.5096 60.611 15.5096C58.9231 15.5096 57.8085 16.3057 57.8085 17.3248C57.8403 20.6369 70.2926 18.8217 70.42 26.9108C70.42 31.3057 66.6938 34.3949 61.3435 34.3949C57.4263 34.3949 53.8276 33.4713 51.0887 31.4968Z" fill="black"/>
<path d="M126.853 25.2548C125.866 26.9745 124.019 28.1529 121.885 28.1529C118.732 28.1529 116.184 25.6051 116.184 22.4522C116.184 19.2994 118.732 16.7516 121.885 16.7516C124.019 16.7516 125.866 17.9299 126.853 19.6497L132.299 16.6242C130.261 12.9936 126.344 10.5096 121.885 10.5096C115.293 10.5096 109.942 15.8599 109.942 22.4522C109.942 29.0446 115.293 34.3949 121.885 34.3949C126.375 34.3949 130.261 31.9427 132.299 28.2803L126.853 25.2548Z" fill="black"/>
<path d="M79.9741 0.605095H73.1588V33.949H79.9741V0.605095Z" fill="black"/>
<path d="M134.974 0.605095V33.949H141.789V23.949L149.878 33.949H158.605L148.318 22.0701L157.84 10.9873H149.496L141.789 20.1911V0.605095H134.974Z" fill="black"/>
<path d="M100.229 25.3185C99.2416 26.9427 97.2034 28.1529 94.9104 28.1529C91.7575 28.1529 89.2097 25.6051 89.2097 22.4522C89.2097 19.2994 91.7575 16.7516 94.9104 16.7516C97.2034 16.7516 99.2416 18.0255 100.229 19.6815V25.3185ZM100.229 10.9873V13.6943C99.1142 11.8153 96.3435 10.5096 93.4454 10.5096C87.4581 10.5096 82.7448 15.7962 82.7448 22.4204C82.7448 29.0446 87.4581 34.3949 93.4454 34.3949C96.3435 34.3949 99.1142 33.0892 100.229 31.2102V33.9172H107.044V10.9873H100.229Z" fill="black"/>
<path d="M8.95501 25.2866C8.95501 27.6115 7.07603 29.4905 4.75119 29.4905C2.42634 29.4905 0.547363 27.6115 0.547363 25.2866C0.547363 22.9618 2.42634 21.0828 4.75119 21.0828H8.95501V25.2866Z" fill="#E01E5A"/>
<path d="M11.0569 25.2866C11.0569 22.9618 12.9359 21.0828 15.2607 21.0828C17.5855 21.0828 19.4645 22.9618 19.4645 25.2866V35.7962C19.4645 38.121 17.5855 40 15.2607 40C12.9359 40 11.0569 38.121 11.0569 35.7962V25.2866Z" fill="#E01E5A"/>
<path d="M15.2607 8.40764C12.9359 8.40764 11.0569 6.52866 11.0569 4.20382C11.0569 1.87898 12.9359 0 15.2607 0C17.5855 0 19.4645 1.87898 19.4645 4.20382V8.40764H15.2607Z" fill="#36C5F0"/>
<path d="M15.2607 10.5414C17.5856 10.5414 19.4645 12.4204 19.4645 14.7452C19.4645 17.0701 17.5856 18.949 15.2607 18.949H4.71933C2.39448 18.949 0.515503 17.0701 0.515503 14.7452C0.515503 12.4204 2.39448 10.5414 4.71933 10.5414H15.2607Z" fill="#36C5F0"/>
<path d="M32.1078 14.7452C32.1078 12.4204 33.9868 10.5414 36.3116 10.5414C38.6365 10.5414 40.5154 12.4204 40.5154 14.7452C40.5154 17.0701 38.6365 18.949 36.3116 18.949H32.1078V14.7452Z" fill="#2EB67D"/>
<path d="M30.0059 14.7452C30.0059 17.0701 28.1269 18.949 25.8021 18.949C23.4773 18.949 21.5983 17.0701 21.5983 14.7452V4.20382C21.5983 1.87898 23.4773 0 25.8021 0C28.1269 0 30.0059 1.87898 30.0059 4.20382V14.7452Z" fill="#2EB67D"/>
<path d="M25.8021 31.5924C28.1269 31.5924 30.0059 33.4713 30.0059 35.7962C30.0059 38.121 28.1269 40 25.8021 40C23.4773 40 21.5983 38.121 21.5983 35.7962V31.5924H25.8021Z" fill="#ECB22E"/>
<path d="M25.8021 29.4905C23.4773 29.4905 21.5983 27.6115 21.5983 25.2866C21.5983 22.9618 23.4773 21.0828 25.8021 21.0828H36.3435C38.6683 21.0828 40.5473 22.9618 40.5473 25.2866C40.5473 27.6115 38.6683 29.4905 36.3435 29.4905H25.8021Z" fill="#ECB22E"/>
</svg>
