<svg width="160" height="40" viewBox="0 0 160 40" fill="none" xmlns="http://www.w3.org/2000/svg">
<g clip-path="url(#clip0_1266_1872)">
<path fill-rule="evenodd" clip-rule="evenodd" d="M69.3174 24.1012C69.3174 24.7487 69.4261 25.3762 69.6424 25.975C69.8516 26.5692 70.1782 27.1152 70.6027 27.5805C71.0273 28.0459 71.5411 28.4211 72.1136 28.6837C72.7049 28.9612 73.3761 29.1 74.1261 29.1C74.8749 29.1 75.5461 28.9612 76.1374 28.6837C76.712 28.4183 77.2279 28.041 77.6549 27.5737C78.0736 27.1112 78.3924 26.5787 78.6086 25.9737C78.8211 25.3762 78.9299 24.7487 78.9299 24.1012C78.9312 23.4624 78.8226 22.8282 78.6086 22.2262C78.3989 21.6362 78.0748 21.0933 77.6549 20.6287C77.2277 20.1617 76.7119 19.7844 76.1374 19.5187C75.5057 19.2321 74.8184 19.0891 74.1249 19.1C73.3774 19.1 72.7049 19.2412 72.1136 19.5187C71.5415 19.7816 71.0279 20.1566 70.6032 20.6214C70.1785 21.0862 69.8514 21.6315 69.6411 22.225C69.4259 22.8271 69.3164 23.4619 69.3174 24.1012ZM65.3124 24.3012C65.3124 22.9737 65.5486 21.7687 66.0211 20.6862C66.4659 19.6409 67.1177 18.6965 67.9374 17.91C68.762 17.1295 69.7356 16.5232 70.7999 16.1275C71.9269 15.7056 73.1215 15.493 74.3249 15.5C75.5661 15.5 76.7411 15.71 77.8461 16.1275C78.9112 16.5238 79.8859 17.1299 80.7124 17.91C81.5313 18.6972 82.183 19.6414 82.6286 20.6862C83.0999 21.7687 83.3361 22.9737 83.3361 24.3012C83.3361 25.6287 83.0999 26.8337 82.6286 27.9162C82.183 28.9611 81.5312 29.9053 80.7124 30.6925C79.8865 31.4728 78.9116 32.0782 77.8461 32.4725C76.7207 32.8955 75.5271 33.1082 74.3249 33.1C73.1214 33.1084 71.9265 32.8957 70.7999 32.4725C69.7352 32.0788 68.7614 31.4732 67.9374 30.6925C67.1177 29.906 66.4659 28.9616 66.0211 27.9162C65.5486 26.8337 65.3124 25.6287 65.3124 24.3012ZM89.3436 24.1012C89.3436 24.7487 89.4524 25.3762 89.6686 25.975C89.878 26.5691 90.2047 27.115 90.6292 27.5803C91.0537 28.0456 91.5675 28.4209 92.1399 28.6837C92.7311 28.9612 93.4024 29.1 94.1524 29.1C94.9011 29.1 95.5724 28.9612 96.1636 28.6837C96.738 28.4185 97.2535 28.0411 97.6799 27.5737C98.1015 27.1093 98.4262 26.5653 98.6349 25.9737C98.8474 25.3762 98.9561 24.7487 98.9561 24.1012C98.9575 23.4624 98.8488 22.8282 98.6349 22.2262C98.4251 21.636 98.1005 21.093 97.6799 20.6287C97.2534 20.1615 96.7379 19.7841 96.1636 19.5187C95.532 19.2321 94.8447 19.0891 94.1511 19.1C93.4024 19.1 92.7311 19.2412 92.1399 19.5187C91.5681 19.782 91.0549 20.1571 90.6305 20.6219C90.206 21.0867 89.879 21.6318 89.6686 22.225C89.4524 22.8275 89.3436 23.455 89.3436 24.1012ZM99.3949 29.8137H99.3249C98.7211 30.8225 97.9124 31.5562 96.8899 32.0137C95.8495 32.4748 94.7228 32.7088 93.5849 32.7C92.2849 32.7 91.1324 32.4787 90.1224 32.0312C89.1403 31.6037 88.2576 30.9772 87.5299 30.1912C86.8008 29.3971 86.2438 28.4608 85.8936 27.4412C85.5162 26.3474 85.3284 25.1971 85.3386 24.04C85.3386 22.8262 85.5336 21.69 85.9311 20.6362C86.3005 19.6227 86.8606 18.6892 87.5811 17.8862C88.2968 17.1028 89.1678 16.477 90.1386 16.0487C91.1684 15.5948 92.2833 15.3659 93.4086 15.3775C94.1986 15.3775 94.8961 15.4587 95.4986 15.6175C96.1024 15.78 96.6336 15.9837 97.0986 16.2387C97.5624 16.4912 97.9574 16.7587 98.2824 17.045C98.6049 17.3325 98.8749 17.6125 99.0811 17.8862H99.1861V8.7975C99.1861 8.385 99.5161 7.9 100.096 7.9H102.455C103 7.9 103.362 8.3525 103.362 8.7975V31.39C103.362 31.965 102.87 32.2887 102.455 32.2887H100.307C100.068 32.2878 99.8389 32.1934 99.6684 32.0257C99.4979 31.858 99.3998 31.6303 99.3949 31.3912V29.8137ZM110.171 24.1012C110.171 24.7487 110.28 25.3762 110.496 25.975C110.705 26.5694 111.032 27.1157 111.457 27.5811C111.881 28.0465 112.396 28.4215 112.969 28.6837C113.559 28.9612 114.231 29.1 114.98 29.1C115.729 29.1 116.4 28.9612 116.991 28.6837C117.566 28.4185 118.082 28.0411 118.509 27.5737C118.927 27.1112 119.246 26.5787 119.462 25.9737C119.676 25.3762 119.784 24.7487 119.784 24.1012C119.785 23.4624 119.676 22.8282 119.462 22.2262C119.253 21.6361 118.929 21.0932 118.509 20.6287C118.082 20.1615 117.566 19.7841 116.991 19.5187C116.359 19.2321 115.672 19.0891 114.979 19.1C114.231 19.1 113.559 19.2412 112.969 19.5187C112.396 19.7814 111.883 20.1562 111.458 20.6211C111.033 21.086 110.706 21.6314 110.496 22.225C110.28 22.8275 110.171 23.455 110.171 24.1012ZM106.166 24.3012C106.166 22.9737 106.402 21.7687 106.875 20.6862C107.32 19.6409 107.971 18.6965 108.791 17.91C109.616 17.1295 110.589 16.5232 111.654 16.1275C112.781 15.7056 113.975 15.493 115.179 15.5C116.42 15.5 117.595 15.71 118.699 16.1275C119.764 16.5238 120.738 17.1299 121.565 17.91C122.384 18.6972 123.035 19.6414 123.481 20.6862C123.954 21.7687 124.19 22.9737 124.19 24.3012C124.19 25.6287 123.952 26.8337 123.481 27.9162C123.035 28.9611 122.384 29.9053 121.565 30.6925C120.739 31.4728 119.764 32.0782 118.699 32.4725C117.574 32.8954 116.38 33.1081 115.179 33.1C113.975 33.1084 112.78 32.8957 111.654 32.4725C110.589 32.0788 109.615 31.4732 108.791 30.6925C107.971 29.906 107.32 28.9616 106.875 27.9162C106.402 26.8337 106.166 25.6287 106.166 24.3012ZM126.192 9.9C126.192 9.255 126.435 8.69625 126.919 8.21625C127.406 7.73875 128.019 7.5 128.761 7.5C129.505 7.5 130.131 7.7275 130.637 8.18375C131.144 8.63875 131.4 9.21125 131.4 9.9C131.4 10.5887 131.144 11.1612 130.637 11.6163C130.131 12.0725 129.505 12.3 128.762 12.3C128.019 12.3 127.406 12.0613 126.919 11.5813C126.435 11.1037 126.194 10.545 126.194 9.9H126.192ZM143.389 20.5637C142.977 20.5637 142.675 20.2475 142.622 20.11C142.28 19.1975 141.187 18.8537 140.305 18.8537C138.914 18.8537 137.822 19.5087 137.822 20.635C137.822 21.725 138.879 21.9475 139.531 22.1475C140.247 22.3687 141.616 22.6725 142.37 22.8525C143.117 23.0289 143.839 23.299 144.519 23.6562C146.709 24.8112 147.02 26.6287 147.02 27.7237C147.02 31.7612 143.082 33.1 140.35 33.1C138.242 33.1 134.284 32.775 133.415 28.6937C133.33 28.2975 133.677 27.6862 134.312 27.6862H136.587C137.037 27.6862 137.339 28.0187 137.426 28.2787C137.72 29.1 138.65 29.7187 140.217 29.7187C141.9 29.7187 142.895 29.0412 142.895 28.14C142.895 27.5575 142.57 27.0375 142.145 26.7462C140.869 25.8662 137.714 25.7675 136.001 24.8412C135.345 24.4875 133.699 23.6763 133.699 20.9137C133.699 17.1062 137.106 15.5 140.099 15.5C144.514 15.5 146.134 18.3337 146.316 19.3837C146.417 19.9637 146.097 20.5637 145.456 20.5637H143.389ZM147.421 18.2812V16.5625C147.421 16.1512 147.749 15.6587 148.331 15.6587H150.58V11.4362C150.58 10.985 150.891 10.71 151.126 10.6088L153.527 9.575C154.23 9.29125 154.797 9.86125 154.797 10.41V15.6587H158.519C159.094 15.6587 159.436 16.1525 159.436 16.5625V18.2837C159.436 18.7837 158.984 19.19 158.52 19.19H154.797V26.4662C154.797 27.2975 154.774 27.9475 155.096 28.4287C155.391 28.8687 155.825 29.0312 156.694 29.0312C156.944 29.0312 157.165 28.99 157.352 28.9275C157.554 28.8517 157.775 28.8503 157.978 28.9233C158.18 28.9964 158.35 29.1393 158.456 29.3262C158.731 29.8487 159.044 30.4237 159.265 30.8362C159.321 30.9437 159.356 31.0613 159.366 31.1822C159.377 31.303 159.363 31.4248 159.327 31.5404C159.29 31.6561 159.231 31.7633 159.152 31.8559C159.074 31.9485 158.978 32.0247 158.87 32.08C158.156 32.4225 157.167 32.7 155.811 32.7C154.687 32.7 154.051 32.5787 153.34 32.3362C152.64 32.083 152.019 31.6507 151.539 31.0825C151.126 30.5875 150.922 29.9225 150.771 29.1837C150.616 28.4462 150.58 27.5487 150.58 26.5775V19.19H148.337C147.75 19.19 147.421 18.6875 147.421 18.2812ZM52.4961 18.2812V16.5625C52.4961 16.1512 52.8149 15.6587 53.3836 15.6587H55.8849V11.4362C55.8849 10.985 56.1874 10.71 56.4174 10.6088L58.7549 9.575C59.4399 9.29125 59.9924 9.86125 59.9924 10.41V15.6587H63.6174C64.1774 15.6587 64.5111 16.1525 64.5111 16.5625V18.2837C64.5056 18.52 64.4102 18.7453 64.2444 18.9136C64.0785 19.082 63.8548 19.1808 63.6186 19.19H59.9936V26.4662C59.9936 27.2975 59.9699 27.9475 60.2836 28.4287C60.5711 28.8687 60.9936 29.0312 61.8399 29.0312C62.0824 29.0312 62.2986 28.99 62.4824 28.9275C62.6795 28.8526 62.897 28.8518 63.0947 28.9251C63.2924 28.9984 63.4568 29.141 63.5574 29.3262C63.8236 29.8487 64.1299 30.4237 64.3449 30.8362C64.5799 31.2887 64.3899 31.8687 63.9586 32.08C63.2636 32.4225 62.3011 32.7 60.9811 32.7C59.8861 32.7 59.2661 32.5787 58.5736 32.3362C57.8883 32.0803 57.2829 31.6478 56.8186 31.0825C56.4174 30.5875 56.2186 29.9225 56.0711 29.1837C55.9211 28.4462 55.8849 27.5487 55.8849 26.5775V19.19H53.3886C52.8149 19.19 52.4949 18.6875 52.4949 18.2812H52.4961ZM127.865 32.3H130.127C130.607 32.3 130.999 31.9 130.999 31.4087V16.7912C131.001 16.5579 130.91 16.3333 130.747 16.1663C130.584 15.9994 130.362 15.9036 130.129 15.9H127.865C127.631 15.9033 127.409 15.9989 127.245 16.1659C127.082 16.3329 126.992 16.5577 126.994 16.7912V31.4087C126.994 31.8987 127.385 32.3 127.865 32.3Z" fill="#E44332"/>
<path fill-rule="evenodd" clip-rule="evenodd" d="M5.85122 0C4.52547 0.00296448 3.25478 0.530502 2.31675 1.46736C1.37872 2.40423 0.849591 3.67426 0.844971 5L0.844971 35C0.844971 37.75 3.09747 40 5.85122 40H35.8912C38.645 40 40.8975 37.75 40.8975 35V5C40.8975 2.25 38.645 0 35.8912 0H5.85122Z" fill="#E44332"/>
<path fill-rule="evenodd" clip-rule="evenodd" d="M9.33497 18.9463L25.4162 9.5975C25.76 9.3975 25.7775 8.78125 25.3912 8.56C25.0062 8.3375 24.275 7.9175 24.0025 7.75625C23.8123 7.65137 23.5982 7.59762 23.3811 7.60025C23.164 7.60288 22.9513 7.6618 22.7637 7.77125C22.5712 7.88375 9.72247 15.3463 9.29372 15.5913C8.77872 15.8863 8.14372 15.8913 7.63122 15.5913L0.844971 11.6088V14.9938C2.49622 15.9663 6.60372 18.3813 7.59872 18.95C8.19247 19.2875 8.76122 19.28 9.33497 18.9463Z" fill="white"/>
<path fill-rule="evenodd" clip-rule="evenodd" d="M9.33497 25.3463L25.4162 15.9975C25.76 15.7975 25.7775 15.1813 25.3912 14.96C25.0062 14.7375 24.275 14.3175 24.0025 14.1563C23.8123 14.0514 23.5982 13.9976 23.3811 14.0003C23.164 14.0029 22.9513 14.0618 22.7637 14.1713C22.5712 14.2838 9.72247 21.7463 9.29372 21.9913C8.77872 22.2863 8.14372 22.2913 7.63122 21.9913L0.844971 18.0088V21.3938C2.49622 22.3663 6.60372 24.7813 7.59872 25.35C8.19247 25.6875 8.76122 25.68 9.33497 25.3463Z" fill="white"/>
<path fill-rule="evenodd" clip-rule="evenodd" d="M9.33497 32.1462L25.4162 22.7975C25.76 22.5975 25.7775 21.9812 25.3912 21.76C25.0062 21.5375 24.275 21.1175 24.0025 20.9562C23.8123 20.8514 23.5982 20.7976 23.3811 20.8002C23.164 20.8029 22.9513 20.8618 22.7637 20.9712C22.5712 21.0837 9.72247 28.5463 9.29372 28.7913C8.77872 29.0863 8.14372 29.0913 7.63122 28.7913L0.844971 24.8087V28.1937C2.49622 29.1663 6.60372 31.5812 7.59872 32.15C8.19247 32.4875 8.76122 32.48 9.33497 32.1462Z" fill="white"/>
</g>
<defs>
<clipPath id="clip0_1266_1872">
<rect width="158.75" height="40" fill="white" transform="translate(0.844971)"/>
</clipPath>
</defs>
</svg>
