<svg width="202" height="40" viewBox="0 0 202 40" fill="none" xmlns="http://www.w3.org/2000/svg">
<g clip-path="url(#clip0_1267_362)">
<path d="M124.546 31.211C123.999 31.2832 123.448 31.3184 122.896 31.3163C121.063 31.3163 119.685 30.8845 118.765 30.021C117.844 29.1575 117.378 27.6581 117.368 25.5228V12.5039H112.987V10.2528H117.368V4.68164H119.915V10.2528H125.966V12.5039H119.915V25.6477C119.915 26.7594 120.138 27.5983 120.583 28.1328C121.027 28.6673 121.835 28.9441 123.002 28.9441C123.559 28.9484 124.117 28.9212 124.671 28.8624C125.143 28.8077 125.615 28.7375 126.091 28.6516V30.9067C125.578 31.0428 125.057 31.1469 124.531 31.2186" fill="#E57CD8"/>
<path d="M55.6449 14.0449C56.0914 13.6492 56.672 13.4388 57.2682 13.4567C57.8643 13.4746 58.4314 13.7194 58.8531 14.1412C59.2749 14.563 59.5198 15.1299 59.5376 15.7262C59.5555 16.3224 59.3451 16.903 58.9494 17.3494C58.4951 17.756 57.9069 17.9808 57.2972 17.9808C56.6874 17.9808 56.0992 17.756 55.6449 17.3494C55.2384 16.8951 55.0135 16.3068 55.0135 15.6971C55.0135 15.0875 55.2384 14.4992 55.6449 14.0449ZM68.7573 34.2814C68.6949 32.51 68.1761 30.6375 66.8457 29.4045C65.3592 28.0235 63.2096 27.3916 61.2122 27.3916H52.2898C51.8765 27.4079 51.4727 27.2633 51.1635 26.9884C50.8543 26.7133 50.6637 26.3292 50.6318 25.9167C50.6321 25.5908 50.7402 25.2739 50.9392 25.0157C51.138 24.7575 51.4169 24.5724 51.732 24.4888C51.732 24.4888 51.8841 24.4498 52.048 24.3992C53.6733 25.1506 55.4463 25.5292 57.2367 25.5071C59.9676 25.5071 62.7337 24.7035 64.7469 22.819C65.6847 21.9102 66.4247 20.8171 66.92 19.6086C67.4155 18.4002 67.6559 17.1024 67.6259 15.7966C67.6561 14.4909 67.4159 13.1929 66.9204 11.9844C66.4249 10.7759 65.6849 9.68297 64.7469 8.77418C64.1759 8.24062 63.5386 7.78299 62.8508 7.41262C64.739 7.84956 66.6935 7.30726 68.0355 4.98987L64.2514 2.25891L61.0951 6.65573C59.8473 6.26156 58.5455 6.06413 57.2367 6.07054C54.5059 6.07054 51.7359 6.87813 49.7227 8.76248C48.7847 9.67126 48.0447 10.7642 47.5492 11.9727C47.0537 13.1812 46.8135 14.4791 46.8435 15.7849C46.8135 17.0907 47.0537 18.3886 47.5492 19.5971C48.0447 20.8057 48.7847 21.8986 49.7227 22.8075C49.8906 22.9673 50.07 23.1155 50.2494 23.2639L49.8594 23.4588C48.9349 23.9926 48.0959 24.662 47.3704 25.4447C45.8027 27.03 44.9106 29.1612 44.8812 31.3904C44.8812 31.3904 44.729 37.0318 51.2014 37.0318H55.8829C56.9637 37.0318 58.06 37.7184 58.06 38.7951C58.0604 39.1716 57.952 39.5402 57.7478 39.8563H66.7208C68.0706 38.3167 68.7969 36.3284 68.7573 34.2814Z" fill="#E57CD8"/>
<path d="M78.3821 14.0449C78.7713 13.622 79.2962 13.3484 79.8658 13.2713C80.4354 13.1943 81.014 13.3188 81.5017 13.6231C81.9893 13.9275 82.3552 14.3927 82.5364 14.9383C82.7173 15.4839 82.7021 16.0755 82.493 16.611C82.2842 17.1465 81.8946 17.5922 81.392 17.871C80.8893 18.1498 80.305 18.2442 79.7401 18.1379C79.1752 18.0316 78.6652 17.7312 78.2981 17.2888C77.9313 16.8463 77.7305 16.2895 77.7305 15.7147C77.7219 15.4069 77.7752 15.1006 77.887 14.8138C77.9989 14.527 78.1671 14.2655 78.3821 14.0449ZM94.2487 34.2657C94.1862 32.4945 93.6673 30.6218 92.337 29.389C90.8507 28.0079 88.7011 27.3759 86.7034 27.3759L76.365 27.3096C76.2219 27.323 76.0775 27.3069 75.9411 27.2624C75.8044 27.218 75.6783 27.1461 75.5705 27.051C75.4626 26.9561 75.3754 26.84 75.3142 26.71C75.2528 26.58 75.2187 26.4388 75.2142 26.2951C75.2142 25.7959 75.4638 25.0545 76.0879 24.9298C77.3242 25.3149 78.6126 25.5071 79.9073 25.4994C82.6383 25.4994 85.4044 24.6957 87.4213 22.8114C88.3593 21.9024 89.0993 20.8094 89.5946 19.6009C90.0901 18.3924 90.3305 17.0946 90.3005 15.7888C90.3307 14.483 90.0905 13.1851 89.595 11.9766C89.0995 10.7681 88.3595 9.67517 87.4213 8.76638C86.8524 8.2363 86.2177 7.78134 85.533 7.41262C87.4252 7.84956 89.376 7.30726 90.7219 4.98985L86.9336 2.25891L83.7775 6.65573C82.5295 6.26156 81.2277 6.06413 79.9191 6.07054C77.1881 6.07054 74.4183 6.87813 72.4052 8.76248C71.467 9.67126 70.727 10.7642 70.2315 11.9727C69.736 13.1812 69.4958 14.4791 69.526 15.7849C69.4958 17.0907 69.736 18.3886 70.2315 19.5971C70.727 20.8057 71.467 21.8986 72.4052 22.8075C72.9815 23.3424 73.6238 23.8014 74.3168 24.1729C73.8136 24.5579 73.3426 24.9833 72.9085 25.4447C71.3409 27.03 70.4487 29.1612 70.4193 31.3904C70.4193 31.3904 70.2477 37.02 76.7162 37.02H81.3977C82.4783 37.02 83.5746 37.7067 83.5746 38.7835C83.5752 39.1598 83.4668 39.5284 83.2624 39.8447H92.2356C93.5868 38.3055 94.3144 36.3173 94.276 34.2696" fill="#E57CD8"/>
<path d="M105.086 31.3904V22.9869C103.159 23.2325 102.488 21.871 102.488 20.5212V0H92.9182V22.0543C92.9182 24.7853 93.3084 27.0755 94.311 28.5151C95.8286 30.6998 97.8808 32.1355 101.965 32.1512C103.049 32.1124 104.112 31.8465 105.086 31.3708" fill="#E57CD8"/>
<path d="M34.5311 21.1728C34.0328 21.7259 33.3566 22.0871 32.6197 22.1937C31.8828 22.3004 31.1321 22.1459 30.4972 21.7567C29.8624 21.3677 29.384 20.7686 29.1448 20.0635C28.9056 19.3585 28.9207 18.5919 29.1874 17.8969C29.4542 17.2018 29.956 16.6221 30.6056 16.2583C31.2552 15.8945 32.0117 15.7695 32.7436 15.9052C33.4758 16.0408 34.1372 16.4284 34.6134 17.0008C35.0895 17.5731 35.3503 18.2941 35.3505 19.0387C35.3613 19.4308 35.2944 19.8212 35.1538 20.1875C35.0132 20.5537 34.8017 20.8884 34.5311 21.1728ZM41.6628 9.7534C39.1932 7.23313 35.8109 6.15244 32.4519 6.15244C29.0926 6.15244 25.7064 7.22923 23.2368 9.7534C20.8336 12.2074 19.7256 15.6406 19.7256 19.1518C19.7256 22.663 20.8532 26.1002 23.2368 28.5541C25.7064 31.0743 29.0889 32.1551 32.4519 32.1551C35.8148 32.1551 39.1932 31.0743 41.6628 28.5541C44.0699 26.1002 45.174 22.6669 45.174 19.1518C45.174 15.6367 44.0505 12.2074 41.6628 9.7534Z" fill="#E57CD8"/>
<path d="M16.2574 23.018C14.6657 23.018 14.0141 22.5304 13.425 21.7814C13.0042 21.1525 12.8039 20.402 12.8555 19.6473V15.3011H18.1964V7.49841H12.8555V0H6.02814V2.80508C6.02814 5.92618 3.66004 8.43084 0.737956 8.43084C0.522683 8.43041 0.307664 8.41608 0.0942383 8.38792V15.3011H3.67955V22.2378C3.67955 24.9686 4.17112 27.0794 5.15816 28.5151C6.68357 30.7076 8.36894 32.1433 12.4926 32.1433C14.47 32.1953 16.4295 31.7571 18.1964 30.8676V22.698C17.5712 22.9233 16.9102 23.0331 16.2457 23.022" fill="#E57CD8"/>
<path d="M134.69 10.838C135.852 9.96006 137.279 9.50457 138.735 9.54665C139.421 9.55712 140.105 9.6263 140.78 9.75343V12.4259C140.422 12.3455 140.06 12.2895 139.695 12.2581C139.364 12.2308 139.028 12.2152 138.696 12.2152C137.628 12.1784 136.569 12.4233 135.626 12.9252C134.815 13.3894 134.134 14.0494 133.644 14.8447C133.115 15.7303 132.755 16.7067 132.583 17.7239C132.368 18.8937 132.264 20.081 132.271 21.2702V30.9106H129.723V10.046H132.185V14.8252C132.743 13.0423 133.578 11.7041 134.69 10.8575" fill="#E57CD8"/>
<path d="M149.281 21.1025C147.697 21.269 146.571 21.7216 145.902 22.4602C145.251 23.1553 144.892 24.0745 144.9 25.0272C144.876 25.5614 144.97 26.0943 145.176 26.5878C145.382 27.0814 145.694 27.5237 146.09 27.8831C146.87 28.5931 148.031 28.948 149.573 28.948C150.645 28.9692 151.708 28.7631 152.694 28.3433C153.551 27.9696 154.327 27.4314 154.977 26.7594C155.595 26.1172 156.079 25.357 156.397 24.5239C156.713 23.7131 156.876 22.8506 156.877 21.9802V20.287L149.281 21.1025ZM143.858 12.5936C144.272 11.9565 144.811 11.4097 145.442 10.9862C146.182 10.4935 147.001 10.1331 147.865 9.92117C148.97 9.64762 150.105 9.51652 151.243 9.53103C154.024 9.53103 156.082 10.1709 157.419 11.4505C158.756 12.7301 159.423 14.6496 159.42 17.2089V30.9106H156.877V26.4435C156.305 27.9476 155.257 29.2233 153.892 30.0757C152.492 30.9247 150.879 31.359 149.242 31.328C148.212 31.3463 147.188 31.1837 146.214 30.848C145.402 30.5653 144.657 30.1176 144.026 29.5333C143.438 28.9712 142.981 28.2867 142.688 27.528C142.379 26.7306 142.225 25.8821 142.231 25.0272C142.231 23.0792 142.863 21.5902 144.127 20.5602C145.504 19.4902 147.167 18.8522 148.906 18.7265L155.831 18.0594C156.529 17.9736 156.877 17.6693 156.877 17.1816V16.4325C156.909 15.813 156.81 15.1937 156.587 14.6149C156.364 14.0361 156.021 13.5109 155.581 13.0735C154.718 12.2516 153.314 11.8406 151.368 11.8406C147.833 11.8406 145.789 13.1489 145.235 15.7654L142.98 14.5521C143.175 13.862 143.47 13.2046 143.858 12.6014" fill="#E57CD8"/>
<path d="M163.169 16.14C163.66 14.84 164.411 13.6543 165.378 12.656C166.357 11.6543 167.538 10.8712 168.842 10.3581C170.267 9.80371 171.784 9.52822 173.313 9.54665C174.702 9.52738 176.082 9.76822 177.382 10.2567C178.572 10.7177 179.657 11.4129 180.573 12.301L178.946 14.3024C178.163 13.5941 177.266 13.023 176.293 12.6131C175.304 12.2033 174.243 11.9976 173.172 12.0084C172.045 11.9959 170.925 12.2012 169.876 12.6131C168.907 12.9939 168.027 13.5688 167.289 14.3024C166.541 15.0618 165.965 15.9733 165.6 16.9748C165.182 18.0976 164.976 19.2881 164.991 20.4861C164.975 21.6751 165.182 22.8569 165.6 23.97C165.972 24.9671 166.547 25.8759 167.289 26.6385C168.022 27.3843 168.903 27.9679 169.876 28.3512C170.911 28.7602 172.016 28.9655 173.13 28.9559C174.255 28.9651 175.37 28.7449 176.407 28.3083C177.407 27.8875 178.33 27.302 179.138 26.5761L180.698 28.5814C179.756 29.4481 178.668 30.1404 177.483 30.6257C176.119 31.1698 174.66 31.4351 173.192 31.4059C171.664 31.4277 170.147 31.152 168.725 30.5945C167.443 30.0834 166.279 29.3161 165.303 28.3394C164.347 27.3577 163.608 26.1853 163.134 24.8985C162.625 23.4959 162.373 22.0132 162.389 20.5212C162.375 19.025 162.64 17.5393 163.169 16.14Z" fill="#E57CD8"/>
<path d="M183.757 3.43321V30.9106H186.304V24.6918L190.1 20.8957L197.735 30.9106H201.075L191.813 19.144L200.865 10.046H197.279L186.304 21.438V3.43321H183.757Z" fill="#E57CD8"/>
</g>
<defs>
<clipPath id="clip0_1267_362">
<rect width="200.98" height="40" fill="white" transform="translate(0.0942383)"/>
</clipPath>
</defs>
</svg>
