<svg width="179" height="40" viewBox="0 0 179 40" fill="none" xmlns="http://www.w3.org/2000/svg">
<g clip-path="url(#clip0_1267_344)">
<path d="M115.397 27.6847C111.687 27.6847 109.783 24.6307 109.783 20.8796C109.783 17.1287 111.654 14.2407 115.397 14.2407C119.206 14.2407 121.011 17.2614 121.011 20.8796C120.978 24.6971 119.073 27.6847 115.397 27.6847ZM79.1057 14.2407C81.2773 14.2407 82.1799 15.5021 82.1799 16.5975C82.1799 19.2531 79.4729 20.4149 73.8257 20.5809C73.8257 17.2946 75.6969 14.2407 79.1057 14.2407ZM55.0449 27.6847C51.5361 27.6847 50.0657 24.8299 50.0657 20.8796C50.0657 16.9627 51.5695 14.2407 55.0449 14.2407C58.5871 14.2407 60.258 17.0623 60.258 20.8796C60.258 24.8631 58.5203 27.6847 55.0449 27.6847ZM25.3702 10.3569H19.8897L28.9793 31.2033C27.2416 35.054 26.3059 36.0166 25.1028 36.0166C23.833 36.0166 22.63 34.9876 21.7611 34.0913L19.3551 37.278C20.9925 39.0041 23.2315 40 25.5373 40C28.4112 40 30.6167 38.3402 31.8866 35.3527L42.3797 10.3236H36.9995L31.5191 25.2614L25.3702 10.3569ZM170.535 14.2407C173.209 14.2407 173.744 16.0664 173.744 20.3486V31.6017H178.489V17.3942C178.489 12.2822 174.98 10.0581 171.738 10.0581C168.865 10.0581 166.225 11.8506 164.754 15.1701C163.919 11.9834 161.245 10.0581 158.138 10.0581C155.431 10.0581 152.724 11.7842 151.254 15.0041V10.3569H146.509V31.5684H151.254V22.5063C151.254 17.9253 153.66 14.2407 156.935 14.2407C159.608 14.2407 160.109 16.0664 160.109 20.3486V31.6017H164.855L164.821 22.5063C164.821 17.9253 167.261 14.2407 170.535 14.2407ZM132.671 10.3569H130.268V31.5684H135.013V23.4357C135.013 18.2905 137.285 14.8049 140.661 14.8049C141.529 14.8049 142.264 14.8382 143.066 15.1701L143.802 10.1577C143.2 10.0913 142.666 10.0249 142.13 10.0249C138.789 10.0249 136.383 12.3153 134.979 15.2697V10.3569H132.671ZM115.397 10.0249C109.114 10.0249 104.87 14.8049 104.87 20.8465C104.87 27.1204 109.181 31.8008 115.397 31.8008C121.713 31.8008 126.023 26.9876 126.023 20.8465C125.99 14.7718 121.613 10.0249 115.397 10.0249ZM79.3726 27.6847C76.8999 27.6847 75.062 26.4233 74.2933 23.8672C80.5755 23.6017 86.7246 22.0747 86.7246 16.5311C86.7246 13.3444 83.5835 10.0581 79.0722 10.0581C72.99 10.0581 68.8797 15.0041 68.8797 20.8796C68.8797 27.0207 72.9232 31.834 78.9719 31.834C83.182 31.834 85.8555 30.1411 87.961 27.6847L85.6555 24.5643C83.2155 27.054 81.7122 27.6847 79.3726 27.6847ZM55.9806 10.0249C53.5746 10.0249 51.1685 11.4191 50.2328 13.61V10.3569H45.4875V39.9004H50.2328V29.3444C51.2353 30.8713 53.5411 31.8672 55.5796 31.8672C61.8955 31.8672 65.2372 27.1867 65.2372 20.8796C65.2038 14.639 61.9289 10.0249 55.9806 10.0249ZM22.6968 1.85892H0.307129V6.47303H9.06247V31.5684H14.0417V6.47303H22.6968V1.85892ZM93.2409 10.3569H90.4002V14.6058H93.2409V31.5684H97.9864V14.6058H102.598V10.3569H97.9864V7.03735C97.9864 4.91287 98.8555 4.18257 100.827 4.18257C101.562 4.18257 102.23 4.38175 103.133 4.68049L104.202 0.697095C103.333 0.19917 101.595 0 100.459 0C95.9144 0 93.2409 2.72199 93.2409 7.43571V10.3569Z" fill="#262627"/>
</g>
<defs>
<clipPath id="clip0_1267_344">
<rect width="178.182" height="40" fill="white" transform="translate(0.307129)"/>
</clipPath>
</defs>
</svg>
