<svg width="88" height="40" viewBox="0 0 88 40" fill="none" xmlns="http://www.w3.org/2000/svg">
<g clip-path="url(#clip0_1266_1762)">
<path d="M52.5169 17.3956H50.3399C50.2952 17.2175 50.2619 17.0108 50.2397 16.7762C50.1954 16.3197 50.1954 15.8599 50.2397 15.4033C50.2619 15.1693 50.2952 14.9628 50.3399 14.7836H55.7653V31.9631C55.4937 32.0104 55.2198 32.0437 54.9448 32.0631C54.6717 32.084 54.3978 32.0951 54.1239 32.0962C53.8614 32.0946 53.5991 32.0835 53.3375 32.0631C53.0626 32.0436 52.7889 32.0101 52.5174 31.9626V17.3949V17.3953L52.5169 17.3956ZM71.4037 21.716C71.4037 21.0907 71.3199 20.4936 71.1529 19.9238C70.9852 19.3549 70.7389 18.8583 70.4161 18.4339C70.0917 18.0101 69.679 17.6693 69.1766 17.4128C68.6744 17.156 68.0771 17.0274 67.385 17.0274C66.0233 17.0274 64.9794 17.4411 64.254 18.2667C63.5284 19.0926 63.0877 20.2423 62.9312 21.716H71.4039H71.4037ZM62.8979 24.1939C62.9426 26.0692 63.4282 27.4424 64.3546 28.3127C65.2807 29.1832 66.6484 29.6192 68.4568 29.6192C70.0414 29.6192 71.5485 29.3397 72.9773 28.7817C73.1555 29.1165 73.3005 29.524 73.4123 30.004C73.5219 30.4714 73.5892 30.9476 73.6131 31.4271C72.8769 31.7404 72.0669 31.9738 71.1857 32.1305C70.3033 32.2863 69.3267 32.3649 68.2558 32.3649C66.6924 32.3649 65.3527 32.1466 64.2371 31.7116C63.1206 31.2758 62.1997 30.6618 61.4741 29.8697C60.7487 29.0774 60.2182 28.1396 59.8834 27.0566C59.5487 25.9742 59.3808 24.7852 59.3808 23.4903C59.3808 22.2178 59.5426 21.0288 59.8664 19.9235C60.1896 18.819 60.6874 17.8589 61.3564 17.044C62.0264 16.2288 62.869 15.5817 63.8849 15.1017C64.9003 14.6217 66.1001 14.3813 67.4849 14.3813C68.668 14.3813 69.7061 14.5825 70.5993 14.9843C71.4919 15.386 72.24 15.9387 72.843 16.6419C73.4456 17.3453 73.9033 18.1825 74.2159 19.1532C74.5282 20.1247 74.6851 21.1794 74.6851 22.3183C74.6851 22.6309 74.6732 22.96 74.651 23.3059C74.6327 23.6019 74.6105 23.8977 74.5843 24.1932H62.8972L62.8975 24.1937L62.8979 24.1939ZM78.3372 14.7836C78.5702 14.7413 78.8048 14.7078 79.0404 14.6833C79.2631 14.6615 79.498 14.6501 79.7436 14.6501C79.9892 14.6501 80.2344 14.6615 80.4804 14.6833C80.7258 14.706 80.9492 14.7396 81.1503 14.7836C81.2166 15.1186 81.2837 15.56 81.3504 16.1064C81.4173 16.6535 81.4514 17.1163 81.4514 17.4961C81.92 16.7373 82.5396 16.0783 83.3096 15.52C84.0799 14.9623 85.0676 14.6828 86.273 14.6828C86.4516 14.6828 86.6357 14.6887 86.8255 14.6999C86.988 14.7086 87.1504 14.7251 87.3111 14.7497C87.3555 14.9509 87.3897 15.1633 87.4117 15.3862C87.4337 15.6093 87.4449 15.8438 87.4449 16.0893C87.4449 16.3574 87.4283 16.6367 87.395 16.9263C87.3628 17.2062 87.3237 17.4853 87.2779 17.7633C87.097 17.7188 86.9114 17.6963 86.7251 17.6964H86.2727C85.6701 17.6964 85.0951 17.7803 84.5482 17.9474C84.0007 18.1151 83.5099 18.411 83.0746 18.8348C82.6397 19.2592 82.2933 19.8398 82.0371 20.5766C81.7798 21.3134 81.6517 22.2622 81.6517 23.4229V31.9626C81.3801 32.0098 81.1062 32.0435 80.8311 32.0629C80.5302 32.0852 80.2565 32.0961 80.011 32.0961C79.7372 32.095 79.4635 32.0839 79.1904 32.0629C78.9044 32.0421 78.6194 32.0087 78.3363 31.9628V14.7838L78.3372 14.7836ZM54.8343 5.61048C54.8343 6.01131 54.7619 6.40884 54.6206 6.78393C54.2454 6.92523 53.8478 6.99765 53.4468 6.99773H53.442C53.041 6.99779 52.6434 6.92542 52.2682 6.78411C52.1266 6.40895 52.0541 6.01128 52.0542 5.61031V5.60507C52.0542 5.19197 52.13 4.79634 52.2673 4.43127C52.6426 4.28977 53.0404 4.21739 53.4414 4.21765H53.446C53.8592 4.21765 54.2547 4.29345 54.6198 4.43127C54.7612 4.80644 54.8336 5.20412 54.8334 5.60507V5.61031H54.8339L54.8343 5.61048ZM58.9261 4.68123H55.6814L57.9756 2.3869C57.6148 1.88026 57.1719 1.43748 56.6652 1.07686L54.3707 3.37118V0.126292C54.0656 0.0749707 53.7568 0.0490884 53.4474 0.048912H53.4414C53.1267 0.048912 52.8184 0.0758116 52.5179 0.126292V3.37118L50.2229 1.07668C49.9702 1.25658 49.7329 1.45734 49.5137 1.67686L49.5127 1.67791C49.2935 1.89727 49.0929 2.13448 48.913 2.38708L51.2081 4.68123H47.9627C47.9627 4.68123 47.8854 5.29083 47.8854 5.60594V5.60979C47.8854 5.92489 47.9122 6.23372 47.9628 6.53433H51.2082L48.9129 8.8283C49.2739 9.33488 49.7168 9.77774 50.2234 10.1387L52.5181 7.84455V11.0896C52.8182 11.1399 53.126 11.1665 53.4404 11.1668H53.4482C53.7573 11.1665 54.0657 11.1407 54.3705 11.0896V7.84455L56.6654 10.1392C56.9181 9.95916 57.1555 9.75841 57.3751 9.53904H57.3756C57.5947 9.31945 57.7952 9.08207 57.9751 8.82935L55.6809 6.5345H58.9263C58.9766 6.23407 59.0032 5.92629 59.0032 5.61188V5.60385C59.0032 5.29468 58.9773 4.98638 58.9263 4.68158V4.68123H58.9261ZM0.109375 31.4945L9.15112 17.4292H1.18082C1.11409 17.0274 1.08073 16.5813 1.08073 16.09C1.08073 15.6213 1.11462 15.1855 1.18151 14.7834H14.0741L14.2418 15.2196L5.13313 29.3177H13.6722C13.7391 29.7644 13.7728 30.2217 13.7728 30.6903C13.7728 31.1375 13.7392 31.5614 13.6723 31.9631H0.277061L0.109375 31.494V31.4945ZM26.196 23.8922C25.8612 23.848 25.4369 23.8038 24.9235 23.7586C24.41 23.7144 23.9747 23.6917 23.618 23.6917C22.2336 23.6917 21.1787 23.9485 20.4537 24.462C19.7275 24.9759 19.3654 25.7569 19.3654 26.8061C19.3654 27.4758 19.4877 28.0005 19.7335 28.3799C19.9787 28.76 20.286 29.0496 20.6544 29.2507C21.0229 29.4515 21.4299 29.5745 21.8762 29.6192C22.3225 29.6638 22.7469 29.6859 23.1487 29.6859C23.6622 29.6859 24.1923 29.658 24.7394 29.6021C25.2861 29.5467 25.7717 29.4627 26.1962 29.3511V23.8922H26.196ZM26.196 20.6444C26.196 19.3266 25.8612 18.4114 25.1916 17.8978C24.5216 17.3843 23.5506 17.1275 22.2781 17.1275C21.4961 17.1275 20.7654 17.1893 20.0847 17.312C19.4111 17.4329 18.7456 17.5949 18.0917 17.797C17.6673 17.0603 17.4559 16.179 17.4559 15.1514C18.214 14.9062 19.051 14.7165 19.9668 14.5825C20.8821 14.4484 21.7639 14.3813 22.6126 14.3813C24.8449 14.3813 26.5415 14.8896 27.7026 15.9053C28.8631 16.9219 29.444 18.5459 29.444 20.778V31.5277C28.6622 31.7062 27.7137 31.8903 26.5976 32.0802C25.469 32.2707 24.3264 32.366 23.1819 32.3649C22.0881 32.3649 21.0998 32.2648 20.2184 32.0638C19.3363 31.8624 18.5883 31.5394 17.9745 31.0922C17.36 30.6461 16.8863 30.0767 16.5509 29.3848C16.2163 28.6926 16.0488 27.8556 16.0488 26.873C16.0488 25.9134 16.244 25.0704 16.6348 24.3445C17.0187 23.6272 17.5632 23.0084 18.2257 22.5362C18.8954 22.0569 19.6655 21.6992 20.5363 21.4652C21.4072 21.2306 22.3221 21.1132 23.2821 21.1132C23.9965 21.1132 24.5826 21.1303 25.0404 21.1638C25.4977 21.197 25.883 21.2362 26.1957 21.2809V20.6445L26.196 20.6444ZM36.3759 29.1495C36.7987 29.3057 37.2364 29.418 37.6821 29.4845C38.1286 29.5518 38.7085 29.5852 39.4236 29.5852C40.2271 29.5852 40.9635 29.4571 41.6332 29.2004C42.3033 28.9441 42.8779 28.5474 43.3579 28.0114C43.8379 27.4758 44.2173 26.8009 44.4965 25.9852C44.7754 25.1708 44.9153 24.2056 44.9153 23.0887C44.9153 21.3029 44.5855 19.8852 43.9274 18.8358C43.2683 17.7867 42.1911 17.262 40.6959 17.262C40.1378 17.262 39.6016 17.3623 39.0889 17.5635C38.5747 17.7644 38.1174 18.0659 37.7155 18.4676C37.3137 18.8693 36.9901 19.3776 36.7447 19.9914C36.4984 20.6059 36.3761 21.3364 36.3761 22.185V29.15V29.1497L36.3759 29.1495ZM33.0606 14.7832C33.2877 14.7385 33.5165 14.7052 33.7471 14.683C33.9865 14.6608 34.2268 14.6497 34.4673 14.6498C34.6898 14.6498 34.924 14.6613 35.1702 14.683C35.4154 14.7057 35.6498 14.7394 35.8734 14.7834C35.8954 14.8288 35.9237 14.9677 35.9572 15.2023C35.9904 15.4369 36.024 15.6879 36.0577 15.9555C36.0912 16.2236 36.1246 16.4809 36.1581 16.7258C36.1916 16.9717 36.2084 17.128 36.2084 17.1949C36.4311 16.8381 36.6992 16.4917 37.0119 16.1569C37.3246 15.8218 37.6989 15.5205 38.1342 15.2529C38.5695 14.9848 39.0603 14.7729 39.6075 14.6164C40.1543 14.4603 40.7627 14.3815 41.4325 14.3815C42.4369 14.3815 43.3691 14.5492 44.229 14.8842C45.0881 15.2196 45.8243 15.7378 46.4386 16.4412C47.0523 17.1446 47.5321 18.0377 47.8785 19.1202C48.2243 20.2038 48.3972 21.4818 48.3972 22.9549C48.3972 25.9017 47.599 28.2073 46.0025 29.8702C44.406 31.5336 42.1462 32.3649 39.2217 32.3649C38.7303 32.3649 38.2283 32.3314 37.7148 32.2645C37.2009 32.1972 36.7548 32.1078 36.3751 31.9967V39.8664C36.0922 39.9124 35.8074 39.9459 35.5216 39.9668C35.2199 39.9886 34.9462 40 34.7006 40C34.4269 39.9988 34.1533 39.9878 33.8804 39.9668C33.6054 39.9473 33.3316 39.9138 33.0601 39.8664V14.7834L33.0606 14.7832Z" fill="#FF4A00"/>
</g>
<defs>
<clipPath id="clip0_1266_1762">
<rect width="87.3362" height="40" fill="white" transform="translate(0.109375)"/>
</clipPath>
</defs>
</svg>
