<svg width="179" height="40" viewBox="0 0 179 40" fill="none" xmlns="http://www.w3.org/2000/svg">
<g clip-path="url(#clip0_1267_373)">
<path fill-rule="evenodd" clip-rule="evenodd" d="M144.997 11.995C145.677 13.1688 145.9 14.5044 145.973 16.0059L146.07 18.0071V32.0013L146.169 34.0046C146.366 37.2764 148.779 39.6955 152.076 39.9013L154.069 40V18.0071L154.168 16.0059C154.249 14.5212 154.47 13.1604 155.161 11.9782C155.865 10.7655 156.875 9.75941 158.091 9.06087C159.307 8.36233 160.685 7.99595 162.087 7.9985C163.49 8.00106 164.866 8.37246 166.08 9.07542C167.293 9.77838 168.3 10.7882 168.999 12.0034C169.68 13.1772 169.892 14.538 169.974 16.0059L170.073 18.0008V32.0013L170.171 34.0046C170.377 37.2932 172.771 39.7123 176.078 39.9013L178.071 40V16.0059C178.071 11.7631 176.386 7.69393 173.387 4.69322C170.387 1.6925 166.319 0.00587603 162.076 0.00420554C159.805 0.00181068 157.56 0.484056 155.49 1.41872C153.421 2.35339 151.574 3.71896 150.075 5.4242C148.574 3.71963 146.728 2.35439 144.659 1.41945C142.589 0.484504 140.344 0.00132401 138.073 0.00210518C134.751 0.00210518 131.669 1.01009 129.115 2.75095C127.557 1.01218 124.071 0.00210518 122.07 0.00210518V40L124.071 39.9013C127.418 39.6808 129.837 37.3268 129.968 34.0046L130.075 32.0013V18.0071L130.173 16.0059C130.257 14.496 130.467 13.1688 131.15 11.9866C131.854 10.7747 132.865 9.7688 134.08 9.06941C135.294 8.37002 136.672 8.00156 138.073 8.00084C139.476 8.00115 140.855 8.37033 142.07 9.07137C143.285 9.7724 144.294 10.7806 144.997 11.995V11.995ZM8.07345 39.9034L10.0747 40H40.0726L39.9739 38.005C39.703 34.7165 37.3742 32.3142 34.0751 32.1L32.0739 32.0013H14.0772L38.0713 7.99874L37.9726 6.00588C37.8172 2.68375 35.3897 0.2835 32.0739 0.100803L30.0726 0.0105048L0.074707 0.00210518L0.173405 2.00337C0.4359 5.2604 2.79835 7.71315 6.07009 7.90215L8.07345 8.00084H26.0701L2.07597 32.0034L2.17466 34.0046C2.37206 37.3016 4.75131 39.6892 8.07345 39.9013V39.9034ZM114.218 5.85679C116.075 7.71382 117.549 9.91856 118.554 12.3451C119.559 14.7716 120.077 17.3724 120.077 19.999C120.077 22.6255 119.559 25.2263 118.554 27.6528C117.549 30.0793 116.075 32.2841 114.218 34.1411C110.465 37.8907 105.377 39.9969 100.073 39.9969C94.7677 39.9969 89.6799 37.8907 85.9273 34.1411C78.1175 26.3314 78.1175 13.6665 85.9273 5.85679C87.783 4.00038 89.9862 2.52767 92.4111 1.52276C94.836 0.517847 97.4351 0.000414554 100.06 4.82108e-06C102.689 -0.00182052 105.293 0.514701 107.722 1.52002C110.152 2.52535 112.359 3.99975 114.218 5.85889V5.85679ZM108.559 11.5204C110.808 13.7716 112.072 16.8238 112.072 20.0063C112.072 23.1888 110.808 26.241 108.559 28.4922C106.307 30.7417 103.255 32.0053 100.073 32.0053C96.8901 32.0053 93.8379 30.7417 91.5867 28.4922C89.3372 26.241 88.0735 23.1888 88.0735 20.0063C88.0735 16.8238 89.3372 13.7716 91.5867 11.5204C93.8379 9.27088 96.8901 8.00727 100.073 8.00727C103.255 8.00727 106.307 9.27088 108.559 11.5204V11.5204ZM58.086 4.82108e-06C60.7111 0.00069034 63.3102 0.518454 65.7351 1.52373C68.1601 2.529 70.3632 4.0021 72.2187 5.85889C80.0306 13.6665 80.0306 26.3335 72.2187 34.1411C68.4661 37.8907 63.3783 39.9969 58.0734 39.9969C52.7686 39.9969 47.6807 37.8907 43.9281 34.1411C36.1184 26.3314 36.1184 13.6665 43.9281 5.85679C45.7838 4.00038 47.9871 2.52767 50.412 1.52276C52.8369 0.517847 55.436 0.000414554 58.0608 4.82108e-06H58.086ZM66.5594 11.5162C68.8095 13.7675 70.0735 16.8202 70.0735 20.0032C70.0735 23.1861 68.8095 26.2388 66.5594 28.4901C64.3082 30.7396 61.2559 32.0032 58.0734 32.0032C54.891 32.0032 51.8387 30.7396 49.5875 28.4901C47.338 26.2389 46.0744 23.1867 46.0744 20.0042C46.0744 16.8217 47.338 13.7695 49.5875 11.5183C51.8387 9.26878 54.891 8.00517 58.0734 8.00517C61.2559 8.00517 64.3082 9.26878 66.5594 11.5183V11.5162Z" fill="#2D8CFF"/>
</g>
<defs>
<clipPath id="clip0_1267_373">
<rect width="177.997" height="40" fill="white" transform="translate(0.074707)"/>
</clipPath>
</defs>
</svg>
