<svg width="1000" height="1000" viewBox="0 0 1000 1000" fill="none" xmlns="http://www.w3.org/2000/svg">
  <rect width="1000" height="1000" fill="url(#paint0_radial)"/>
  <path d="M773.84 497.996L503.462 30.9793C501.921 28.3181 498.079 28.3181 496.538 30.9793L226.16 497.996C225.443 499.235 225.443 500.764 226.16 502.004L496.538 969.021C498.079 971.682 501.921 971.682 503.462 969.021L773.84 502.004C774.557 500.764 774.557 499.235 773.84 497.996Z" fill="url(#paint1_linear)"/>
  <g filter="url(#filter0_i)">
    <path d="M425.87 809.796C423.71 809.796 421.73 809.556 419.93 809.076C418.17 808.596 416.67 807.956 415.43 807.156V799.116C417.19 800.116 418.93 800.896 420.65 801.456C422.37 802.016 424.13 802.296 425.93 802.296C427.93 802.296 429.59 801.916 430.91 801.156C432.23 800.396 432.89 799.216 432.89 797.616C432.89 795.976 432.41 794.696 431.45 793.776C430.49 792.816 429.25 791.776 427.73 790.656C426.53 789.776 425.37 788.796 424.25 787.716C423.13 786.636 422.21 785.376 421.49 783.936C420.77 782.456 420.41 780.736 420.41 778.776C420.41 776.216 421.01 773.976 422.21 772.056C423.41 770.096 425.11 768.556 427.31 767.436C429.55 766.316 432.15 765.756 435.11 765.756C437.35 765.756 439.41 765.996 441.29 766.476C443.17 766.956 444.99 767.676 446.75 768.636L443.57 775.476C440.53 774.036 437.71 773.316 435.11 773.316C433.51 773.316 432.19 773.756 431.15 774.636C430.11 775.476 429.59 776.636 429.59 778.116C429.59 779.636 430.05 780.856 430.97 781.776C431.89 782.656 433.19 783.656 434.87 784.776C437.23 786.336 438.99 788.056 440.15 789.936C441.35 791.816 441.95 794.016 441.95 796.536C441.95 799.536 441.21 802.016 439.73 803.976C438.29 805.936 436.35 807.396 433.91 808.356C431.51 809.316 428.83 809.796 425.87 809.796Z" fill="#33181F"/>
    <path d="M447.606 809.196L456.666 766.356H465.606L462.066 783.156H475.866L479.406 766.356H488.346L479.286 809.196H470.346L474.246 790.716H460.446L456.546 809.196H447.606Z" fill="#33181F"/>
    <path d="M507.558 809.796C502.358 809.796 498.398 808.316 495.678 805.356C492.998 802.356 491.658 798.396 491.658 793.476C491.658 790.116 492.098 786.796 492.978 783.516C493.898 780.236 495.278 777.256 497.118 774.576C498.998 771.896 501.358 769.756 504.198 768.156C507.078 766.516 510.458 765.696 514.338 765.696C519.538 765.696 523.438 767.156 526.038 770.076C528.678 772.996 529.998 776.876 529.998 781.716C529.998 785.196 529.558 788.616 528.678 791.976C527.798 795.296 526.438 798.316 524.598 801.036C522.798 803.716 520.478 805.856 517.638 807.456C514.838 809.016 511.478 809.796 507.558 809.796ZM508.218 802.176C510.538 802.176 512.658 801.356 514.578 799.716C516.498 798.036 518.018 795.676 519.138 792.636C520.298 789.596 520.878 786.036 520.878 781.956C520.878 779.316 520.258 777.216 519.018 775.656C517.818 774.056 516.018 773.256 513.618 773.256C511.778 773.256 510.058 773.796 508.458 774.876C506.898 775.916 505.538 777.376 504.378 779.256C503.258 781.136 502.378 783.296 501.738 785.736C501.098 788.136 500.778 790.716 500.778 793.476C500.778 796.316 501.438 798.476 502.758 799.956C504.078 801.436 505.898 802.176 508.218 802.176Z" fill="#33181F"/>
    <path d="M538.02 809.196L536.7 766.356H545.1L545.28 789.756C545.28 791.236 545.24 792.916 545.16 794.796C545.12 796.636 545.02 798.336 544.86 799.896H545.1C545.66 798.336 546.28 796.676 546.96 794.916C547.64 793.116 548.24 791.596 548.76 790.356L559.56 766.356H567.48L568.08 790.356C568.12 791.036 568.12 791.916 568.08 792.996C568.08 794.076 568.06 795.236 568.02 796.476C567.98 797.676 567.92 798.816 567.84 799.896H568.08C568.64 798.256 569.26 796.496 569.94 794.616C570.66 792.696 571.3 791.056 571.86 789.696L581.52 766.356H590.58L571.62 809.196H561.48L561 789.696C560.96 787.936 560.92 786.496 560.88 785.376C560.88 784.216 560.88 783.176 560.88 782.256C560.88 781.336 560.9 780.376 560.94 779.376H560.7C559.66 782.576 558.56 785.496 557.4 788.136L547.92 809.196H538.02Z" fill="#33181F"/>
    <path d="M206.606 731.196L145.89 533.516H144.478C144.713 538.223 145.066 545.283 145.537 554.696C146.008 564.109 146.478 574.229 146.949 585.054C147.42 595.644 147.655 605.293 147.655 614V731.196H100V479.154H172.718L232.375 671.892H233.434L296.621 479.154H369.339V731.196H319.566V611.882C319.566 603.881 319.684 594.703 319.919 584.348C320.39 573.993 320.743 564.227 320.978 555.049C321.449 545.636 321.802 538.576 322.037 533.869H320.625L255.673 731.196H206.606Z" fill="#33181F"/>
    <path d="M661.75 604.822C661.75 630.944 657.396 653.771 648.689 673.304C640.217 692.601 627.156 707.663 609.506 718.488C591.856 729.313 569.264 734.726 541.73 734.726C514.431 734.726 491.839 729.313 473.954 718.488C456.304 707.663 443.125 692.484 434.418 672.951C425.946 653.418 421.71 630.591 421.71 604.469C421.71 578.347 425.946 555.637 434.418 536.34C443.125 517.043 456.304 502.099 473.954 491.509C491.839 480.684 514.549 475.271 542.083 475.271C569.382 475.271 591.856 480.684 609.506 491.509C627.156 502.099 640.217 517.16 648.689 536.693C657.396 555.99 661.75 578.7 661.75 604.822ZM477.837 604.822C477.837 631.179 482.897 652.006 493.016 667.303C503.135 682.364 519.373 689.895 541.73 689.895C564.557 689.895 580.913 682.364 590.797 667.303C600.681 652.006 605.623 631.179 605.623 604.822C605.623 578.229 600.681 557.402 590.797 542.341C580.913 527.28 564.675 519.749 542.083 519.749C519.491 519.749 503.135 527.28 493.016 542.341C482.897 557.402 477.837 578.229 477.837 604.822Z" fill="#33181F"/>
    <path d="M792.324 479.154C825.977 479.154 851.393 483.861 868.572 493.274C885.751 502.687 894.341 519.278 894.341 543.047C894.341 557.402 890.929 569.522 884.104 579.406C877.515 589.29 867.984 595.291 855.511 597.409V599.174C863.983 600.821 871.631 603.763 878.456 607.999C885.281 612.235 890.693 618.354 894.694 626.355C898.695 634.356 900.695 644.946 900.695 658.125C900.695 680.952 892.458 698.838 875.985 711.781C859.512 724.724 836.92 731.196 808.209 731.196H713.958V479.154H792.324ZM798.325 579.053C813.857 579.053 824.565 576.582 830.448 571.64C836.567 566.698 839.626 559.52 839.626 550.107C839.626 540.458 836.096 533.516 829.036 529.28C821.976 525.044 810.798 522.926 795.501 522.926H767.261V579.053H798.325ZM767.261 621.413V687.071H802.208C818.211 687.071 829.389 684.012 835.743 677.893C842.097 671.539 845.274 663.185 845.274 652.83C845.274 643.417 841.979 635.886 835.39 630.238C829.036 624.355 817.387 621.413 800.443 621.413H767.261Z" fill="#33181F"/>
    <path d="M214.315 429.196H164.636V235.744H100.81V194.29H278.141V235.744H214.315V429.196Z" fill="#33181F"/>
    <path d="M449.583 429.196H314.364V194.29H449.583V235.086H364.043V286.739H443.661V327.535H364.043V388.071H449.583V429.196Z" fill="#33181F"/>
    <path d="M598.15 232.454C579.068 232.454 564.482 239.582 554.393 253.839C544.303 268.096 539.259 287.616 539.259 312.401C539.259 337.405 543.865 356.816 553.077 370.634C562.508 384.233 577.532 391.032 598.15 391.032C607.8 391.032 617.341 389.935 626.773 387.742C636.423 385.549 646.842 382.478 658.028 378.53V420.313C647.719 424.48 637.52 427.551 627.431 429.525C617.341 431.499 606.046 432.486 593.544 432.486C569.417 432.486 549.458 427.551 533.666 417.681C518.093 407.592 506.578 393.554 499.121 375.569C491.663 357.364 487.935 336.199 487.935 312.072C487.935 288.384 492.212 267.438 500.766 249.233C509.32 231.028 521.712 216.772 537.943 206.463C554.393 196.154 574.462 191 598.15 191C609.774 191 621.399 192.535 633.024 195.606C644.868 198.457 656.163 202.405 666.911 207.45L650.79 247.917C642.016 243.75 633.133 240.131 624.141 237.06C615.367 233.989 606.704 232.454 598.15 232.454Z" fill="#33181F"/>
    <path d="M900.408 429.196H850.729V327.864H757.622V429.196H707.943V194.29H757.622V286.41H850.729V194.29H900.408V429.196Z" fill="#33181F"/>
  </g>
  <path d="M899.735 906.996L875.409 864.979C873.868 862.318 870.026 862.318 868.486 864.979L844.16 906.996C843.443 908.236 843.443 909.764 844.16 911.004L868.486 953.021C870.026 955.682 873.868 955.682 875.409 953.021L899.735 911.004C900.452 909.764 900.452 908.236 899.735 906.996Z" fill="url(#paint2_linear)"/>
  <path d="M272.287 908.682C274.396 908.682 276.032 909.404 277.194 910.85C278.366 912.285 278.952 914.321 278.952 916.958C278.952 919.595 278.361 921.646 277.18 923.11C276.008 924.565 274.377 925.293 272.287 925.293C271.242 925.293 270.285 925.103 269.416 924.722C268.557 924.331 267.834 923.735 267.248 922.935H267.072L266.56 925H264.816V902.207H267.248V907.744C267.248 908.984 267.209 910.098 267.131 911.084H267.248C268.381 909.482 270.061 908.682 272.287 908.682ZM271.936 910.718C270.275 910.718 269.079 911.196 268.347 912.153C267.614 913.101 267.248 914.702 267.248 916.958C267.248 919.214 267.624 920.83 268.376 921.807C269.128 922.773 270.334 923.257 271.994 923.257C273.488 923.257 274.602 922.715 275.334 921.631C276.066 920.537 276.433 918.97 276.433 916.929C276.433 914.839 276.066 913.281 275.334 912.256C274.602 911.23 273.469 910.718 271.936 910.718Z" fill="black"/>
  <path d="M283.666 908.945H286.273L289.789 918.101C290.561 920.19 291.039 921.699 291.225 922.627H291.342C291.469 922.129 291.732 921.279 292.133 920.078C292.543 918.867 293.871 915.156 296.117 908.945H298.725L291.825 927.227C291.142 929.033 290.341 930.312 289.423 931.064C288.515 931.826 287.396 932.207 286.068 932.207C285.326 932.207 284.594 932.124 283.871 931.958V930.01C284.408 930.127 285.009 930.186 285.673 930.186C287.343 930.186 288.534 929.248 289.247 927.373L290.141 925.088L283.666 908.945Z" fill="black"/>
  <path d="M331.751 925H329.261V914.922H317.981V925H315.491V903.584H317.981V912.695H329.261V903.584H331.751V925Z" fill="black"/>
  <path d="M347.056 925.293C344.683 925.293 342.808 924.57 341.431 923.125C340.063 921.68 339.38 919.673 339.38 917.104C339.38 914.517 340.015 912.461 341.284 910.938C342.563 909.414 344.277 908.652 346.426 908.652C348.438 908.652 350.029 909.316 351.201 910.645C352.373 911.963 352.959 913.706 352.959 915.874V917.412H341.899C341.948 919.297 342.422 920.728 343.32 921.704C344.229 922.681 345.503 923.169 347.144 923.169C348.872 923.169 350.581 922.808 352.271 922.085V924.253C351.411 924.624 350.596 924.888 349.824 925.044C349.062 925.21 348.14 925.293 347.056 925.293ZM346.396 910.688C345.107 910.688 344.077 911.108 343.306 911.948C342.544 912.788 342.095 913.95 341.958 915.435H350.352C350.352 913.901 350.01 912.729 349.326 911.919C348.643 911.099 347.666 910.688 346.396 910.688Z" fill="black"/>
  <path d="M371.105 925V914.614C371.105 913.306 370.808 912.329 370.212 911.685C369.616 911.04 368.684 910.718 367.414 910.718C365.734 910.718 364.504 911.172 363.723 912.08C362.941 912.988 362.551 914.487 362.551 916.577V925H360.119V908.945H362.097L362.492 911.143H362.609C363.107 910.352 363.806 909.741 364.704 909.312C365.603 908.872 366.604 908.652 367.707 908.652C369.641 908.652 371.096 909.121 372.072 910.059C373.049 910.986 373.537 912.476 373.537 914.526V925H371.105Z" fill="black"/>
  <path d="M388.871 908.652C389.584 908.652 390.224 908.711 390.79 908.828L390.453 911.084C389.789 910.938 389.203 910.864 388.695 910.864C387.396 910.864 386.283 911.392 385.355 912.446C384.438 913.501 383.979 914.814 383.979 916.387V925H381.547V908.945H383.554L383.832 911.919H383.949C384.545 910.874 385.263 910.068 386.103 909.502C386.942 908.936 387.865 908.652 388.871 908.652Z" fill="black"/>
  <path d="M394.244 908.945H396.852L400.367 918.101C401.139 920.19 401.617 921.699 401.803 922.627H401.92C402.047 922.129 402.311 921.279 402.711 920.078C403.121 918.867 404.449 915.156 406.695 908.945H409.303L402.403 927.227C401.72 929.033 400.919 930.312 400.001 931.064C399.093 931.826 397.975 932.207 396.646 932.207C395.904 932.207 395.172 932.124 394.449 931.958V930.01C394.986 930.127 395.587 930.186 396.251 930.186C397.921 930.186 399.112 929.248 399.825 927.373L400.719 925.088L394.244 908.945Z" fill="black"/>
  <path d="M438.154 919.302C438.154 921.187 437.471 922.656 436.104 923.711C434.736 924.766 432.881 925.293 430.537 925.293C427.998 925.293 426.045 924.966 424.678 924.312V921.909C425.557 922.28 426.514 922.573 427.549 922.788C428.584 923.003 429.609 923.11 430.625 923.11C432.285 923.11 433.535 922.798 434.375 922.173C435.215 921.538 435.635 920.659 435.635 919.536C435.635 918.794 435.483 918.188 435.181 917.72C434.888 917.241 434.39 916.802 433.687 916.401C432.993 916.001 431.934 915.547 430.508 915.039C428.516 914.326 427.09 913.481 426.23 912.505C425.381 911.528 424.956 910.254 424.956 908.682C424.956 907.031 425.576 905.718 426.816 904.741C428.057 903.765 429.697 903.276 431.738 903.276C433.867 903.276 435.825 903.667 437.612 904.448L436.836 906.616C435.068 905.874 433.35 905.503 431.68 905.503C430.361 905.503 429.331 905.786 428.589 906.353C427.847 906.919 427.476 907.705 427.476 908.711C427.476 909.453 427.612 910.063 427.886 910.542C428.159 911.011 428.618 911.445 429.263 911.846C429.917 912.236 430.913 912.671 432.251 913.149C434.497 913.95 436.04 914.81 436.88 915.728C437.729 916.646 438.154 917.837 438.154 919.302Z" fill="black"/>
  <path d="M450.354 923.286C450.783 923.286 451.198 923.257 451.599 923.198C451.999 923.13 452.316 923.062 452.551 922.993V924.854C452.287 924.98 451.896 925.083 451.379 925.161C450.871 925.249 450.412 925.293 450.002 925.293C446.896 925.293 445.344 923.657 445.344 920.386V910.835H443.044V909.663L445.344 908.652L446.369 905.225H447.775V908.945H452.434V910.835H447.775V920.283C447.775 921.25 448.005 921.992 448.464 922.51C448.923 923.027 449.553 923.286 450.354 923.286Z" fill="black"/>
  <path d="M472.631 916.958C472.631 919.575 471.972 921.621 470.653 923.096C469.335 924.561 467.514 925.293 465.189 925.293C463.754 925.293 462.479 924.956 461.366 924.282C460.253 923.608 459.394 922.642 458.788 921.382C458.183 920.122 457.88 918.647 457.88 916.958C457.88 914.341 458.534 912.305 459.843 910.85C461.151 909.385 462.968 908.652 465.292 908.652C467.538 908.652 469.32 909.399 470.639 910.894C471.967 912.388 472.631 914.409 472.631 916.958ZM460.399 916.958C460.399 919.009 460.81 920.571 461.63 921.646C462.45 922.72 463.656 923.257 465.248 923.257C466.84 923.257 468.046 922.725 468.866 921.66C469.696 920.586 470.111 919.019 470.111 916.958C470.111 914.917 469.696 913.369 468.866 912.314C468.046 911.25 466.83 910.718 465.219 910.718C463.627 910.718 462.426 911.24 461.615 912.285C460.805 913.33 460.399 914.888 460.399 916.958Z" fill="black"/>
  <path d="M482.34 925H479.908V902.207H482.34V925Z" fill="black"/>
  <path d="M492.928 925H490.496V902.207H492.928V925Z" fill="black"/>
  <path d="M503.633 921.514L503.853 921.851C503.599 922.827 503.232 923.96 502.754 925.249C502.275 926.548 501.777 927.754 501.26 928.867H499.429C499.692 927.852 499.98 926.597 500.293 925.103C500.615 923.608 500.84 922.412 500.967 921.514H503.633Z" fill="black"/>
  <path d="M519.477 930.64C518.559 930.64 517.836 930.508 517.309 930.244V928.12C518.002 928.315 518.725 928.413 519.477 928.413C520.443 928.413 521.176 928.12 521.674 927.534C522.182 926.948 522.436 926.104 522.436 925V903.584H524.926V924.795C524.926 926.65 524.457 928.086 523.52 929.102C522.582 930.127 521.234 930.64 519.477 930.64Z" fill="black"/>
  <path d="M543.131 925L542.647 922.715H542.53C541.729 923.721 540.929 924.404 540.128 924.766C539.337 925.117 538.346 925.293 537.154 925.293C535.562 925.293 534.312 924.883 533.404 924.062C532.506 923.242 532.057 922.075 532.057 920.562C532.057 917.319 534.649 915.62 539.835 915.464L542.56 915.376V914.38C542.56 913.12 542.286 912.192 541.739 911.597C541.202 910.991 540.338 910.688 539.146 910.688C537.809 910.688 536.295 911.099 534.605 911.919L533.858 910.059C534.649 909.629 535.514 909.292 536.451 909.048C537.398 908.804 538.346 908.682 539.293 908.682C541.207 908.682 542.623 909.106 543.541 909.956C544.469 910.806 544.933 912.168 544.933 914.043V925H543.131ZM537.638 923.286C539.151 923.286 540.338 922.871 541.197 922.041C542.066 921.211 542.501 920.049 542.501 918.555V917.104L540.069 917.207C538.136 917.275 536.739 917.578 535.88 918.115C535.03 918.643 534.605 919.468 534.605 920.591C534.605 921.47 534.869 922.139 535.396 922.598C535.934 923.057 536.681 923.286 537.638 923.286Z" fill="black"/>
  <path d="M555.359 916.782C555.779 916.187 556.419 915.405 557.278 914.438L562.464 908.945H565.35L558.846 915.786L565.804 925H562.859L557.19 917.412L555.359 918.994V925H552.957V902.207H555.359V914.292C555.359 914.829 555.32 915.659 555.242 916.782H555.359Z" fill="black"/>
  <path d="M585.576 916.958C585.576 919.575 584.917 921.621 583.599 923.096C582.28 924.561 580.459 925.293 578.135 925.293C576.699 925.293 575.425 924.956 574.312 924.282C573.198 923.608 572.339 922.642 571.733 921.382C571.128 920.122 570.825 918.647 570.825 916.958C570.825 914.341 571.479 912.305 572.788 910.85C574.097 909.385 575.913 908.652 578.237 908.652C580.483 908.652 582.266 909.399 583.584 910.894C584.912 912.388 585.576 914.409 585.576 916.958ZM573.345 916.958C573.345 919.009 573.755 920.571 574.575 921.646C575.396 922.72 576.602 923.257 578.193 923.257C579.785 923.257 580.991 922.725 581.812 921.66C582.642 920.586 583.057 919.019 583.057 916.958C583.057 914.917 582.642 913.369 581.812 912.314C580.991 911.25 579.775 910.718 578.164 910.718C576.572 910.718 575.371 911.24 574.561 912.285C573.75 913.33 573.345 914.888 573.345 916.958Z" fill="black"/>
  <path d="M600.324 908.682C602.434 908.682 604.069 909.404 605.231 910.85C606.403 912.285 606.989 914.321 606.989 916.958C606.989 919.595 606.398 921.646 605.217 923.11C604.045 924.565 602.414 925.293 600.324 925.293C599.279 925.293 598.322 925.103 597.453 924.722C596.594 924.331 595.871 923.735 595.285 922.935H595.109L594.597 925H592.854V902.207H595.285V907.744C595.285 908.984 595.246 910.098 595.168 911.084H595.285C596.418 909.482 598.098 908.682 600.324 908.682ZM599.973 910.718C598.312 910.718 597.116 911.196 596.384 912.153C595.651 913.101 595.285 914.702 595.285 916.958C595.285 919.214 595.661 920.83 596.413 921.807C597.165 922.773 598.371 923.257 600.031 923.257C601.525 923.257 602.639 922.715 603.371 921.631C604.104 920.537 604.47 918.97 604.47 916.929C604.47 914.839 604.104 913.281 603.371 912.256C602.639 911.23 601.506 910.718 599.973 910.718Z" fill="black"/>
  <path d="M634.889 925L627.623 906.016H627.506C627.643 907.52 627.711 909.307 627.711 911.377V925H625.411V903.584H629.161L635.943 921.25H636.061L642.901 903.584H646.622V925H644.132V911.201C644.132 909.619 644.2 907.9 644.337 906.045H644.22L636.896 925H634.889Z" fill="black"/>
  <path d="M669.002 916.958C669.002 919.575 668.343 921.621 667.024 923.096C665.706 924.561 663.885 925.293 661.561 925.293C660.125 925.293 658.851 924.956 657.737 924.282C656.624 923.608 655.765 922.642 655.159 921.382C654.554 920.122 654.251 918.647 654.251 916.958C654.251 914.341 654.905 912.305 656.214 910.85C657.522 909.385 659.339 908.652 661.663 908.652C663.909 908.652 665.691 909.399 667.01 910.894C668.338 912.388 669.002 914.409 669.002 916.958ZM656.771 916.958C656.771 919.009 657.181 920.571 658.001 921.646C658.821 922.72 660.027 923.257 661.619 923.257C663.211 923.257 664.417 922.725 665.237 921.66C666.067 920.586 666.482 919.019 666.482 916.958C666.482 914.917 666.067 913.369 665.237 912.314C664.417 911.25 663.201 910.718 661.59 910.718C659.998 910.718 658.797 911.24 657.986 912.285C657.176 913.33 656.771 914.888 656.771 916.958ZM657.488 904.595C657.488 904.087 657.615 903.721 657.869 903.496C658.133 903.271 658.445 903.159 658.807 903.159C659.178 903.159 659.495 903.271 659.759 903.496C660.032 903.721 660.169 904.087 660.169 904.595C660.169 905.083 660.032 905.449 659.759 905.693C659.495 905.928 659.178 906.045 658.807 906.045C658.445 906.045 658.133 905.928 657.869 905.693C657.615 905.449 657.488 905.083 657.488 904.595ZM663.069 904.595C663.069 904.087 663.196 903.721 663.45 903.496C663.714 903.271 664.026 903.159 664.388 903.159C664.749 903.159 665.062 903.271 665.325 903.496C665.599 903.721 665.735 904.087 665.735 904.595C665.735 905.083 665.599 905.449 665.325 905.693C665.062 905.928 664.749 906.045 664.388 906.045C664.026 906.045 663.714 905.928 663.45 905.693C663.196 905.449 663.069 905.083 663.069 904.595Z" fill="black"/>
  <path d="M678.711 925H676.279V902.207H678.711V925Z" fill="black"/>
  <path d="M689.299 925H686.867V902.207H689.299V925Z" fill="black"/>
  <path d="M704.237 925.293C701.864 925.293 699.989 924.57 698.612 923.125C697.245 921.68 696.562 919.673 696.562 917.104C696.562 914.517 697.196 912.461 698.466 910.938C699.745 909.414 701.459 908.652 703.607 908.652C705.619 908.652 707.211 909.316 708.383 910.645C709.555 911.963 710.141 913.706 710.141 915.874V917.412H699.081C699.13 919.297 699.604 920.728 700.502 921.704C701.41 922.681 702.685 923.169 704.325 923.169C706.054 923.169 707.763 922.808 709.452 922.085V924.253C708.593 924.624 707.777 924.888 707.006 925.044C706.244 925.21 705.321 925.293 704.237 925.293ZM703.578 910.688C702.289 910.688 701.259 911.108 700.487 911.948C699.726 912.788 699.276 913.95 699.14 915.435H707.533C707.533 913.901 707.191 912.729 706.508 911.919C705.824 911.099 704.848 910.688 703.578 910.688Z" fill="black"/>
  <path d="M724.625 908.652C725.338 908.652 725.978 908.711 726.544 908.828L726.207 911.084C725.543 910.938 724.957 910.864 724.449 910.864C723.15 910.864 722.037 911.392 721.109 912.446C720.191 913.501 719.732 914.814 719.732 916.387V925H717.301V908.945H719.308L719.586 911.919H719.703C720.299 910.874 721.017 910.068 721.856 909.502C722.696 908.936 723.619 908.652 724.625 908.652Z" fill="black"/>
  <path d="M346.566 937.847C346.566 938.521 346.742 939.165 347.094 939.78C347.445 940.386 348.046 941.118 348.896 941.978C350.155 941.245 351.029 940.571 351.518 939.956C352.016 939.331 352.265 938.613 352.265 937.803C352.265 937.051 352.011 936.44 351.503 935.972C351.005 935.493 350.336 935.254 349.496 935.254C348.627 935.254 347.919 935.488 347.372 935.957C346.835 936.426 346.566 937.056 346.566 937.847ZM348.837 953.11C351.19 953.11 353.144 952.358 354.696 950.854L348.295 944.644C347.211 945.308 346.444 945.859 345.995 946.299C345.546 946.729 345.214 947.192 344.999 947.69C344.784 948.188 344.677 948.755 344.677 949.39C344.677 950.532 345.053 951.44 345.805 952.114C346.566 952.778 347.577 953.11 348.837 953.11ZM342.157 949.448C342.157 948.179 342.494 947.056 343.168 946.079C343.852 945.103 345.072 944.116 346.83 943.12C346 942.192 345.434 941.489 345.131 941.011C344.838 940.532 344.604 940.034 344.428 939.517C344.252 938.999 344.164 938.462 344.164 937.905C344.164 936.44 344.643 935.298 345.6 934.478C346.557 933.657 347.89 933.247 349.599 933.247C351.181 933.247 352.426 933.657 353.334 934.478C354.242 935.288 354.696 936.421 354.696 937.876C354.696 938.921 354.364 939.888 353.7 940.776C353.036 941.655 351.938 942.549 350.404 943.457L356.366 949.185C356.913 948.579 357.348 947.871 357.67 947.061C358.002 946.24 358.28 945.347 358.505 944.38H360.966C360.302 947.173 359.301 949.292 357.963 950.737L362.343 955H358.988L356.278 952.393C355.126 953.428 353.954 954.17 352.763 954.619C351.571 955.068 350.243 955.293 348.778 955.293C346.679 955.293 345.048 954.775 343.886 953.74C342.733 952.705 342.157 951.274 342.157 949.448Z" fill="black"/>
  <path d="M379.153 955V933.584H381.644V952.744H391.092V955H379.153Z" fill="black"/>
  <path d="M399.658 938.945V949.36C399.658 950.669 399.956 951.646 400.552 952.29C401.147 952.935 402.08 953.257 403.35 953.257C405.029 953.257 406.255 952.798 407.026 951.88C407.808 950.962 408.198 949.463 408.198 947.383V938.945H410.63V955H408.623L408.271 952.847H408.14C407.642 953.638 406.948 954.243 406.06 954.663C405.181 955.083 404.175 955.293 403.042 955.293C401.089 955.293 399.624 954.829 398.647 953.901C397.681 952.974 397.197 951.489 397.197 949.448V938.945H399.658Z" fill="black"/>
  <path d="M421.203 946.782C421.623 946.187 422.263 945.405 423.122 944.438L428.308 938.945H431.193L424.689 945.786L431.647 955H428.703L423.034 947.412L421.203 948.994V955H418.801V932.207H421.203V944.292C421.203 944.829 421.164 945.659 421.086 946.782H421.203Z" fill="black"/>
  <path d="M447.436 955L446.952 952.715H446.835C446.034 953.721 445.233 954.404 444.433 954.766C443.642 955.117 442.65 955.293 441.459 955.293C439.867 955.293 438.617 954.883 437.709 954.062C436.811 953.242 436.361 952.075 436.361 950.562C436.361 947.319 438.954 945.62 444.14 945.464L446.864 945.376V944.38C446.864 943.12 446.591 942.192 446.044 941.597C445.507 940.991 444.643 940.688 443.451 940.688C442.113 940.688 440.6 941.099 438.91 941.919L438.163 940.059C438.954 939.629 439.818 939.292 440.756 939.048C441.703 938.804 442.65 938.682 443.598 938.682C445.512 938.682 446.928 939.106 447.846 939.956C448.773 940.806 449.237 942.168 449.237 944.043V955H447.436ZM441.942 953.286C443.456 953.286 444.643 952.871 445.502 952.041C446.371 951.211 446.806 950.049 446.806 948.555V947.104L444.374 947.207C442.44 947.275 441.044 947.578 440.185 948.115C439.335 948.643 438.91 949.468 438.91 950.591C438.91 951.47 439.174 952.139 439.701 952.598C440.238 953.057 440.985 953.286 441.942 953.286Z" fill="black"/>
  <path d="M484.681 955H482.19V944.922H470.911V955H468.421V933.584H470.911V942.695H482.19V933.584H484.681V955Z" fill="black"/>
  <path d="M503.076 955L502.593 952.715H502.476C501.675 953.721 500.874 954.404 500.073 954.766C499.282 955.117 498.291 955.293 497.1 955.293C495.508 955.293 494.258 954.883 493.35 954.062C492.451 953.242 492.002 952.075 492.002 950.562C492.002 947.319 494.595 945.62 499.78 945.464L502.505 945.376V944.38C502.505 943.12 502.231 942.192 501.685 941.597C501.147 940.991 500.283 940.688 499.092 940.688C497.754 940.688 496.24 941.099 494.551 941.919L493.804 940.059C494.595 939.629 495.459 939.292 496.396 939.048C497.344 938.804 498.291 938.682 499.238 938.682C501.152 938.682 502.568 939.106 503.486 939.956C504.414 940.806 504.878 942.168 504.878 944.043V955H503.076ZM497.583 953.286C499.097 953.286 500.283 952.871 501.143 952.041C502.012 951.211 502.446 950.049 502.446 948.555V947.104L500.015 947.207C498.081 947.275 496.685 947.578 495.825 948.115C494.976 948.643 494.551 949.468 494.551 950.591C494.551 951.47 494.814 952.139 495.342 952.598C495.879 953.057 496.626 953.286 497.583 953.286Z" fill="black"/>
  <path d="M520.227 938.652C520.939 938.652 521.579 938.711 522.146 938.828L521.809 941.084C521.145 940.938 520.559 940.864 520.051 940.864C518.752 940.864 517.639 941.392 516.711 942.446C515.793 943.501 515.334 944.814 515.334 946.387V955H512.902V938.945H514.909L515.188 941.919H515.305C515.9 940.874 516.618 940.068 517.458 939.502C518.298 938.936 519.221 938.652 520.227 938.652Z" fill="black"/>
  <path d="M538.021 955L537.538 952.715H537.421C536.62 953.721 535.819 954.404 535.019 954.766C534.228 955.117 533.236 955.293 532.045 955.293C530.453 955.293 529.203 954.883 528.295 954.062C527.396 953.242 526.947 952.075 526.947 950.562C526.947 947.319 529.54 945.62 534.726 945.464L537.45 945.376V944.38C537.45 943.12 537.177 942.192 536.63 941.597C536.093 940.991 535.229 940.688 534.037 940.688C532.699 940.688 531.186 941.099 529.496 941.919L528.749 940.059C529.54 939.629 530.404 939.292 531.342 939.048C532.289 938.804 533.236 938.682 534.184 938.682C536.098 938.682 537.514 939.106 538.432 939.956C539.359 940.806 539.823 942.168 539.823 944.043V955H538.021ZM532.528 953.286C534.042 953.286 535.229 952.871 536.088 952.041C536.957 951.211 537.392 950.049 537.392 948.555V947.104L534.96 947.207C533.026 947.275 531.63 947.578 530.771 948.115C529.921 948.643 529.496 949.468 529.496 950.591C529.496 951.47 529.76 952.139 530.287 952.598C530.824 953.057 531.571 953.286 532.528 953.286Z" fill="black"/>
  <path d="M568.312 955V944.556C568.312 943.276 568.038 942.319 567.491 941.685C566.944 941.04 566.095 940.718 564.942 940.718C563.429 940.718 562.311 941.152 561.588 942.021C560.865 942.891 560.504 944.229 560.504 946.035V955H558.072V944.556C558.072 943.276 557.799 942.319 557.252 941.685C556.705 941.04 555.851 940.718 554.688 940.718C553.165 940.718 552.047 941.177 551.334 942.095C550.631 943.003 550.279 944.497 550.279 946.577V955H547.848V938.945H549.825L550.221 941.143H550.338C550.797 940.361 551.441 939.751 552.271 939.312C553.111 938.872 554.049 938.652 555.084 938.652C557.594 938.652 559.234 939.561 560.006 941.377H560.123C560.602 940.537 561.295 939.873 562.203 939.385C563.111 938.896 564.146 938.652 565.309 938.652C567.125 938.652 568.482 939.121 569.381 940.059C570.289 940.986 570.743 942.476 570.743 944.526V955H568.312Z" fill="black"/>
  <path d="M586.238 938.682C588.348 938.682 589.983 939.404 591.146 940.85C592.317 942.285 592.903 944.321 592.903 946.958C592.903 949.595 592.312 951.646 591.131 953.11C589.959 954.565 588.328 955.293 586.238 955.293C585.193 955.293 584.236 955.103 583.367 954.722C582.508 954.331 581.785 953.735 581.199 952.935H581.023L580.511 955H578.768V932.207H581.199V937.744C581.199 938.984 581.16 940.098 581.082 941.084H581.199C582.332 939.482 584.012 938.682 586.238 938.682ZM585.887 940.718C584.227 940.718 583.03 941.196 582.298 942.153C581.565 943.101 581.199 944.702 581.199 946.958C581.199 949.214 581.575 950.83 582.327 951.807C583.079 952.773 584.285 953.257 585.945 953.257C587.439 953.257 588.553 952.715 589.285 951.631C590.018 950.537 590.384 948.97 590.384 946.929C590.384 944.839 590.018 943.281 589.285 942.256C588.553 941.23 587.42 940.718 585.887 940.718Z" fill="black"/>
  <path d="M610.039 955L609.556 952.715H609.438C608.638 953.721 607.837 954.404 607.036 954.766C606.245 955.117 605.254 955.293 604.062 955.293C602.471 955.293 601.221 954.883 600.312 954.062C599.414 953.242 598.965 952.075 598.965 950.562C598.965 947.319 601.558 945.62 606.743 945.464L609.468 945.376V944.38C609.468 943.12 609.194 942.192 608.647 941.597C608.11 940.991 607.246 940.688 606.055 940.688C604.717 940.688 603.203 941.099 601.514 941.919L600.767 940.059C601.558 939.629 602.422 939.292 603.359 939.048C604.307 938.804 605.254 938.682 606.201 938.682C608.115 938.682 609.531 939.106 610.449 939.956C611.377 940.806 611.841 942.168 611.841 944.043V955H610.039ZM604.546 953.286C606.06 953.286 607.246 952.871 608.105 952.041C608.975 951.211 609.409 950.049 609.409 948.555V947.104L606.978 947.207C605.044 947.275 603.647 947.578 602.788 948.115C601.938 948.643 601.514 949.468 601.514 950.591C601.514 951.47 601.777 952.139 602.305 952.598C602.842 953.057 603.589 953.286 604.546 953.286Z" fill="black"/>
  <path d="M630.222 950.62C630.222 952.114 629.665 953.267 628.552 954.077C627.438 954.888 625.876 955.293 623.864 955.293C621.735 955.293 620.075 954.956 618.884 954.282V952.026C619.655 952.417 620.48 952.725 621.359 952.949C622.248 953.174 623.103 953.286 623.923 953.286C625.192 953.286 626.169 953.086 626.853 952.686C627.536 952.275 627.878 951.655 627.878 950.825C627.878 950.2 627.604 949.668 627.058 949.229C626.521 948.779 625.466 948.252 623.894 947.646C622.399 947.09 621.335 946.606 620.7 946.196C620.075 945.776 619.606 945.303 619.294 944.775C618.991 944.248 618.84 943.618 618.84 942.886C618.84 941.577 619.372 940.547 620.437 939.795C621.501 939.033 622.961 938.652 624.816 938.652C626.545 938.652 628.234 939.004 629.885 939.707L629.021 941.685C627.409 941.021 625.949 940.688 624.641 940.688C623.488 940.688 622.619 940.869 622.033 941.23C621.447 941.592 621.154 942.09 621.154 942.725C621.154 943.154 621.262 943.521 621.477 943.823C621.701 944.126 622.058 944.414 622.546 944.688C623.034 944.961 623.972 945.356 625.358 945.874C627.263 946.567 628.547 947.266 629.211 947.969C629.885 948.672 630.222 949.556 630.222 950.62Z" fill="black"/>
  <path d="M639.623 955H637.191V938.945H639.623V955ZM636.986 934.595C636.986 934.038 637.123 933.633 637.396 933.379C637.67 933.115 638.012 932.983 638.422 932.983C638.812 932.983 639.149 933.115 639.433 933.379C639.716 933.643 639.857 934.048 639.857 934.595C639.857 935.142 639.716 935.552 639.433 935.825C639.149 936.089 638.812 936.221 638.422 936.221C638.012 936.221 637.67 936.089 637.396 935.825C637.123 935.552 636.986 935.142 636.986 934.595Z" fill="black"/>
  <path d="M654.195 955.293C651.871 955.293 650.069 954.58 648.79 953.154C647.521 951.719 646.886 949.692 646.886 947.075C646.886 944.39 647.53 942.314 648.819 940.85C650.118 939.385 651.964 938.652 654.356 938.652C655.128 938.652 655.899 938.735 656.671 938.901C657.442 939.067 658.048 939.263 658.487 939.487L657.74 941.553C657.203 941.338 656.617 941.162 655.982 941.025C655.348 940.879 654.786 940.806 654.298 940.806C651.036 940.806 649.405 942.886 649.405 947.046C649.405 949.019 649.801 950.532 650.592 951.587C651.393 952.642 652.574 953.169 654.137 953.169C655.475 953.169 656.847 952.881 658.253 952.305V954.458C657.179 955.015 655.826 955.293 654.195 955.293Z" fill="black"/>
  <defs>
    <filter id="filter0_i" x="100" y="191" width="800.695" height="622.796" filterUnits="userSpaceOnUse" color-interpolation-filters="sRGB">
      <feFlood flood-opacity="0" result="BackgroundImageFix"/>
      <feBlend mode="normal" in="SourceGraphic" in2="BackgroundImageFix" result="shape"/>
      <feColorMatrix in="SourceAlpha" type="matrix" values="0 0 0 0 0 0 0 0 0 0 0 0 0 0 0 0 0 0 127 0" result="hardAlpha"/>
      <feOffset dy="4"/>
      <feGaussianBlur stdDeviation="8"/>
      <feComposite in2="hardAlpha" operator="arithmetic" k2="-1" k3="1"/>
      <feColorMatrix type="matrix" values="0 0 0 0 0 0 0 0 0 0 0 0 0 0 0 0 0 0 0.25 0"/>
      <feBlend mode="normal" in2="shape" result="effect1_innerShadow"/>
    </filter>
    <radialGradient id="paint0_radial" cx="0" cy="0" r="1" gradientUnits="userSpaceOnUse" gradientTransform="translate(65.9999 27.0001) rotate(61.1052) scale(1479.71)">
      <stop stop-color="#FF97E8"/>
      <stop offset="1" stop-color="#FF6C75"/>
    </radialGradient>
    <linearGradient id="paint1_linear" x1="500" y1="25" x2="500" y2="975" gradientUnits="userSpaceOnUse">
      <stop stop-color="white" stop-opacity="0.5"/>
      <stop offset="1" stop-color="white" stop-opacity="0"/>
    </linearGradient>
    <linearGradient id="paint2_linear" x1="871.947" y1="859" x2="871.947" y2="959" gradientUnits="userSpaceOnUse">
      <stop stop-color="white" stop-opacity="0.8"/>
      <stop offset="1" stop-color="white" stop-opacity="0.5"/>
    </linearGradient>
  </defs>
</svg>
