<svg width="800" height="800" viewBox="0 0 800 800" fill="none" xmlns="http://www.w3.org/2000/svg">
    <style>
        .background {
            fill: rgba(1, 3, 15, 1);
        }
        .initials {
            fill: rgba(247, 247, 247, 1);
        }
        @media (prefers-color-scheme: dark) {
            .background {
                fill: rgba(247, 247, 247, 1);
            }
            .initials {
                fill: rgba(1, 3, 15, 1);
            }
        }
    </style>
    <path class="background" d="M0 32C0 14.3269 14.3269 0 32 0H768C785.673 0 800 14.3269 800 32V768C800 785.673 785.673 800 768 800H32C14.3269 800 0 785.673 0 768V32Z" fill="#F7F7F7"/>
    <path class="initials" d="M175 103C175 101.343 176.343 100 178 100H247C248.657 100 250 101.343 250 103V400H472C473.657 400 475 401.343 475 403V472C475 473.657 473.657 475 472 475H178C176.343 475 175 473.657 175 472V103Z" fill="#01030E"/>
    <path class="initials" d="M550 103C550 101.343 551.344 100 553 100H622C623.657 100 625 101.343 625 103V697C625 698.657 623.657 700 622 700H553C551.344 700 550 698.657 550 697V103Z" fill="#01030E"/>
    <path class="initials" d="M178 550C176.343 550 175 551.343 175 553V697C175 698.657 176.343 700 178 700H247C248.657 700 250 698.657 250 697V553C250 551.343 248.657 550 247 550H178Z" fill="#01030E"/>
</svg>