<svg width="28" height="28" viewBox="0 0 28 28" fill="none" xmlns="http://www.w3.org/2000/svg">
<path fill-rule="evenodd" clip-rule="evenodd" d="M28 14L26.54 15.46L21 9.92V7L28 14ZM14 0L12.54 1.46L18.079 6.998H21L14 0ZM10.866 3.14L9.406 4.6L11.81 7.004H14.732L10.866 3.14ZM21 13.274V16.195L23.406 18.599L24.866 17.139L21 13.274ZM20.164 18.706L21 17.87H10.136V7L9.3 7.838L7.732 6.27L6.266 7.732L7.834 9.298L6.996 10.136V11.816L4.594 9.412L3.132 10.873L6.996 14.739V18.073L1.462 12.54L0 14L14 28L15.462 26.54L9.923 21H13.27L17.136 24.866L18.598 23.404L16.193 21H17.873L18.711 20.164L20.278 21.732L21.739 20.27L20.164 18.706Z" fill="#FF6363"/>
</svg>
