<?xml version="1.0" encoding="UTF-8"?>
<svg id="logo_roede" width="142" height="85" fill="none" version="1.1" viewBox="0 0 142 85" xmlns="http://www.w3.org/2000/svg">
 <g id="logo">
  <path id="r" d="m32.1956 12.4956c0-7.09461-6.9642-11.47605-13.41-11.47605h-18.7856v37.64675h11.2363v-18.183l8.6613 17.8881 0.1421 0.2949h12.7578l-8.9037-15.8406c5.1332-1.4914 8.3018-5.4263 8.3018-10.3301zm-20.9593-6.03295h3.2939c3.5866 0 6.0947 2.55303 6.0947 6.20145 0 5.283-2.993 6.3194-8.1764 6.3194h-1.2206v-12.52085h0.0084z" fill="black"/>
  <path id="e" d="M128.348 32.6502V22.337H140.57V16.3293H128.348V7.02718H142V1.01955H117.12V38.6663H141.916V32.6502H128.348Z" fill="black"/>
  <path id="d" d="m94.0371 1.01955h-16.5535v37.64675h18.2339c11.1775 0 18.4015-7.1199 18.4015-18.1493-9e-3 -11.2991-8.453-19.49745-20.0819-19.49745zm8.4609 18.03135c0 6.9934-2.7676 14.4587-10.5427 14.4587h-3.7537v-27.34186h3.3608c7.5577 0 10.9356 6.47106 10.9356 12.88316z" fill="black"/>
  <path id="path_oe" d="m73.5541 3.56414-3.1268-3.151273-3.8373 3.867463c-3.3943-2.68784-7.6999-4.28033-12.4569-4.28033-11.136 0-19.8558 8.71233-19.8558 19.8429 0 4.8111 1.6303 9.1757 4.3892 12.5714l-3.7789 3.8084 3.1268 3.1513 3.8207-3.8506c3.3608 2.612 7.6162 4.1624 12.298 4.1624 11.1359 0 19.8557-8.7124 19.8557-19.8429 0-4.7438-1.5884-9.041-4.2721-12.41972l3.8374-3.85904zm-19.421 1.36498c3.4779 0 5.5011 2.28341 6.6799 5.16508l-14.5804 14.6947c-0.2675-1.879-0.3344-3.6569-0.3344-4.946-0.0084-4.4826 0.7942-14.91378 8.2349-14.91378zm7.9339 10.20368c0.2425 1.7947 0.301 3.4715 0.301 4.7101 0 4.4825-0.8026 14.9137-8.2433 14.9137-3.4026 0-5.4091-2.1823-6.5963-4.9796l14.5386-14.6442z" fill="black"/>
  <circle id="cir" cx="71" cy="68.3335" r="16.6665" fill="#ad9970" fill-rule="evenodd"/>
 </g>
</svg>
