<svg width="138" height="139" viewBox="0 0 138 139" fill="none" xmlns="http://www.w3.org/2000/svg">
<path d="M66.4267 0H72.6533C89.7867 0.88 106.533 8.13333 118.587 20.4C126.6 28.2133 132.2 38.1467 135.947 48.64C131.787 51.04 127.667 53.4667 123.56 55.96C119.773 41.9867 110.8 29.4667 98.3333 21.9867C85.88 14.3333 70.3067 11.8667 56.1333 15.5333C40.5067 19.3867 26.8 30.3867 19.7867 44.8933C12.32 59.7333 12.1467 77.96 19.32 92.9467C25.5733 106.493 37.5867 117.2 51.72 121.973C66.4133 127.053 83.2533 125.533 96.7467 117.787C108.813 111.027 117.933 99.6533 122.467 86.64C100 73.8 77.5067 60.9867 55.08 48.08C55.1867 61.9733 55.1733 75.8667 55.08 89.76C62.72 85.28 70.4533 80.9467 78.04 76.3733C82.12 78.6267 86.1867 80.9067 90.2533 83.1733C78.64 89.9733 66.9733 96.6533 55.3067 103.373C51.2267 100.973 47.1333 98.6267 43.04 96.2533C43.24 78.0533 43.1467 59.84 43.0933 41.6267C47.16 39.2533 51.24 36.88 55.32 34.4933C82.84 50.24 110.333 66.0267 137.853 81.7733C134.613 99.2533 124.507 115.333 110.04 125.707C99.5733 133.293 86.96 137.773 74.0667 138.667H65.4533C53.12 137.947 41 133.92 30.7867 126.96C14.2933 115.827 2.81334 97.3867 0.693335 77.5333C-1.86666 57.36 5.17332 36.2667 19.3067 21.64C31.4133 8.61333 48.72 0.906667 66.4267 0Z" fill="black"/>
</svg>
