<svg xmlns="http://www.w3.org/2000/svg" viewBox="89 112 1522 1522">
	<rect x="207" y="205" width="1286" height="1320" rx="76" fill="#ffedf9" />
	<path fill="#2d0a2e" d="M847.969970703125,133.02732849121094C782.669921875,137.8273162841797,722.27001953125,153.82730102539062,666.469970703125,181.1273193359375L653.469970703125,187.4273223876953L477.469970703125,187.9273223876953L301.469970703125,188.4273223876953L291.969970703125,190.62733459472656C265.969970703125,196.52732849121094,245.570068359375,207.62733459472656,227.3701171875,225.6273193359375C212.070068359375,240.8273162841797,202.3701171875,256.8273010253906,195.070068359375,278.6273193359375C188.3701171875,298.8273010253906,188.8701171875,248.02732849121094,189.169921875,868.4273071289062L189.469970703125,1430.42724609375L191.669921875,1438.92724609375C196.169921875,1456.727294921875,204.77001953125,1475.8272705078125,214.669921875,1489.727294921875C228.8701171875,1509.727294921875,254.8701171875,1528.42724609375,279.469970703125,1536.42724609375C298.469970703125,1542.5272216796875,290.070068359375,1542.227294921875,447.77001953125,1542.627197265625L592.070068359375,1543.0272216796875L602.77001953125,1551.8272705078125C618.570068359375,1564.8272705078125,633.27001953125,1574.127197265625,656.8701171875,1585.92724609375C714.669921875,1614.8272705078125,803.070068359375,1622.127197265625,877.469970703125,1604.0272216796875C936.77001953125,1589.5272216796875,997.070068359375,1559.42724609375,1052.469970703125,1516.5272216796875C1082.570068359375,1493.3272705078125,1125.3701171875,1452.727294921875,1162.469970703125,1412.42724609375C1193.77001953125,1378.5272216796875,1218.77001953125,1345.5272216796875,1236.469970703125,1314.92724609375C1250.070068359375,1291.5272216796875,1265.070068359375,1257.92724609375,1271.669921875,1236.2274169921875C1273.169921875,1231.1273193359375,1274.669921875,1226.9273681640625,1274.969970703125,1226.9273681640625C1275.27001953125,1226.9273681640625,1275.3701171875,1236.7274169921875,1275.169921875,1248.627197265625C1274.8701171875,1269.42724609375,1275.8701171875,1297.227294921875,1277.969970703125,1325.42724609375C1278.469970703125,1332.5272216796875,1279.3701171875,1345.127197265625,1279.969970703125,1353.42724609375C1280.570068359375,1361.627197265625,1282.3701171875,1381.42724609375,1284.070068359375,1397.42724609375C1286.77001953125,1423.127197265625,1286.969970703125,1427.5272216796875,1285.969970703125,1435.8272705078125C1283.669921875,1456.127197265625,1268.3701171875,1492.627197265625,1254.570068359375,1510.92724609375C1251.070068359375,1515.627197265625,1243.669921875,1524.42724609375,1238.070068359375,1530.627197265625C1232.469970703125,1536.8272705078125,1227.969970703125,1542.127197265625,1227.969970703125,1542.42724609375C1227.969970703125,1542.727294921875,1266.070068359375,1542.8272705078125,1312.77001953125,1542.627197265625C1396.27001953125,1542.3272705078125,1397.570068359375,1542.227294921875,1407.47021484375,1540.0272216796875C1433.77001953125,1534.127197265625,1455.169921875,1521.92724609375,1474.570068359375,1501.727294921875C1488.27001953125,1487.5272216796875,1497.97021484375,1470.92724609375,1504.8701171875,1450.42724609375C1511.47021484375,1430.627197265625,1510.97021484375,1480.8272705078125,1510.97021484375,865.0272827148438C1510.97021484375,252.82730102539062,1511.3701171875,297.6273193359375,1505.070068359375,278.1273193359375C1501.169921875,266.42730712890625,1491.570068359375,247.52732849121094,1484.97021484375,238.8273162841797C1470.8701171875,220.12733459472656,1448.27001953125,203.62733459472656,1426.570068359375,195.9273223876953C1418.070068359375,193.02732849121094,1415.169921875,192.22731018066406,1403.47021484375,189.72731018066406C1400.070068359375,188.9273223876953,1352.669921875,188.4273223876953,1255.469970703125,188.02732849121094L1112.469970703125,187.4273223876953L1094.969970703125,179.32730102539062C1027.070068359375,147.8273162841797,953.669921875,131.72732543945312,880.469970703125,132.1273193359375C868.969970703125,132.1273193359375,854.27001953125,132.6273193359375,847.969970703125,133.02732849121094M618.469970703125,369.32733154296875C651.77001953125,374.92730712890625,663.469970703125,376.727294921875,672.469970703125,377.92730712890625C696.969970703125,381.1273193359375,704.669921875,382.02734375,723.969970703125,383.82733154296875C778.070068359375,388.92730712890625,818.8701171875,388.6273193359375,896.969970703125,382.32733154296875C929.070068359375,379.727294921875,958.570068359375,376.42730712890625,1002.969970703125,370.42730712890625C1037.070068359375,365.82733154296875,1051.469970703125,364.42730712890625,1067.969970703125,364.52734375C1085.169921875,364.6273193359375,1095.469970703125,366.727294921875,1108.669921875,372.92730712890625C1134.27001953125,384.92730712890625,1148.469970703125,403.52734375,1156.8701171875,435.92730712890625C1162.070068359375,456.1273498535156,1162.169921875,458.5273132324219,1162.969970703125,524.4273071289062C1163.570068359375,584.1273193359375,1163.669921875,586.727294921875,1165.77001953125,594.4273071289062C1170.070068359375,609.8273315429688,1177.570068359375,622.227294921875,1193.3701171875,639.9273071289062C1207.3701171875,655.4273071289062,1222.3701171875,676.9273071289062,1227.469970703125,688.6273193359375C1233.8701171875,703.0272827148438,1239.070068359375,725.6273193359375,1240.77001953125,746.6273193359375L1241.570068359375,755.8273315429688L1237.469970703125,756.4273071289062C1235.27001953125,756.8273315429688,1225.8701171875,758.8273315429688,1216.570068359375,761.0272827148438C1207.27001953125,763.227294921875,1190.169921875,767.0272827148438,1178.570068359375,769.4273071289062C1166.969970703125,771.9273071289062,1153.169921875,774.9273071289062,1147.969970703125,776.0272827148438C1139.469970703125,777.9273071289062,1136.3701171875,778.1273193359375,1119.469970703125,777.6273193359375C1109.070068359375,777.4273071289062,1099.27001953125,776.727294921875,1097.8701171875,776.1273193359375C1096.3701171875,775.5272827148438,1092.570068359375,771.5272827148438,1089.3701171875,767.227294921875C1081.3701171875,756.6273193359375,1070.77001953125,746.1273193359375,1063.169921875,741.5272827148438C1059.77001953125,739.3273315429688,1057.070068359375,737.5272827148438,1057.27001953125,737.3273315429688C1057.77001953125,736.8273315429688,1080.070068359375,740.9273071289062,1085.3701171875,742.4273071289062C1091.77001953125,744.3273315429688,1096.3701171875,744.3273315429688,1097.969970703125,742.4273071289062C1098.969970703125,741.1273193359375,1098.77001953125,740.227294921875,1096.469970703125,736.9273071289062C1090.469970703125,728.227294921875,1073.570068359375,716.727294921875,1047.969970703125,703.92724609375C1029.469970703125,694.6273193359375,1018.969970703125,690.6273193359375,1005.8701171875,687.727294921875C996.27001953125,685.6273193359375,993.070068359375,685.5272827148438,964.969970703125,685.5272827148438C924.169921875,685.6273193359375,898.77001953125,688.727294921875,870.3701171875,696.9273071289062C840.070068359375,705.8272705078125,825.070068359375,714.0272216796875,818.27001953125,725.727294921875C813.969970703125,733.0272827148438,813.669921875,737.0272827148438,816.570068359375,749.9273071289062C816.969970703125,751.9273071289062,815.669921875,754.0272827148438,809.469970703125,761.4273071289062C805.27001953125,766.3273315429688,799.8701171875,773.4273071289062,797.469970703125,777.1273193359375C794.969970703125,780.727294921875,792.570068359375,784.0272827148438,791.969970703125,784.4273071289062C791.469970703125,784.727294921875,784.969970703125,783.0272827148438,777.77001953125,780.5272827148438C756.77001953125,773.4273071289062,750.570068359375,772.4273071289062,727.469970703125,772.4273071289062C706.070068359375,772.5272827148438,700.8701171875,773.3273315429688,678.77001953125,780.227294921875L670.969970703125,782.727294921875L667.570068359375,776.5272827148438C665.669921875,773.227294921875,662.570068359375,768.227294921875,660.570068359375,765.5272827148438L657.070068359375,760.5272827148438L658.969970703125,757.3273315429688C662.77001953125,751.3273315429688,660.669921875,741.9273071289062,652.8701171875,729.8273315429688C644.070068359375,716.3272705078125,633.77001953125,709.3272705078125,608.77001953125,700.0272827148438C587.3701171875,692.0272827148438,564.669921875,687.227294921875,537.570068359375,684.9273071289062C507.8701171875,682.3273315429688,490.469970703125,686.727294921875,466.77001953125,702.6273193359375C461.3701171875,706.227294921875,453.8701171875,712.0272216796875,449.969970703125,715.6273193359375L442.969970703125,722.1273193359375L442.969970703125,714.92724609375C442.969970703125,694.8273315429688,446.169921875,665.0272827148438,454.56982421875,607.4273071289062C460.669921875,565.227294921875,464.56982421875,544.6273193359375,472.56982421875,513.227294921875C481.8701171875,476.52728271484375,492.169921875,447.727294921875,506.06982421875,420.02734375C515.06982421875,401.92730712890625,522.669921875,391.227294921875,533.77001953125,380.82733154296875C553.27001953125,362.42730712890625,566.77001953125,360.6273193359375,618.469970703125,369.32733154296875M442.469970703125,742.5272827148438L441.77001953125,751.6273193359375L433.27001953125,758.4273071289062C422.469970703125,767.0272827148438,415.169921875,775.9273071289062,409.469970703125,787.4273071289062C391.8701171875,822.727294921875,396.77001953125,870.6273193359375,422.469970703125,914.4273071289062L425.969970703125,920.4273071289062L425.969970703125,916.727294921875C425.969970703125,914.727294921875,426.8701171875,909.3273315429688,427.969970703125,904.727294921875C431.06982421875,892.227294921875,437.669921875,852.3273315429688,439.469970703125,835.9273071289062C440.27001953125,827.9273071289062,441.3701171875,805.9273071289062,441.77001953125,786.9273071289062L442.469970703125,752.4273071289062L448.469970703125,749.227294921875C455.3701171875,745.4273071289062,474.669921875,739.0272827148438,486.969970703125,736.3273315429688C494.06982421875,734.727294921875,499.77001953125,734.4273071289062,521.969970703125,734.4273071289062C547.169921875,734.5272827148438,549.070068359375,734.6273193359375,560.77001953125,737.227294921875C575.8701171875,740.6273193359375,587.969970703125,744.8273315429688,598.469970703125,750.227294921875C613.3701171875,758.0272827148438,630.469970703125,772.5272827148438,637.3701171875,783.227294921875C644.169921875,793.9273071289062,650.969970703125,809.5272827148438,650.969970703125,814.6273193359375C650.969970703125,815.4273071289062,647.969970703125,813.5272827148438,644.27001953125,810.6273193359375C631.169921875,800.1273193359375,618.3701171875,793.1273193359375,602.969970703125,788.1273193359375C586.570068359375,782.727294921875,580.669921875,781.727294921875,564.469970703125,781.6273193359375C533.469970703125,781.5272827148438,513.06982421875,788.727294921875,490.27001953125,807.8273315429688C482.3701171875,814.4273071289062,474.969970703125,824.1273193359375,474.969970703125,827.9273071289062C474.969970703125,831.3273315429688,480.27001953125,836.4273071289062,484.8701171875,837.4273071289062C490.169921875,838.5272827148438,493.56982421875,837.0272827148438,505.169921875,828.3273315429688C517.469970703125,819.1273193359375,530.570068359375,811.9273071289062,535.070068359375,811.9273071289062L537.969970703125,811.9273071289062L537.969970703125,818.9273071289062C537.969970703125,827.5272827148438,540.570068359375,834.8273315429688,545.8701171875,840.9273071289062L549.77001953125,845.4273071289062L574.570068359375,845.727294921875C593.27001953125,845.9273071289062,600.070068359375,845.6273193359375,601.969970703125,844.6273193359375C605.070068359375,843.1273193359375,610.27001953125,833.5272827148438,611.969970703125,826.3273315429688C612.669921875,823.3273315429688,613.469970703125,820.9273071289062,613.669921875,820.9273071289062C616.570068359375,820.9273071289062,634.969970703125,833.227294921875,642.669921875,840.227294921875C645.8701171875,843.227294921875,649.8701171875,846.3273315429688,651.570068359375,847.227294921875L654.570068359375,848.8273315429688L653.669921875,857.6273193359375C649.27001953125,900.6273193359375,622.27001953125,941.1273193359375,585.27001953125,960.2273559570312C574.3701171875,965.8273315429688,558.570068359375,971.2273559570312,547.77001953125,972.9273071289062C535.169921875,974.9273071289062,509.77001953125,973.7273559570312,497.469970703125,970.5272827148438C473.669921875,964.3273315429688,448.27001953125,947.5272827148438,431.77001953125,927.227294921875C428.3701171875,923.1273193359375,426.3701171875,921.3273315429688,425.969970703125,922.1273193359375C425.56982421875,922.8273315429688,423.969970703125,930.6273193359375,422.3701171875,939.3273315429688L419.56982421875,955.2273559570312L426.969970703125,962.1272583007812C441.8701171875,975.7273559570312,456.969970703125,985.3273315429688,473.8701171875,992.0272827148438C491.169921875,998.8273315429688,502.669921875,1001.0272827148438,523.669921875,1001.6272583007812C549.469970703125,1002.4273071289062,566.469970703125,999.3273315429688,588.070068359375,990.0272827148438C607.8701171875,981.4273071289062,629.570068359375,965.4273071289062,642.969970703125,949.4273071289062C646.469970703125,945.3273315429688,649.469970703125,942.0272827148438,649.669921875,942.227294921875C650.77001953125,943.3273315429688,634.169921875,982.7273559570312,624.77001953125,1001.4273071289062C621.469970703125,1008.0272827148438,617.070068359375,1017.4273071289062,615.169921875,1022.4273071289062C611.77001953125,1030.92724609375,611.570068359375,1032.02734375,611.469970703125,1043.42724609375C611.469970703125,1055.227294921875,611.570068359375,1055.52734375,614.8701171875,1061.727294921875C619.669921875,1070.627197265625,630.070068359375,1078.92724609375,645.27001953125,1086.02734375L650.169921875,1088.227294921875L635.27001953125,1093.127197265625C616.469970703125,1099.227294921875,602.77001953125,1102.92724609375,581.969970703125,1107.42724609375C560.469970703125,1112.127197265625,538.969970703125,1117.52734375,533.8701171875,1119.52734375C531.669921875,1120.42724609375,529.669921875,1120.92724609375,529.27001953125,1120.627197265625C528.27001953125,1119.52734375,536.570068359375,1106.727294921875,545.3701171875,1095.92724609375C549.969970703125,1090.127197265625,557.469970703125,1080.92724609375,561.969970703125,1075.42724609375C570.27001953125,1065.227294921875,578.669921875,1052.327392578125,577.669921875,1051.327392578125C576.77001953125,1050.42724609375,561.27001953125,1058.92724609375,553.070068359375,1064.727294921875C535.570068359375,1077.327392578125,512.3701171875,1100.127197265625,503.3701171875,1113.627197265625C494.169921875,1127.52734375,490.969970703125,1137.627197265625,490.969970703125,1153.52734375C490.969970703125,1167.627197265625,493.06982421875,1178.227294921875,499.469970703125,1196.627197265625C506.8701171875,1217.6273193359375,510.969970703125,1233.5272216796875,510.969970703125,1241.227294921875C510.969970703125,1250.0272216796875,509.27001953125,1260.627197265625,507.3701171875,1263.42724609375C505.469970703125,1266.42724609375,500.8701171875,1268.0272216796875,496.669921875,1267.227294921875C489.669921875,1265.92724609375,472.3701171875,1244.3272705078125,455.669921875,1216.2274169921875C440.06982421875,1189.827392578125,425.969970703125,1156.92724609375,418.969970703125,1130.52734375C410.8701171875,1099.727294921875,408.3701171875,1077.42724609375,409.27001953125,1042.42724609375C409.969970703125,1016.3273315429688,411.3701171875,1001.7273559570312,415.969970703125,973.3273315429688L418.969970703125,954.8273315429688L412.27001953125,946.6273193359375C384.3701171875,912.3273315429688,371.969970703125,875.5272827148438,371.969970703125,826.8273315429688L371.969970703125,811.227294921875L360.3701171875,808.4273071289062C350.3701171875,806.1273193359375,348.77001953125,805.4273071289062,347.969970703125,803.3273315429688C346.56982421875,799.8273315429688,346.3701171875,775.1273193359375,347.669921875,773.8273315429688C349.27001953125,772.227294921875,354.77001953125,771.1273193359375,372.469970703125,768.9273071289062L388.469970703125,767.0272827148438L392.469970703125,762.227294921875C404.77001953125,747.4273071289062,418.969970703125,735.727294921875,435.06982421875,727.0272216796875L442.469970703125,723.0272216796875L442.77001953125,728.227294921875C442.969970703125,731.0272827148438,442.8701171875,737.5272827148438,442.469970703125,742.5272827148438M989.3701171875,740.8273315429688C1011.27001953125,745.6273193359375,1026.669921875,751.8273315429688,1041.8701171875,761.9273071289062C1061.77001953125,775.0272827148438,1072.469970703125,790.3273315429688,1079.169921875,814.9273071289062C1081.169921875,822.5272827148438,1081.469970703125,825.6273193359375,1081.469970703125,843.4273071289062C1081.3701171875,865.3273315429688,1080.3701171875,872.8273315429688,1074.8701171875,889.4273071289062C1061.969970703125,928.4273071289062,1031.8701171875,960.0272827148438,994.3701171875,973.7273559570312C976.570068359375,980.3273315429688,970.27001953125,981.3273315429688,948.469970703125,981.4273071289062C933.070068359375,981.4273071289062,926.570068359375,981.0272827148438,920.27001953125,979.6272583007812C900.969970703125,975.5272827148438,883.3701171875,967.9273071289062,869.969970703125,957.9273071289062C858.570068359375,949.4273071289062,839.469970703125,930.1273193359375,833.570068359375,921.227294921875C818.669921875,898.5272827148438,808.969970703125,867.9273071289062,808.969970703125,843.727294921875C808.969970703125,826.8273315429688,814.070068359375,807.4273071289062,822.070068359375,793.6273193359375C836.169921875,769.4273071289062,862.77001953125,751.9273071289062,898.570068359375,743.3273315429688C916.8701171875,738.9273071289062,927.169921875,738.0272827148438,954.469970703125,738.3273315429688C975.570068359375,738.6273193359375,981.070068359375,739.0272827148438,989.3701171875,740.8273315429688M1393.169921875,746.727294921875C1402.77001953125,751.0272827148438,1411.570068359375,761.8273315429688,1415.97021484375,774.727294921875C1419.97021484375,786.8273315429688,1421.169921875,801.0272827148438,1420.669921875,828.9273071289062C1419.8701171875,872.8273315429688,1415.669921875,890.727294921875,1390.77001953125,956.4273071289062C1380.570068359375,983.3273315429688,1375.47021484375,998.9273071289062,1370.070068359375,1019.9273071289062C1362.97021484375,1047.727294921875,1357.169921875,1061.627197265625,1349.169921875,1070.327392578125C1335.669921875,1084.827392578125,1315.77001953125,1089.827392578125,1300.669921875,1082.42724609375C1297.570068359375,1080.827392578125,1294.47021484375,1079.02734375,1293.8701171875,1078.227294921875C1292.77001953125,1076.92724609375,1293.77001953125,1020.0272827148438,1295.97021484375,963.6272583007812C1296.570068359375,950.0272827148438,1296.97021484375,930.9273071289062,1296.97021484375,921.3273315429688C1296.97021484375,911.6273193359375,1297.8701171875,894.4273071289062,1298.97021484375,882.6273193359375C1300.070068359375,870.9273071289062,1301.47021484375,856.227294921875,1301.97021484375,849.9273071289062C1303.3701171875,834.8273315429688,1307.27001953125,815.6273193359375,1310.97021484375,806.1273193359375C1321.570068359375,778.5272827148438,1345.3701171875,752.8273315429688,1366.8701171875,745.727294921875C1374.27001953125,743.3273315429688,1386.47021484375,743.727294921875,1393.169921875,746.727294921875M1243.3701171875,810.4273071289062C1244.669921875,852.727294921875,1242.77001953125,905.727294921875,1238.8701171875,932.227294921875C1234.669921875,961.6272583007812,1223.570068359375,1010.3273315429688,1215.669921875,1034.02734375C1208.77001953125,1054.627197265625,1204.570068359375,1064.627197265625,1196.8701171875,1078.52734375C1181.070068359375,1106.92724609375,1166.570068359375,1122.627197265625,1132.969970703125,1148.127197265625C1115.469970703125,1161.42724609375,1110.469970703125,1166.127197265625,1102.969970703125,1176.02734375C1096.169921875,1185.127197265625,1089.669921875,1197.52734375,1079.969970703125,1219.9273681640625C1063.070068359375,1258.92724609375,1043.8701171875,1287.8272705078125,1030.469970703125,1294.42724609375C1025.469970703125,1296.92724609375,1018.3701171875,1296.92724609375,1014.669921875,1294.42724609375C1010.3701171875,1291.627197265625,1008.669921875,1287.3272705078125,1008.169921875,1278.3272705078125C1007.570068359375,1266.5272216796875,1009.3701171875,1255.227294921875,1015.169921875,1235.7274169921875C1026.469970703125,1197.42724609375,1027.969970703125,1189.02734375,1026.8701171875,1171.92724609375C1026.169921875,1161.727294921875,1023.169921875,1151.42724609375,1017.669921875,1139.92724609375C1013.27001953125,1130.827392578125,996.570068359375,1114.327392578125,971.8701171875,1094.627197265625C939.570068359375,1068.92724609375,909.969970703125,1050.327392578125,909.969970703125,1055.727294921875C909.969970703125,1058.92724609375,927.469970703125,1079.42724609375,947.969970703125,1100.42724609375C963.77001953125,1116.52734375,971.969970703125,1126.227294921875,970.8701171875,1127.327392578125C970.669921875,1127.627197265625,963.070068359375,1126.227294921875,954.169921875,1124.42724609375C945.169921875,1122.52734375,928.070068359375,1119.42724609375,916.169921875,1117.42724609375C889.070068359375,1112.92724609375,846.469970703125,1102.627197265625,822.070068359375,1094.727294921875L815.77001953125,1092.727294921875L822.570068359375,1090.02734375C836.27001953125,1084.727294921875,849.469970703125,1074.02734375,854.669921875,1064.227294921875C858.8701171875,1056.42724609375,860.3701171875,1048.02734375,858.969970703125,1039.227294921875C857.570068359375,1030.327392578125,851.3701171875,1017.4273071289062,845.969970703125,1012.6272583007812C842.070068359375,1009.0272827148438,837.469970703125,1007.0272827148438,836.27001953125,1008.3273315429688C835.8701171875,1008.7273559570312,836.3701171875,1012.9273071289062,837.27001953125,1017.8273315429688C841.3701171875,1039.42724609375,837.070068359375,1053.127197265625,823.8701171875,1060.42724609375L818.469970703125,1063.42724609375L800.469970703125,1063.127197265625C772.77001953125,1062.627197265625,767.3701171875,1064.227294921875,743.77001953125,1080.227294921875C728.969970703125,1090.227294921875,721.77001953125,1092.92724609375,709.8701171875,1092.92724609375C701.27001953125,1092.92724609375,691.969970703125,1090.42724609375,686.469970703125,1086.627197265625C684.8701171875,1085.52734375,679.169921875,1080.52734375,673.969970703125,1075.52734375C668.77001953125,1070.627197265625,661.070068359375,1064.127197265625,656.969970703125,1061.127197265625C648.070068359375,1054.627197265625,646.570068359375,1053.02734375,643.3701171875,1046.42724609375C641.669921875,1042.827392578125,640.969970703125,1039.727294921875,640.969970703125,1035.227294921875C640.969970703125,1028.127197265625,643.070068359375,1022.1272583007812,653.469970703125,999.9273071289062C665.570068359375,973.9273071289062,680.3701171875,929.0272827148438,687.469970703125,896.9273071289062C693.3701171875,870.227294921875,696.77001953125,838.727294921875,693.969970703125,835.4273071289062C692.3701171875,833.5272827148438,688.070068359375,833.4273071289062,687.3701171875,835.4273071289062C686.3701171875,837.9273071289062,684.969970703125,837.1273193359375,684.969970703125,834.1273193359375C684.969970703125,832.6273193359375,684.27001953125,827.6273193359375,683.469970703125,823.0272827148438C681.570068359375,812.3273315429688,682.3701171875,811.0272827148438,692.27001953125,806.4273071289062C702.77001953125,801.6273193359375,709.469970703125,800.4273071289062,725.969970703125,800.5272827148438C745.469970703125,800.6273193359375,758.469970703125,803.227294921875,771.469970703125,809.6273193359375C781.3701171875,814.6273193359375,780.969970703125,813.3273315429688,780.969970703125,837.3273315429688C780.969970703125,867.1273193359375,783.8701171875,882.1273193359375,794.570068359375,908.3273315429688C800.070068359375,921.6273193359375,804.669921875,929.727294921875,814.570068359375,943.0272827148438C824.27001953125,956.0272827148438,829.27001953125,961.4273071289062,840.469970703125,970.7273559570312C866.570068359375,992.6272583007812,894.8701171875,1004.9273071289062,928.27001953125,1009.0272827148438C942.3701171875,1010.7273559570312,969.77001953125,1009.7273559570312,982.469970703125,1007.0272827148438C1008.969970703125,1001.4273071289062,1026.8701171875,992.6272583007812,1049.669921875,974.2273559570312C1073.570068359375,954.9273071289062,1092.3701171875,927.3273315429688,1102.77001953125,896.227294921875C1108.8701171875,878.3273315429688,1111.169921875,861.9273071289062,1111.3701171875,836.227294921875L1111.469970703125,818.4273071289062L1126.570068359375,816.727294921875C1137.070068359375,815.6273193359375,1146.469970703125,813.8273315429688,1157.070068359375,810.9273071289062C1184.169921875,803.6273193359375,1208.070068359375,796.8273315429688,1224.469970703125,791.8273315429688C1233.27001953125,789.227294921875,1240.969970703125,787.0272827148438,1241.570068359375,786.9273071289062C1242.3701171875,786.9273071289062,1242.8701171875,794.3273315429688,1243.3701171875,810.4273071289062M566.27001953125,1189.52734375C571.169921875,1192.02734375,580.8701171875,1200.127197265625,598.469970703125,1216.4273681640625C617.669921875,1234.1273193359375,622.669921875,1238.1273193359375,634.469970703125,1244.727294921875C669.169921875,1264.127197265625,725.27001953125,1275.5272216796875,769.469970703125,1272.0272216796875C800.969970703125,1269.42724609375,832.570068359375,1262.127197265625,861.469970703125,1250.727294921875C886.169921875,1240.92724609375,922.669921875,1219.9273681640625,947.3701171875,1201.127197265625C951.169921875,1198.327392578125,954.570068359375,1195.92724609375,954.969970703125,1195.92724609375C956.570068359375,1195.92724609375,957.8701171875,1198.727294921875,959.969970703125,1205.92724609375C965.3701171875,1225.2274169921875,967.469970703125,1258.92724609375,964.570068359375,1280.42724609375C961.3701171875,1304.42724609375,952.77001953125,1331.92724609375,943.3701171875,1348.5272216796875C929.969970703125,1372.127197265625,910.3701171875,1392.3272705078125,889.469970703125,1404.127197265625C861.27001953125,1420.127197265625,831.27001953125,1423.8272705078125,811.570068359375,1413.727294921875C805.77001953125,1410.727294921875,798.070068359375,1403.127197265625,795.27001953125,1397.42724609375C792.169921875,1391.3272705078125,791.169921875,1381.8272705078125,792.969970703125,1375.42724609375C795.070068359375,1367.92724609375,799.27001953125,1362.627197265625,809.8701171875,1354.0272216796875C826.570068359375,1340.5272216796875,834.669921875,1331.3272705078125,837.669921875,1322.727294921875C839.3701171875,1317.727294921875,837.969970703125,1314.227294921875,833.570068359375,1312.42724609375C830.469970703125,1311.127197265625,828.8701171875,1311.227294921875,816.77001953125,1313.5272216796875C791.169921875,1318.3272705078125,778.3701171875,1319.92724609375,760.469970703125,1320.5272216796875C731.469970703125,1321.5272216796875,706.070068359375,1318.42724609375,674.570068359375,1309.8272705078125C657.570068359375,1305.227294921875,654.77001953125,1304.92724609375,651.969970703125,1307.42724609375C645.77001953125,1313.0272216796875,655.669921875,1331.627197265625,672.77001953125,1346.727294921875C689.669921875,1361.5272216796875,692.969970703125,1366.727294921875,692.969970703125,1378.127197265625C692.969970703125,1393.5272216796875,681.3701171875,1405.727294921875,663.969970703125,1408.92724609375C648.469970703125,1411.727294921875,626.27001953125,1405.227294921875,610.969970703125,1393.42724609375C586.570068359375,1374.5272216796875,569.3701171875,1344.8272705078125,558.8701171875,1303.42724609375C553.570068359375,1282.127197265625,551.969970703125,1270.3272705078125,551.27001953125,1246.92724609375C550.3701171875,1217.1273193359375,553.169921875,1193.627197265625,557.969970703125,1189.727294921875C560.669921875,1187.52734375,562.169921875,1187.52734375,566.27001953125,1189.52734375M653.469970703125,1190.42724609375C725.070068359375,1194.827392578125,775.969970703125,1196.327392578125,830.469970703125,1195.52734375C856.3701171875,1195.227294921875,882.3701171875,1194.627197265625,888.3701171875,1194.327392578125L899.169921875,1193.727294921875L895.169921875,1199.727294921875C888.070068359375,1210.02734375,875.77001953125,1219.0272216796875,859.469970703125,1225.8272705078125C844.169921875,1232.2274169921875,810.169921875,1240.8272705078125,787.469970703125,1244.127197265625C773.77001953125,1246.127197265625,733.669921875,1245.8272705078125,716.669921875,1243.627197265625C683.27001953125,1239.2274169921875,647.169921875,1226.9273681640625,638.669921875,1216.8272705078125C635.3701171875,1213.02734375,624.77001953125,1194.227294921875,623.570068359375,1190.227294921875C622.969970703125,1188.227294921875,623.169921875,1188.02734375,626.169921875,1188.42724609375C627.969970703125,1188.727294921875,640.27001953125,1189.627197265625,653.469970703125,1190.42724609375M930.8701171875,785.9273071289062C912.27001953125,787.6273193359375,898.77001953125,791.5272827148438,881.969970703125,799.9273071289062C860.469970703125,810.727294921875,840.969970703125,828.8273315429688,840.969970703125,837.9273071289062C840.969970703125,844.9273071289062,849.27001953125,849.0272827148438,857.169921875,846.0272827148438C858.469970703125,845.5272827148438,864.570068359375,841.3273315429688,870.8701171875,836.6273193359375C881.8701171875,828.4273071289062,901.969970703125,817.227294921875,906.77001953125,816.727294921875C909.070068359375,816.4273071289062,909.169921875,816.727294921875,909.469970703125,824.4273071289062C909.8701171875,836.5272827148438,914.669921875,845.4273071289062,923.77001953125,851.1273193359375C927.27001953125,853.3273315429688,928.469970703125,853.4273071289062,943.969970703125,853.4273071289062C962.070068359375,853.4273071289062,970.3701171875,851.9273071289062,977.169921875,847.4273071289062C981.669921875,844.4273071289062,985.8701171875,836.1273193359375,986.669921875,828.5272827148438C987.169921875,823.9273071289062,987.570068359375,822.9273071289062,989.169921875,822.9273071289062C992.469970703125,822.9273071289062,1002.669921875,827.6273193359375,1014.070068359375,834.4273071289062C1028.27001953125,842.9273071289062,1030.669921875,843.9273071289062,1037.3701171875,843.9273071289062C1042.070068359375,843.9273071289062,1043.070068359375,843.5272827148438,1044.8701171875,841.3273315429688C1048.570068359375,836.6273193359375,1047.669921875,832.5272827148438,1041.77001953125,826.3273315429688C1028.969970703125,812.727294921875,1006.77001953125,798.9273071289062,986.570068359375,791.9273071289062C971.169921875,786.6273193359375,949.169921875,784.227294921875,930.8701171875,785.9273071289062M1372.169921875,789.9273071289062C1364.77001953125,793.727294921875,1355.3701171875,802.727294921875,1348.169921875,813.227294921875C1337.8701171875,828.0272827148438,1316.47021484375,869.9273071289062,1310.77001953125,886.4273071289062L1308.47021484375,892.8273315429688L1316.27001953125,908.1273193359375C1320.8701171875,917.0272827148438,1324.77001953125,926.227294921875,1325.669921875,930.1273193359375C1327.169921875,936.4273071289062,1327.169921875,937.4273071289062,1325.669921875,943.6273193359375C1324.77001953125,947.4273071289062,1321.27001953125,955.9273071289062,1317.8701171875,962.7273559570312C1310.97021484375,976.5272827148438,1309.669921875,981.9273071289062,1312.47021484375,984.9273071289062C1315.77001953125,988.5272827148438,1319.3701171875,987.0272827148438,1329.27001953125,977.9273071289062C1343.97021484375,964.5272827148438,1353.169921875,949.1273193359375,1354.97021484375,934.8273315429688C1356.8701171875,919.227294921875,1351.97021484375,897.9273071289062,1343.3701171875,883.8273315429688C1340.97021484375,879.9273071289062,1338.97021484375,876.4273071289062,1338.97021484375,876.0272827148438C1338.97021484375,874.8273315429688,1355.8701171875,845.0272827148438,1360.169921875,838.5272827148438C1364.47021484375,832.0272827148438,1368.8701171875,826.9273071289062,1370.070068359375,826.9273071289062C1372.169921875,826.9273071289062,1376.169921875,846.227294921875,1377.97021484375,864.9273071289062C1379.169921875,877.8273315429688,1380.570068359375,886.8273315429688,1382.070068359375,890.727294921875C1383.070068359375,893.3273315429688,1383.169921875,893.4273071289062,1384.570068359375,891.4273071289062C1386.97021484375,888.227294921875,1391.8701171875,871.4273071289062,1394.169921875,859.0272827148438C1397.070068359375,842.5272827148438,1397.8701171875,807.727294921875,1395.570068359375,799.5272827148438C1393.169921875,791.4273071289062,1389.669921875,787.8273315429688,1383.3701171875,787.227294921875C1379.27001953125,786.8273315429688,1377.3701171875,787.3273315429688,1372.169921875,789.9273071289062" />
</svg>
