<svg width="768" height="275" viewBox="0 0 768 275" fill="none" xmlns="http://www.w3.org/2000/svg">
<rect width="768" height="275" fill="#E2EBF0"/>
<g filter="url(#filter0_d)">
<rect x="84" y="88" width="600" height="100" rx="50" fill="url(#paint0_linear)"/>
</g>
<rect x="82" y="86" width="604" height="104" rx="52" stroke="#BFB32B" stroke-width="4"/>
<mask id="mask0" mask-type="alpha" maskUnits="userSpaceOnUse" x="84" y="88" width="600" height="100">
<rect x="84" y="88" width="600" height="100" rx="50" fill="black"/>
</mask>
<g mask="url(#mask0)">
<rect x="84" y="38" width="600" height="100" rx="50" fill="url(#paint1_linear)"/>
<g filter="url(#filter1_i)">
<path d="M303.458 143.159C303.181 146.984 301.765 149.995 299.21 152.192C296.671 154.39 293.318 155.488 289.151 155.488C284.594 155.488 281.005 153.958 278.385 150.898C275.781 147.822 274.479 143.607 274.479 138.252V136.079C274.479 132.661 275.081 129.65 276.285 127.046C277.49 124.442 279.207 122.448 281.437 121.064C283.683 119.665 286.287 118.965 289.249 118.965C293.351 118.965 296.655 120.063 299.161 122.261C301.668 124.458 303.116 127.542 303.507 131.514H296.183C296.004 129.219 295.361 127.559 294.254 126.533C293.163 125.492 291.495 124.971 289.249 124.971C286.808 124.971 284.977 125.85 283.756 127.607C282.551 129.349 281.933 132.059 281.9 135.737V138.423C281.9 142.264 282.478 145.072 283.634 146.846C284.806 148.62 286.645 149.507 289.151 149.507C291.414 149.507 293.098 148.994 294.205 147.969C295.328 146.927 295.971 145.324 296.134 143.159H303.458Z" fill="#6C6512"/>
<path d="M315.592 149.116H331.144V155H308.268V119.453H315.592V149.116Z" fill="#6C6512"/>
<path d="M343.155 155H335.831V119.453H343.155V155Z" fill="#6C6512"/>
<path d="M377.872 143.159C377.595 146.984 376.179 149.995 373.624 152.192C371.085 154.39 367.732 155.488 363.565 155.488C359.008 155.488 355.419 153.958 352.799 150.898C350.195 147.822 348.893 143.607 348.893 138.252V136.079C348.893 132.661 349.495 129.65 350.699 127.046C351.904 124.442 353.621 122.448 355.851 121.064C358.097 119.665 360.701 118.965 363.663 118.965C367.765 118.965 371.069 120.063 373.575 122.261C376.082 124.458 377.53 127.542 377.921 131.514H370.597C370.418 129.219 369.775 127.559 368.668 126.533C367.577 125.492 365.909 124.971 363.663 124.971C361.222 124.971 359.391 125.85 358.17 127.607C356.965 129.349 356.347 132.059 356.314 135.737V138.423C356.314 142.264 356.892 145.072 358.048 146.846C359.22 148.62 361.059 149.507 363.565 149.507C365.828 149.507 367.512 148.994 368.619 147.969C369.742 146.927 370.385 145.324 370.548 143.159H377.872Z" fill="#6C6512"/>
<path d="M393.814 140.742L390.006 144.844V155H382.682V119.453H390.006V135.566L393.229 131.147L402.286 119.453H411.295L398.673 135.249L411.661 155H402.945L393.814 140.742Z" fill="#6C6512"/>
<path d="M436.441 119.453L445.572 145.234L454.654 119.453H464.273V155H456.925V145.283L457.657 128.511L448.062 155H443.033L433.463 128.535L434.195 145.283V155H426.871V119.453H436.441Z" fill="#6C6512"/>
<path d="M492.057 139.595H477.994V149.116H494.498V155H470.67V119.453H494.449V125.386H477.994V133.857H492.057V139.595Z" fill="#6C6512"/>
</g>
</g>
<defs>
<filter id="filter0_d" x="84" y="88" width="614" height="114" filterUnits="userSpaceOnUse" color-interpolation-filters="sRGB">
<feFlood flood-opacity="0" result="BackgroundImageFix"/>
<feColorMatrix in="SourceAlpha" type="matrix" values="0 0 0 0 0 0 0 0 0 0 0 0 0 0 0 0 0 0 127 0"/>
<feOffset dx="8" dy="8"/>
<feGaussianBlur stdDeviation="3"/>
<feColorMatrix type="matrix" values="0 0 0 0 0 0 0 0 0 0 0 0 0 0 0 0 0 0 0.5 0"/>
<feBlend mode="normal" in2="BackgroundImageFix" result="effect1_dropShadow"/>
<feBlend mode="normal" in="SourceGraphic" in2="effect1_dropShadow" result="shape"/>
</filter>
<filter id="filter1_i" x="274.479" y="118.965" width="220.02" height="40.5234" filterUnits="userSpaceOnUse" color-interpolation-filters="sRGB">
<feFlood flood-opacity="0" result="BackgroundImageFix"/>
<feBlend mode="normal" in="SourceGraphic" in2="BackgroundImageFix" result="shape"/>
<feColorMatrix in="SourceAlpha" type="matrix" values="0 0 0 0 0 0 0 0 0 0 0 0 0 0 0 0 0 0 127 0" result="hardAlpha"/>
<feOffset dy="4"/>
<feGaussianBlur stdDeviation="2"/>
<feComposite in2="hardAlpha" operator="arithmetic" k2="-1" k3="1"/>
<feColorMatrix type="matrix" values="0 0 0 0 0 0 0 0 0 0 0 0 0 0 0 0 0 0 0.25 0"/>
<feBlend mode="normal" in2="shape" result="effect1_innerShadow"/>
</filter>
<linearGradient id="paint0_linear" x1="384" y1="88" x2="384" y2="188" gradientUnits="userSpaceOnUse">
<stop stop-color="#C8AD1E"/>
<stop offset="1" stop-color="#F1EA33"/>
</linearGradient>
<linearGradient id="paint1_linear" x1="384" y1="38" x2="384" y2="138" gradientUnits="userSpaceOnUse">
<stop stop-color="white" stop-opacity="0.5"/>
<stop offset="1" stop-color="white" stop-opacity="0.3"/>
</linearGradient>
</defs>
</svg>
